<?xml version="1.0" encoding="UTF-8" standalone="no"?>
<svg width="133px" height="130px" viewBox="0 0 133 130" version="1.1" xmlns="http://www.w3.org/2000/svg" xmlns:xlink="http://www.w3.org/1999/xlink">
    <!-- Generator: Sketch 39.1 (31720) - http://www.bohemiancoding.com/sketch -->
    <title>nuage</title>
    <desc>Created with Sketch.</desc>
    <defs></defs>
    <g id="Page-1" stroke="none" stroke-width="1" fill="none" fill-rule="evenodd">
        <g id="Act" transform="translate(-1091.000000, -3077.000000)" stroke="#5B6C8E" stroke-width="5">
            <g id="Good-Practicies" transform="translate(210.000000, 1238.000000)">
                <g id="GP-5" transform="translate(0.000000, 1768.000000)">
                    <g id="nuage" transform="translate(883.000000, 73.000000)">
                        <path d="M36.28125,86.7047999 L36.28125,127.262586" id="Shape"></path>
                        <path d="M55.09375,86.7047999 L55.09375,108.827229" id="Shape"></path>
                        <path d="M73.90625,86.7047999 L73.90625,114.726543" id="Shape"></path>
                        <path d="M92.71875,86.7047999 L92.71875,99.9782571" id="Shape"></path>
                        <path d="M22.0084922,76.1155387 C21.7857131,76.1227052 21.5620438,76.1263158 21.3375385,76.1263158 C9.92420767,76.1263158 0.671875,66.7951193 0.671875,55.2845049 C0.671875,45.5772304 7.25222308,37.4199786 16.1596349,35.1022878 C14.9594819,32.9592994 14.2745901,30.4839062 14.2745901,27.8471844 C14.2745901,19.6877617 20.8332057,13.0732425 28.9236681,13.0732425 C31.3538019,13.0732425 33.6457292,13.6700195 35.6632239,14.7261863 L35.6632239,14.7261863 C42.1700675,6.21489384 52.7790734,0.673684211 64.7615906,0.673684211 C79.1136528,0.673684211 91.4952682,8.62313399 97.2177983,20.1040689 L97.2177983,20.1040689 C103.124243,22.0087163 107.400871,27.590108 107.400871,34.1788738 C107.400871,35.5546155 107.214419,36.886438 106.865609,38.1500409 C107.129985,38.1408278 107.395633,38.1361796 107.662462,38.1361796 C119.075792,38.1361796 128.328125,46.6405613 128.328125,57.1312477 C128.328125,67.6219341 119.075792,76.1263158 107.662462,76.1263158 C107.654723,76.1263158 107.646985,76.1263119 107.639248,76.1263041 C107.631521,76.126305 107.623782,76.1263158 107.61604,76.1263158 L22.4303231,76.1263158 C22.2888425,76.1263158 22.1482032,76.1226942 22.0084922,76.1155387 L22.0084922,76.1155387 Z" id="Shape"></path>
                    </g>
                </g>
            </g>
        </g>
    </g>
</svg>