<?xml version="1.0" encoding="UTF-8" standalone="no"?>
<svg width="160px" height="115px" viewBox="0 0 160 115" version="1.1" xmlns="http://www.w3.org/2000/svg" xmlns:xlink="http://www.w3.org/1999/xlink">
    <!-- Generator: Sketch 39.1 (31720) - http://www.bohemiancoding.com/sketch -->
    <title>aroseur</title>
    <desc>Created with Sketch.</desc>
    <defs></defs>
    <g id="Page-1" stroke="none" stroke-width="1" fill="none" fill-rule="evenodd" opacity="0.694029851">
        <g id="Act" transform="translate(-1066.000000, -2359.000000)" fill="#5B6C8E">
            <g id="Good-Practicies" transform="translate(210.000000, 1238.000000)">
                <g id="GP-3" transform="translate(0.000000, 1059.000000)">
                    <g id="aroseur" transform="translate(856.000000, 62.000000)">
                        <ellipse id="Oval" cx="71.272" cy="11.3594444" rx="10.6944" ry="10.6758333"></ellipse>
                        <path d="M110.0848,35.3065972 C110.0848,35.3065972 110.0768,35.3289583 110.0704,35.3688889 L108.3984,33.8307639 L107.3616,34.9919444 L109.4096,38.6431944 C109.2272,39.53125 109.024,40.5359028 108.8144,41.5788889 L92.0176,41.5788889 L79.1952,28.77875 C79.1952,28.77875 75.8224,24.955 71.2704,24.955 C66.7184,24.955 63.3248,28.77875 63.3248,28.77875 L49.6512,42.4254167 C49.1008,42.8534722 48.6528,43.4252778 48.3808,44.1200694 C48.1984,44.5848611 48.1136,45.0608333 48.1072,45.5304167 C48.1072,45.5751389 48.104,45.6198611 48.104,45.6645833 C48.104,45.6853472 48.1056,45.7061111 48.1072,45.726875 C48.1312,46.7203472 48.5184,47.7042361 49.2752,48.4613194 C49.8272,49.0123611 50.5024,49.36375 51.2112,49.5266667 L58.2864,52.2994444 C45.952,56.7588889 37.8464,70.0238194 29.96,82.929375 C21.2288,97.2229167 12.9808,110.722639 0,110.722639 L0,114.123125 C14.8928,114.123125 24.0304,99.1683333 32.8672,84.7038889 C41.0208,71.3559028 49.4208,57.6070139 62.2768,54.6936806 L62.2768,63.4496528 C62.2768,63.5343056 62.2816,63.6125694 62.2832,63.6940278 L44.3472,106.934028 C43.2176,109.657292 44.5136,112.779861 47.2432,113.9075 C49.9712,115.036736 53.1008,113.741389 54.2288,111.018125 L71.2704,69.9423611 L88.3136,111.018125 C89.4432,113.738194 92.5712,115.036736 95.2992,113.9075 C98.0288,112.779861 99.3232,109.657292 98.1968,106.934028 L80.256,63.6988194 C80.2592,63.6157639 80.2624,63.5343056 80.2624,63.4544444 L80.2624,58.4503472 C80.7792,58.8480556 81.2832,59.2585417 81.7936,59.6690278 C85.0832,62.3236111 88.4848,65.0724306 94.992,65.0724306 C105.7072,65.0724306 109.832,56.8802778 110.6192,52.166875 L110.7712,52.166875 C110.7712,52.166875 111.08,52.1732639 111.3824,50.9977083 C111.4368,50.786875 111.5888,50.1527778 111.8032,49.2551389 C113.224,48.6418056 114.2192,47.2282639 114.2208,45.5799306 C114.2208,44.6008333 113.8656,43.7047917 113.2816,43.0084028 C113.352,42.7049306 113.424,42.4014583 113.496,42.1027778 C115.7024,42.435 117.2096,42.7847917 120.2288,42.7847917 L120.2288,34.1230556 C115.3456,34.1230556 112.1312,34.9951389 110.6032,35.3081944 L110.0848,35.3081944 L110.0848,35.3065972 Z M62.2784,41.1444444 L62.2784,45.2636806 L59.3136,44.1025 L62.2784,41.1444444 L62.2784,41.1444444 Z M94.9904,61.6719444 C89.688,61.6719444 87.0224,59.5188889 83.936,57.0240278 C82.8016,56.1072222 81.6192,55.1520833 80.264,54.2704167 L80.264,41.1652083 C80.264,41.1652083 85.512,46.4072917 87.0304,47.9230556 C88.7104,49.6001389 91.0208,49.5825694 91.0208,49.5825694 L107.1936,49.5825694 C107.0736,50.1767361 106.9888,50.6031944 106.9488,50.7884722 C106.6768,52.1429167 107.0576,52.1652778 107.0576,52.1652778 L107.128,52.1652778 C106.5216,54.6920833 104.0288,61.6719444 94.9904,61.6719444 L94.9904,61.6719444 Z" id="Shape"></path>
                        <rect id="Rectangle-path" x="122.72" y="32.6296528" width="3.9504" height="11.6469444"></rect>
                        <path d="M142.4656,40.4113194 C141.1456,40.4113194 137.8944,42.8023611 137.8944,42.8023611 C137.8944,42.8023611 141.1456,45.1918056 142.4656,45.1918056 C143.7904,45.1918056 144.8592,44.1232639 144.8592,42.8023611 C144.8592,41.4798611 143.7904,40.4113194 142.4656,40.4113194 L142.4656,40.4113194 Z" id="Shape"></path>
                        <path d="M142.4656,31.7128472 C141.1456,31.7128472 137.8944,34.1038889 137.8944,34.1038889 C137.8944,34.1038889 141.1456,36.4949306 142.4656,36.4949306 C143.7904,36.4949306 144.8592,35.4263889 144.8592,34.1038889 C144.8592,32.7829861 143.7904,31.7128472 142.4656,31.7128472 L142.4656,31.7128472 Z" id="Shape"></path>
                        <path d="M157.6048,40.4113194 C156.28,40.4113194 153.032,42.8023611 153.032,42.8023611 C153.032,42.8023611 156.28,45.1918056 157.6048,45.1918056 C158.928,45.1918056 160,44.1232639 160,42.8023611 C160,41.4798611 158.9248,40.4113194 157.6048,40.4113194 L157.6048,40.4113194 Z" id="Shape"></path>
                        <path d="M157.6048,31.7128472 C156.28,31.7128472 153.032,34.1038889 153.032,34.1038889 C153.032,34.1038889 156.28,36.4949306 157.6048,36.4949306 C158.928,36.4949306 160,35.4263889 160,34.1038889 C160,32.7829861 158.9248,31.7128472 157.6048,31.7128472 L157.6048,31.7128472 Z" id="Shape"></path>
                        <path d="M160,25.4102083 C160,24.0893056 158.928,23.0207639 157.6048,23.0207639 C156.28,23.0207639 153.032,25.4102083 153.032,25.4102083 C153.032,25.4102083 156.28,27.80125 157.6048,27.80125 C158.928,27.7996528 160,26.7295139 160,25.4102083 L160,25.4102083 Z" id="Shape"></path>
                        <path d="M157.6048,49.1065972 C156.28,49.1065972 153.032,51.4976389 153.032,51.4976389 C153.032,51.4976389 156.28,53.8886806 157.6048,53.8886806 C158.928,53.8886806 160,52.8169444 160,51.4976389 C160,50.1767361 158.9248,49.1065972 157.6048,49.1065972 L157.6048,49.1065972 Z" id="Shape"></path>
                        <path d="M134.896,36.0620833 C133.5744,36.0620833 130.3248,38.453125 130.3248,38.453125 C130.3248,38.453125 133.5744,40.8425694 134.896,40.8425694 C136.2192,40.8425694 137.2912,39.7724306 137.2912,38.453125 C137.2912,37.1322222 136.2192,36.0620833 134.896,36.0620833 L134.896,36.0620833 Z" id="Shape"></path>
                        <path d="M150.0352,36.0620833 C148.7088,36.0620833 145.4592,38.453125 145.4592,38.453125 C145.4592,38.453125 148.7088,40.8425694 150.0352,40.8425694 C151.3568,40.8425694 152.4288,39.7724306 152.4288,38.453125 C152.4304,37.1322222 151.3584,36.0620833 150.0352,36.0620833 L150.0352,36.0620833 Z" id="Shape"></path>
                        <path d="M150.0352,27.3668056 C148.7088,27.3668056 145.4592,29.7578472 145.4592,29.7578472 C145.4592,29.7578472 148.7088,32.1488889 150.0352,32.1488889 C151.3568,32.1488889 152.4288,31.0771528 152.4288,29.7578472 C152.4304,28.4369444 151.3584,27.3668056 150.0352,27.3668056 L150.0352,27.3668056 Z" id="Shape"></path>
                        <path d="M150.0352,44.7573611 C148.7088,44.7573611 145.4592,47.1468056 145.4592,47.1468056 C145.4592,47.1468056 148.7088,49.5378472 150.0352,49.5378472 C151.3568,49.5378472 152.4288,48.4661111 152.4288,47.1468056 C152.4288,45.8275 151.3584,44.7573611 150.0352,44.7573611 L150.0352,44.7573611 Z" id="Shape"></path>
                    </g>
                </g>
            </g>
        </g>
    </g>
</svg>