<?xml version="1.0" encoding="UTF-8" standalone="no"?>
<svg width="108px" height="115px" viewBox="0 0 108 115" version="1.1" xmlns="http://www.w3.org/2000/svg" xmlns:xlink="http://www.w3.org/1999/xlink">
    <!-- Generator: Sketch 39.1 (31720) - http://www.bohemiancoding.com/sketch -->
    <title>robinet</title>
    <desc>Created with Sketch.</desc>
    <defs></defs>
    <g id="Page-1" stroke="none" stroke-width="1" fill="none" fill-rule="evenodd" opacity="0.693971549">
        <g id="Act" transform="translate(-308.000000, -2690.000000)" fill="#5B6C8E">
            <g id="Good-Practicies" transform="translate(210.000000, 1238.000000)">
                <g id="GP-4" transform="translate(98.000000, 1417.000000)">
                    <g id="robinet" transform="translate(0.000000, 35.000000)">
                        <path d="M23.3904804,88.0677541 L23.3904804,85.77931 L52.0782127,85.77931 L51.977066,70.4302985 L33.4166469,70.4302985 L15.1217378,66.510864 L0.708333333,72.1371491 L0.708333333,114.290036 L48.8541617,114.290036 L107.291667,84.9701364 L100.767705,71.9727857 L54.3160834,82.555259 L54.3160834,88.0677541 L23.3904804,88.0677541 L23.3904804,88.0677541 Z M0.708333333,17.9098754 L0.708333333,0.5 L82.750949,0.5 L82.750949,34.2324239 L65.3537169,34.2324239 L65.3537169,17.9098754 L0.708333333,17.9098754 L0.708333333,17.9098754 Z M82.750949,66.7131574 L80.2728549,66.7131574 L80.2728549,38.1771451 L82.750949,38.1771451 L82.750949,66.7131574 L82.750949,66.7131574 Z M77.7821174,66.7131574 L75.29138,66.7131574 L75.29138,38.1771451 L77.7821174,38.1771451 L77.7821174,66.7131574 L77.7821174,66.7131574 Z M72.8132859,66.7131574 L70.3225484,66.7131574 L70.3225484,38.1771451 L72.8132859,38.1771451 L72.8132859,66.7131574 L72.8132859,66.7131574 Z M67.831811,66.7131574 L65.3537169,66.7131574 L65.3537169,38.1771451 L67.831811,38.1771451 L67.831811,66.7131574 L67.831811,66.7131574 Z" id="Shape"></path>
                    </g>
                </g>
            </g>
        </g>
    </g>
</svg>