<?xml version="1.0" encoding="UTF-8" standalone="no"?>
<svg width="144px" height="142px" viewBox="0 0 144 142" version="1.1" xmlns="http://www.w3.org/2000/svg" xmlns:xlink="http://www.w3.org/1999/xlink">
    <!-- Generator: Sketch 39.1 (31720) - http://www.bohemiancoding.com/sketch -->
    <title>shower 2</title>
    <desc>Created with Sketch.</desc>
    <defs></defs>
    <g id="Page-1" stroke="none" stroke-width="1" fill="none" fill-rule="evenodd" opacity="0.686392257">
        <g id="Act" transform="translate(-279.000000, -1919.000000)" fill="#5B6C8E">
            <g id="Good-Practicies" transform="translate(210.000000, 1238.000000)">
                <g id="GP-2" transform="translate(69.000000, 681.000000)">
                    <g id="shower-2">
                        <path d="M13.9054054,84.2111111 L13.9054054,7.94444444 C13.9054054,5.56111111 15.8918919,3.97222222 17.8783784,3.97222222 C21.4540541,3.97222222 24.6324324,5.16388889 27.0162162,7.94444444 L27.4135135,8.34166667 L25.8243243,9.53333333 C25.427027,9.93055556 25.427027,10.725 25.427027,11.1222222 L25.427027,12.7111111 C25.427027,15.8888889 26.6189189,19.0666667 29.0027027,21.45 C29.4,21.8472222 29.7972973,22.2444444 30.1945946,22.2444444 C30.5918919,22.2444444 31.3864865,21.8472222 31.7837838,21.45 L44.1,9.13611111 C44.4972973,8.73888889 44.8945946,8.34166667 44.8945946,7.54722222 C44.8945946,6.75277778 44.8945946,6.75277778 44.1,5.95833333 C41.7162162,3.575 38.5378378,2.38333333 35.3594595,2.38333333 L33.372973,2.38333333 C32.9756757,2.38333333 32.5783784,2.38333333 31.7837838,3.17777778 L30.1945946,5.16388889 L30.1945946,4.76666667 C27.0162162,1.58888889 22.6459459,0 18.2756757,0 C13.9054054,0 10.3297297,3.575 10.3297297,7.94444444 L10.3297297,84.2111111 C4.37027027,84.6083333 0,88.9777778 0,94.5388889 C0,98.9083333 3.17837838,102.880556 7.15135135,104.072222 L14.3027027,125.522222 C15.4945946,129.494444 19.0702703,131.877778 23.0432432,132.275 L21.8513514,136.247222 C21.0567568,138.233333 22.2486486,140.616667 24.2351351,141.411111 L25.427027,141.411111 C27.0162162,141.411111 28.6054054,140.219444 29.4,138.630556 L31.7837838,132.275 L112.037838,132.275 L114.421622,138.630556 C114.818919,140.219444 116.408108,141.411111 118.394595,141.411111 L119.586486,141.411111 C121.572973,140.616667 122.764865,138.233333 121.97027,136.247222 L120.778378,132.275 C124.751351,131.877778 128.327027,129.494444 129.518919,125.522222 L136.67027,104.072222 C140.643243,102.880556 143.821622,98.9083333 143.821622,94.5388889 C143.027027,88.9777778 138.259459,84.2111111 132.697297,84.2111111 L110.051351,84.2111111 L110.051351,80.2388889 C110.845946,81.0333333 112.037838,81.4305556 113.22973,81.4305556 C116.408108,81.4305556 119.189189,79.0472222 119.189189,75.4722222 L119.189189,45.2833333 C119.189189,39.7222222 114.421622,34.9555556 108.859459,34.9555556 L101.708108,34.9555556 C105.681081,33.3666667 108.462162,29.3944444 108.462162,24.6277778 C108.462162,18.2722222 103.297297,13.5055556 97.3378378,13.5055556 C91.3783784,13.5055556 86.2135135,18.6694444 86.2135135,24.6277778 C86.2135135,29.3944444 88.9945946,32.9694444 92.9675676,34.9555556 L86.6108108,34.9555556 C86.6108108,34.9555556 86.6108108,34.9555556 86.2135135,34.9555556 C82.2405405,34.9555556 78.6648649,36.9416667 76.6783784,40.1194444 L71.5135135,49.2555556 L56.8135135,58.7888889 C54.0324324,60.3777778 52.8405405,63.9527778 54.827027,66.7333333 C56.4162162,69.5138889 59.9918919,70.7055556 62.772973,68.7194444 L78.6648649,58.3916667 C79.4594595,57.9944444 80.2540541,57.2 80.6513514,56.4055556 L84.6243243,49.6527778 L84.6243243,84.2111111 L13.9054054,84.2111111 Z M29.0027027,12.3138889 L34.1675676,7.15 L34.9621622,7.15 C36.5513514,7.15 38.1405405,7.54722222 39.3324324,8.34166667 L30.1945946,17.4777778 C29.4,16.2861111 29.0027027,14.6972222 29.0027027,13.1083333 L29.0027027,12.3138889 L29.0027027,12.3138889 Z M89.7891892,24.6277778 C89.7891892,20.6555556 92.9675676,17.4777778 96.9405405,17.4777778 C100.913514,17.4777778 104.091892,20.6555556 104.091892,24.6277778 C104.091892,28.6 100.913514,31.7777778 96.9405405,31.7777778 C93.3648649,31.7777778 89.7891892,28.6 89.7891892,24.6277778 L89.7891892,24.6277778 Z M88.5972973,84.2111111 L88.5972973,45.2833333 L88.5972973,44.8861111 C88.5972973,44.0916667 87.8027027,43.2972222 87.4054054,42.9 C85.8162162,42.1055556 84.227027,42.5027778 83.4324324,43.6944444 L77.0756757,54.4194444 C77.0756757,54.8166667 76.6783784,54.8166667 76.2810811,55.2138889 L60.3891892,65.5416667 C59.5945946,65.9388889 58.4027027,65.5416667 58.0054054,64.7472222 C57.6081081,64.35 57.6081081,63.9527778 58.0054054,63.1583333 C58.0054054,62.7611111 58.4027027,62.3638889 58.8,61.9666667 L73.8972973,52.4333333 C74.2945946,52.4333333 74.2945946,52.0361111 74.6918919,51.6388889 L80.2540541,42.1055556 C81.4459459,39.7222222 83.8297297,38.5305556 86.6108108,38.9277778 L87.4054054,38.9277778 L109.256757,38.9277778 C112.832432,38.9277778 115.613514,41.7083333 115.613514,45.2833333 L115.613514,75.4722222 C115.613514,76.2666667 114.818919,77.4583333 113.627027,77.4583333 C112.832432,77.4583333 111.640541,76.6638889 111.640541,75.4722222 L111.640541,44.8861111 C111.640541,43.2972222 110.448649,42.1055556 108.859459,42.1055556 C107.27027,42.1055556 106.078378,43.2972222 106.078378,44.8861111 L106.078378,83.8138889 L88.5972973,84.2111111 Z M121.175676,122.741667 C120.778378,123.536111 119.983784,124.330556 119.189189,124.330556 L23.8378378,124.330556 C23.0432432,124.330556 22.2486486,123.536111 21.8513514,122.741667 L15.4945946,104.469444 L127.135135,104.469444 L121.175676,122.741667 L121.175676,122.741667 Z M132.697297,96.525 L10.3297297,96.525 C9.13783784,96.525 7.94594595,95.7305556 7.94594595,94.1416667 C7.94594595,92.5527778 8.74054054,92.1555556 10.3297297,92.1555556 L133.094595,92.1555556 C134.286486,92.1555556 135.478378,92.95 135.478378,94.5388889 C135.081081,95.7305556 134.286486,96.525 132.697297,96.525 L132.697297,96.525 Z" id="Shape"></path>
                        <path d="M34.1675676,24.2305556 C33.7702703,24.6277778 33.372973,25.4222222 33.372973,25.8194444 C33.372973,26.2166667 33.7702703,27.0111111 34.1675676,27.4083333 C34.5648649,27.8055556 35.3594595,28.2027778 35.7567568,28.2027778 C36.1540541,28.2027778 36.9486486,27.8055556 37.3459459,27.4083333 C37.7432432,27.0111111 38.1405405,26.2166667 38.1405405,25.8194444 C38.1405405,25.4222222 37.7432432,24.6277778 37.3459459,24.2305556 C36.5513514,23.4361111 34.9621622,23.4361111 34.1675676,24.2305556 L34.1675676,24.2305556 Z" id="Shape"></path>
                        <path d="M53.2378378,48.8583333 C53.6351351,48.8583333 54.4297297,48.8583333 54.827027,48.0638889 C55.6216216,47.2694444 56.0189189,45.6805556 55.2243243,44.8861111 C54.4297297,44.0916667 52.8405405,43.6944444 52.0459459,44.4888889 C51.2513514,45.2833333 50.8540541,46.8722222 51.6486486,47.6666667 C51.6486486,48.4611111 52.4432432,48.8583333 53.2378378,48.8583333 L53.2378378,48.8583333 Z" id="Shape"></path>
                        <path d="M40.127027,33.3666667 C40.5243243,33.3666667 41.3189189,33.3666667 41.7162162,32.5722222 C42.5108108,31.7777778 42.9081081,30.1888889 42.1135135,29.3944444 C41.3189189,28.6 39.7297297,28.2027778 38.9351351,28.9972222 C38.1405405,29.7916667 37.7432432,31.3805556 38.5378378,32.175 C38.9351351,32.9694444 39.3324324,33.3666667 40.127027,33.3666667 L40.127027,33.3666667 Z" id="Shape"></path>
                        <path d="M48.8675676,43.6944444 C49.2648649,43.6944444 50.0594595,43.6944444 50.4567568,42.9 C51.2513514,42.1055556 51.6486486,40.5166667 50.8540541,39.7222222 C50.0594595,38.9277778 48.4702703,38.5305556 47.6756757,39.325 C46.8810811,40.1194444 46.4837838,41.7083333 47.2783784,42.5027778 C47.6756757,43.2972222 48.072973,43.6944444 48.8675676,43.6944444 L48.8675676,43.6944444 Z" id="Shape"></path>
                        <path d="M44.4972973,38.5305556 C44.8945946,38.5305556 45.6891892,38.5305556 46.0864865,37.7361111 C46.8810811,36.9416667 47.2783784,35.3527778 46.4837838,34.5583333 C45.6891892,33.7638889 44.1,33.3666667 43.3054054,34.1611111 C42.5108108,34.9555556 42.1135135,36.5444444 42.9081081,37.3388889 C42.9081081,38.1333333 43.7027027,38.5305556 44.4972973,38.5305556 L44.4972973,38.5305556 Z" id="Shape"></path>
                        <path d="M57.6081081,54.0222222 C58.4027027,54.0222222 58.8,53.625 59.1972973,53.2277778 C59.5945946,52.8305556 59.9918919,52.0361111 59.9918919,51.6388889 C59.9918919,50.8444444 59.5945946,50.4472222 59.1972973,50.05 C58.4027027,49.2555556 56.8135135,49.2555556 56.0189189,50.05 C55.6216216,50.4472222 55.6216216,51.2416667 55.6216216,51.6388889 C55.6216216,52.4333333 56.0189189,52.8305556 56.4162162,53.2277778 C56.4162162,53.625 57.2108108,54.0222222 57.6081081,54.0222222 L57.6081081,54.0222222 Z" id="Shape"></path>
                        <path d="M43.3054054,21.45 C43.7027027,21.0527778 44.1,20.2583333 44.1,19.8611111 C44.1,19.0666667 43.7027027,18.6694444 43.3054054,18.2722222 C42.5108108,17.4777778 40.9216216,17.4777778 40.127027,18.2722222 C39.7297297,18.6694444 39.3324324,19.4638889 39.3324324,19.8611111 C39.3324324,20.6555556 39.7297297,21.0527778 40.127027,21.45 C40.5243243,21.8472222 41.3189189,22.2444444 41.7162162,22.2444444 C42.1135135,22.2444444 42.9081081,21.8472222 43.3054054,21.45 L43.3054054,21.45 Z" id="Shape"></path>
                        <path d="M44.8945946,26.2166667 C45.2918919,26.6138889 46.0864865,27.0111111 46.4837838,27.0111111 C47.2783784,27.0111111 47.6756757,26.6138889 48.072973,26.2166667 C48.8675676,25.4222222 48.8675676,23.8333333 48.072973,23.0388889 C47.2783784,22.2444444 45.6891892,22.2444444 44.8945946,23.0388889 C43.7027027,23.8333333 43.7027027,25.4222222 44.8945946,26.2166667 L44.8945946,26.2166667 Z" id="Shape"></path>
                        <path d="M62.772973,40.5166667 C63.5675676,39.7222222 63.5675676,38.1333333 62.772973,37.3388889 C61.5810811,36.5444444 60.3891892,36.5444444 59.1972973,37.3388889 C58.0054054,38.1333333 58.4027027,39.7222222 59.1972973,40.5166667 C59.5945946,40.9138889 60.3891892,41.3111111 60.7864865,41.3111111 C61.5810811,41.3111111 61.9783784,40.9138889 62.772973,40.5166667 L62.772973,40.5166667 Z" id="Shape"></path>
                        <path d="M49.6621622,27.8055556 C48.4702703,28.6 48.4702703,30.1888889 49.6621622,30.9833333 C50.0594595,31.3805556 50.8540541,31.7777778 51.2513514,31.7777778 C52.0459459,31.7777778 52.4432432,31.3805556 52.8405405,30.9833333 C53.6351351,30.1888889 53.6351351,28.6 52.8405405,27.8055556 C52.0459459,27.0111111 50.8540541,26.6138889 49.6621622,27.8055556 L49.6621622,27.8055556 Z" id="Shape"></path>
                        <path d="M56.0189189,36.5444444 C56.8135135,36.5444444 57.2108108,36.1472222 57.6081081,35.75 C58.4027027,34.9555556 58.4027027,33.3666667 57.6081081,32.5722222 C56.8135135,31.7777778 55.2243243,31.7777778 54.4297297,32.5722222 C53.2378378,33.3666667 53.2378378,34.9555556 54.4297297,35.75 C54.827027,36.1472222 55.6216216,36.5444444 56.0189189,36.5444444 L56.0189189,36.5444444 Z" id="Shape"></path>
                        <path d="M63.1702703,43.6944444 C63.1702703,44.4888889 63.5675676,44.8861111 63.9648649,45.2833333 C64.3621622,45.6805556 65.1567568,46.0777778 65.5540541,46.0777778 C66.3486486,46.0777778 66.7459459,45.6805556 67.1432432,45.2833333 C67.5405405,44.8861111 67.9378378,44.0916667 67.9378378,43.6944444 C67.9378378,42.9 67.5405405,42.5027778 67.1432432,42.1055556 C66.3486486,41.3111111 64.7594595,41.3111111 63.5675676,42.1055556 C63.5675676,42.5027778 63.1702703,43.2972222 63.1702703,43.6944444 L63.1702703,43.6944444 Z" id="Shape"></path>
                        <path d="M47.6756757,16.2861111 C48.4702703,16.2861111 48.8675676,15.8888889 49.2648649,15.4916667 C49.6621622,15.0944444 50.0594595,14.3 50.0594595,13.9027778 C50.0594595,13.5055556 49.6621622,12.7111111 49.2648649,12.3138889 C48.4702703,11.5194444 46.8810811,11.5194444 45.6891892,12.3138889 C45.2918919,12.7111111 44.8945946,13.5055556 44.8945946,13.9027778 C44.8945946,14.3 45.2918919,15.0944444 45.6891892,15.4916667 C46.4837838,16.2861111 46.8810811,16.2861111 47.6756757,16.2861111 L47.6756757,16.2861111 Z" id="Shape"></path>
                        <path d="M63.1702703,29.3944444 C63.9648649,29.3944444 64.3621622,28.9972222 64.7594595,28.6 C65.5540541,27.8055556 65.5540541,26.2166667 64.3621622,25.4222222 C63.5675676,24.6277778 61.9783784,24.6277778 61.1837838,25.4222222 C60.3891892,26.2166667 60.3891892,27.8055556 61.5810811,28.6 C61.9783784,28.9972222 62.772973,29.3944444 63.1702703,29.3944444 L63.1702703,29.3944444 Z" id="Shape"></path>
                        <path d="M68.3351351,33.7638889 C69.1297297,33.7638889 69.527027,33.3666667 69.9243243,32.9694444 C70.7189189,32.175 70.7189189,30.5861111 69.527027,29.7916667 C68.7324324,28.9972222 67.1432432,28.9972222 66.3486486,30.1888889 C65.5540541,30.9833333 65.5540541,32.5722222 66.7459459,33.3666667 C67.1432432,33.7638889 67.5405405,33.7638889 68.3351351,33.7638889 L68.3351351,33.7638889 Z" id="Shape"></path>
                        <path d="M52.8405405,20.6555556 C53.6351351,20.6555556 54.0324324,20.2583333 54.4297297,19.8611111 C55.6216216,19.0666667 55.6216216,17.4777778 54.4297297,16.6833333 C53.6351351,15.8888889 52.0459459,15.8888889 51.2513514,16.6833333 C50.4567568,17.4777778 50.4567568,19.0666667 51.6486486,19.8611111 C51.6486486,20.2583333 52.4432432,20.6555556 52.8405405,20.6555556 L52.8405405,20.6555556 Z" id="Shape"></path>
                        <path d="M58.0054054,25.025 C58.8,25.025 59.1972973,24.6277778 59.5945946,24.2305556 C60.3891892,23.4361111 60.3891892,21.8472222 59.5945946,21.0527778 C58.8,20.2583333 57.2108108,20.2583333 56.4162162,21.0527778 C55.6216216,21.8472222 55.6216216,23.4361111 56.8135135,24.2305556 C56.8135135,24.6277778 57.2108108,25.025 58.0054054,25.025 L58.0054054,25.025 Z" id="Shape"></path>
                        <path d="M73.5,38.1333333 C74.2945946,38.1333333 74.6918919,37.7361111 75.0891892,37.3388889 C75.4864865,36.9416667 75.8837838,36.1472222 75.8837838,35.75 C75.8837838,34.9555556 75.4864865,34.5583333 75.0891892,34.1611111 C74.2945946,33.3666667 72.7054054,33.3666667 71.9108108,34.1611111 C71.5135135,34.5583333 71.5135135,35.3527778 71.5135135,35.75 C71.5135135,36.5444444 71.9108108,36.9416667 72.3081081,37.3388889 C72.3081081,37.7361111 73.1027027,38.1333333 73.5,38.1333333 L73.5,38.1333333 Z" id="Shape"></path>
                    </g>
                </g>
            </g>
        </g>
    </g>
</svg>