<?xml version="1.0" encoding="UTF-8" standalone="no"?>
<svg width="110px" height="147px" viewBox="0 0 110 147" version="1.1" xmlns="http://www.w3.org/2000/svg" xmlns:xlink="http://www.w3.org/1999/xlink">
    <!-- Generator: Sketch 39.1 (31720) - http://www.bohemiancoding.com/sketch -->
    <title>douche</title>
    <desc>Created with Sketch.</desc>
    <defs></defs>
    <g id="Page-1" stroke="none" stroke-width="1" fill="none" fill-rule="evenodd">
        <g id="Act" transform="translate(-1091.000000, -1592.000000)" fill="#5B6C8E">
            <g id="Good-Practicies" transform="translate(210.000000, 1238.000000)">
                <g id="GP-1" transform="translate(0.000000, 265.000000)">
                    <g id="douche" transform="translate(881.000000, 89.000000)">
                        <path d="M2.41884817,58.0187008 L107.552356,58.0187008 C108.819372,58.0187008 109.827225,56.9769685 109.827225,55.7326772 C109.827225,42.6820866 99.2591623,32.0622047 86.2722513,32.0622047 L68.7643979,32.0622047 C67.7853403,26.1011811 63.1492147,21.3844488 57.2748691,20.4005906 L57.2748691,2.28602362 C57.2748691,1.01279528 56.2382199,0 55,0 C53.7617801,0 52.7251309,1.04173228 52.7251309,2.28602362 L52.7251309,20.3716535 C46.8507853,21.3555118 42.2146597,26.0722441 41.2356021,32.0332677 L23.7277487,32.0332677 C10.7408377,32.0332677 0.172774869,42.6531496 0.172774869,55.7037402 C0.143979058,56.9769685 1.18062827,58.0187008 2.41884817,58.0187008 L2.41884817,58.0187008 Z M55,24.7700787 C59.4057592,24.7700787 63.1204188,27.8663386 64.1282723,32.0332677 L45.8717277,32.0332677 C46.8795812,27.8663386 50.5942408,24.7700787 55,24.7700787 L55,24.7700787 Z M23.6989529,36.634252 L86.3010471,36.634252 C96.0052356,36.634252 104.010471,43.984252 105.162304,53.4177165 L4.86649215,53.4177165 C5.9895288,43.984252 13.9947644,36.634252 23.6989529,36.634252 L23.6989529,36.634252 Z" id="Shape"></path>
                        <path d="M55,64.6163386 C53.7329843,64.6163386 52.7251309,65.6580709 52.7251309,66.9023622 L52.7251309,72.6318898 C52.7251309,73.9051181 53.7617801,74.9179134 55,74.9179134 C56.2382199,74.9179134 57.2748691,73.8761811 57.2748691,72.6318898 L57.2748691,66.9312992 C57.2748691,65.6580709 56.2670157,64.6163386 55,64.6163386 L55,64.6163386 Z" id="Shape"></path>
                        <path d="M55,102.784252 C53.7329843,102.784252 52.7251309,103.825984 52.7251309,105.070276 L52.7251309,108.658465 C52.7251309,109.931693 53.7617801,110.944488 55,110.944488 C56.2382199,110.944488 57.2748691,109.902756 57.2748691,108.658465 L57.2748691,105.070276 C57.2748691,103.825984 56.2670157,102.784252 55,102.784252 L55,102.784252 Z" id="Shape"></path>
                        <path d="M55,138.839764 C53.7329843,138.839764 52.7251309,139.881496 52.7251309,141.125787 L52.7251309,144.713976 C52.7251309,145.987205 53.7617801,147 55,147 C56.2382199,147 57.2748691,145.958268 57.2748691,144.713976 L57.2748691,141.125787 C57.2748691,139.852559 56.2670157,138.839764 55,138.839764 L55,138.839764 Z" id="Shape"></path>
                        <path d="M55,80.965748 C53.7329843,80.965748 52.7251309,82.0074803 52.7251309,83.2517717 L52.7251309,94.6240157 C52.7251309,95.8972441 53.7617801,96.9100394 55,96.9100394 C56.2382199,96.9100394 57.2748691,95.8683071 57.2748691,94.6240157 L57.2748691,83.2517717 C57.2748691,82.0074803 56.2670157,80.965748 55,80.965748 L55,80.965748 Z" id="Shape"></path>
                        <path d="M55,116.818701 C53.7329843,116.818701 52.7251309,117.860433 52.7251309,119.104724 L52.7251309,130.650591 C52.7251309,131.923819 53.7617801,132.936614 55,132.936614 C56.2382199,132.936614 57.2748691,131.894882 57.2748691,130.650591 L57.2748691,119.104724 C57.2748691,117.860433 56.2670157,116.818701 55,116.818701 L55,116.818701 Z" id="Shape"></path>
                        <path d="M77,74.8600394 C78.2382199,74.6864173 79.1308901,73.528937 78.9581152,72.2557087 L78.1518325,66.6129921 C77.9790576,65.3687008 76.7984293,64.4716535 75.5602094,64.6452756 C74.3219895,64.8188976 73.4293194,65.976378 73.6020942,67.2496063 L74.408377,72.8923228 C74.5811518,74.0498031 75.5602094,74.8600394 76.6544503,74.8600394 L77,74.8600394 L77,74.8600394 Z" id="Shape"></path>
                        <path d="M81.9816754,110.510433 C83.2198953,110.336811 84.1125654,109.179331 83.9397906,107.906102 L83.4502618,104.375787 C83.2774869,103.131496 82.0968586,102.234449 80.8586387,102.408071 C79.6204188,102.581693 78.7277487,103.739173 78.9005236,105.012402 L79.3900524,108.542717 C79.5628272,109.700197 80.5418848,110.510433 81.6361257,110.510433 C81.7801047,110.53937 81.895288,110.510433 81.9816754,110.510433 L81.9816754,110.510433 Z" id="Shape"></path>
                        <path d="M85.8691099,138.087402 C84.6308901,138.261024 83.7382199,139.418504 83.9109948,140.691732 L84.4005236,144.222047 C84.5732984,145.379528 85.552356,146.189764 86.6465969,146.189764 C86.7617801,146.189764 86.8481675,146.189764 86.9633508,146.160827 C88.2015707,145.987205 89.0942408,144.829724 88.921466,143.556496 L88.4319372,140.026181 C88.2591623,138.78189 87.1073298,137.884843 85.8691099,138.087402 L85.8691099,138.087402 Z" id="Shape"></path>
                        <path d="M80.052356,96.6206693 C81.2905759,96.4470472 82.1832461,95.2895669 82.0104712,94.0163386 L80.4267016,82.7598425 C80.2539267,81.5155512 79.0732984,80.6185039 77.8350785,80.792126 C76.5968586,80.965748 75.7041885,82.1232283 75.8769634,83.3964567 L77.460733,94.6529528 C77.6335079,95.8104331 78.6125654,96.6206693 79.7068063,96.6206693 C79.8219895,96.6496063 79.9371728,96.6496063 80.052356,96.6206693 L80.052356,96.6206693 Z" id="Shape"></path>
                        <path d="M85.0628272,132.271063 C86.3010471,132.097441 87.1937173,130.939961 87.0209424,129.666732 L85.408377,118.236614 C85.2356021,116.992323 84.0549738,116.095276 82.8167539,116.268898 C81.578534,116.44252 80.6858639,117.6 80.8586387,118.873228 L82.4712042,130.303346 C82.6439791,131.460827 83.6230366,132.271063 84.7172775,132.271063 C84.8324607,132.3 84.947644,132.3 85.0628272,132.271063 L85.0628272,132.271063 Z" id="Shape"></path>
                        <path d="M97.8769634,74.8600394 C99.1151832,74.6864173 100.007853,73.528937 99.8350785,72.2557087 L99.0287958,66.6129921 C98.8560209,65.3687008 97.6753927,64.4716535 96.4371728,64.6452756 C95.1989529,64.8188976 94.3062827,65.976378 94.4790576,67.2496063 L95.2853403,72.8923228 C95.4581152,74.0498031 96.4371728,74.8600394 97.5314136,74.8600394 L97.8769634,74.8600394 L97.8769634,74.8600394 Z" id="Shape"></path>
                        <path d="M102.858639,110.510433 C104.096859,110.336811 104.989529,109.179331 104.816754,107.906102 L104.327225,104.375787 C104.15445,103.131496 102.973822,102.234449 101.735602,102.408071 C100.497382,102.581693 99.604712,103.739173 99.7774869,105.012402 L100.267016,108.542717 C100.439791,109.700197 101.418848,110.510433 102.513089,110.510433 C102.657068,110.53937 102.772251,110.510433 102.858639,110.510433 L102.858639,110.510433 Z" id="Shape"></path>
                        <path d="M106.746073,138.087402 C105.507853,138.261024 104.615183,139.418504 104.787958,140.691732 L105.277487,144.222047 C105.450262,145.379528 106.429319,146.189764 107.52356,146.189764 C107.638743,146.189764 107.725131,146.189764 107.840314,146.160827 C109.078534,145.987205 109.971204,144.829724 109.798429,143.556496 L109.308901,140.026181 C109.136126,138.78189 107.984293,137.884843 106.746073,138.087402 L106.746073,138.087402 Z" id="Shape"></path>
                        <path d="M100.929319,96.6206693 C102.167539,96.4470472 103.060209,95.2895669 102.887435,94.0163386 L101.303665,82.7598425 C101.13089,81.5155512 99.9502618,80.6185039 98.7120419,80.792126 C97.473822,80.965748 96.5811518,82.1232283 96.7539267,83.3964567 L98.3376963,94.6529528 C98.5104712,95.8104331 99.4895288,96.6206693 100.58377,96.6206693 C100.698953,96.6496063 100.814136,96.6496063 100.929319,96.6206693 L100.929319,96.6206693 Z" id="Shape"></path>
                        <path d="M105.939791,132.271063 C107.17801,132.097441 108.070681,130.939961 107.897906,129.666732 L106.28534,118.236614 C106.112565,116.992323 104.931937,116.095276 103.693717,116.268898 C102.455497,116.44252 101.562827,117.6 101.735602,118.873228 L103.348168,130.303346 C103.520942,131.460827 104.5,132.271063 105.594241,132.271063 C105.709424,132.3 105.824607,132.3 105.939791,132.271063 L105.939791,132.271063 Z" id="Shape"></path>
                        <path d="M34.4397906,64.6452756 C33.2015707,64.4716535 32.0209424,65.3397638 31.8481675,66.6129921 L31.0418848,72.2557087 C30.8691099,73.5 31.7329843,74.6864173 33,74.8600394 C33.1151832,74.8889764 33.2015707,74.8889764 33.3167539,74.8889764 C34.4397906,74.8889764 35.4188482,74.0498031 35.5628272,72.9212598 L36.3691099,67.2785433 C36.5418848,66.005315 35.6780105,64.8188976 34.4397906,64.6452756 L34.4397906,64.6452756 Z" id="Shape"></path>
                        <path d="M29.1125654,102.408071 C27.8743455,102.234449 26.6937173,103.102559 26.5209424,104.375787 L26.0314136,107.906102 C25.8586387,109.150394 26.7225131,110.336811 27.9895288,110.510433 C28.104712,110.53937 28.1910995,110.53937 28.3062827,110.53937 C29.4293194,110.53937 30.408377,109.700197 30.552356,108.571654 L31.0418848,105.041339 C31.2434555,103.76811 30.3795812,102.581693 29.1125654,102.408071 L29.1125654,102.408071 Z" id="Shape"></path>
                        <path d="M24.1308901,138.087402 C22.8926702,137.91378 21.7120419,138.78189 21.539267,140.055118 L21.0497382,143.585433 C20.8769634,144.829724 21.7408377,146.016142 23.0078534,146.189764 C23.1230366,146.218701 23.2094241,146.218701 23.3246073,146.218701 C24.447644,146.218701 25.4267016,145.379528 25.5706806,144.250984 L26.0602094,140.720669 C26.2329843,139.418504 25.3691099,138.261024 24.1308901,138.087402 L24.1308901,138.087402 Z" id="Shape"></path>
                        <path d="M32.1649215,80.821063 C30.9267016,80.6474409 29.7460733,81.5155512 29.5732984,82.7887795 L27.9895288,94.0452756 C27.8167539,95.2895669 28.6806283,96.4759843 29.947644,96.6496063 C30.0628272,96.6785433 30.1492147,96.6785433 30.2643979,96.6785433 C31.3874346,96.6785433 32.3664921,95.8393701 32.5104712,94.7108268 L34.0942408,83.4543307 C34.2670157,82.1521654 33.4031414,80.994685 32.1649215,80.821063 L32.1649215,80.821063 Z" id="Shape"></path>
                        <path d="M27.1832461,116.297835 C25.9450262,116.124213 24.7643979,116.992323 24.591623,118.265551 L22.9790576,129.695669 C22.8062827,130.939961 23.6701571,132.126378 24.9371728,132.3 C25.052356,132.328937 25.1387435,132.328937 25.2539267,132.328937 C26.3769634,132.328937 27.3560209,131.489764 27.5,130.36122 L29.1125654,118.931102 C29.2853403,117.657874 28.421466,116.471457 27.1832461,116.297835 L27.1832461,116.297835 Z" id="Shape"></path>
                        <path d="M13.5628272,64.6452756 C12.3246073,64.4716535 11.1439791,65.3397638 10.9712042,66.6129921 L10.1649215,72.2557087 C9.9921466,73.5 10.8560209,74.6864173 12.1230366,74.8600394 C12.2382199,74.8889764 12.3246073,74.8889764 12.4397906,74.8889764 C13.5628272,74.8889764 14.5418848,74.0498031 14.6858639,72.9212598 L15.4921466,67.2785433 C15.6649215,66.005315 14.8010471,64.8188976 13.5628272,64.6452756 L13.5628272,64.6452756 Z" id="Shape"></path>
                        <path d="M8.26439791,102.408071 C7.02617801,102.234449 5.84554974,103.102559 5.67277487,104.375787 L5.18324607,107.906102 C5.0104712,109.150394 5.87434555,110.336811 7.14136126,110.510433 C7.2565445,110.53937 7.34293194,110.53937 7.45811518,110.53937 C8.58115183,110.53937 9.56020942,109.700197 9.70418848,108.571654 L10.1937173,105.041339 C10.3664921,103.76811 9.5026178,102.581693 8.26439791,102.408071 L8.26439791,102.408071 Z" id="Shape"></path>
                        <path d="M3.2539267,138.087402 C2.01570681,137.91378 0.835078534,138.78189 0.662303665,140.055118 L0.172774869,143.585433 C4.97962782e-13,144.829724 0.863874346,146.016142 2.13089005,146.189764 C2.2460733,146.218701 2.33246073,146.218701 2.44764398,146.218701 C3.57068063,146.218701 4.54973822,145.379528 4.69371728,144.250984 L5.18324607,140.720669 C5.35602094,139.418504 4.4921466,138.261024 3.2539267,138.087402 L3.2539267,138.087402 Z" id="Shape"></path>
                        <path d="M11.2879581,80.821063 C10.0497382,80.6474409 8.86910995,81.5155512 8.69633508,82.7887795 L7.11256545,94.0452756 C6.93979058,95.2895669 7.80366492,96.4759843 9.07068063,96.6496063 C9.18586387,96.6785433 9.27225131,96.6785433 9.38743455,96.6785433 C10.5104712,96.6785433 11.4895288,95.8393701 11.6335079,94.7108268 L13.2172775,83.4543307 C13.3900524,82.1521654 12.526178,80.994685 11.2879581,80.821063 L11.2879581,80.821063 Z" id="Shape"></path>
                        <path d="M6.30628272,116.297835 C5.06806283,116.124213 3.88743455,116.992323 3.71465969,118.265551 L2.10209424,129.695669 C1.92931937,130.939961 2.79319372,132.126378 4.06020942,132.3 C4.17539267,132.328937 4.2617801,132.328937 4.37696335,132.328937 C5.5,132.328937 6.47905759,131.489764 6.62303665,130.36122 L8.23560209,118.931102 C8.40837696,117.657874 7.54450262,116.471457 6.30628272,116.297835 L6.30628272,116.297835 Z" id="Shape"></path>
                    </g>
                </g>
            </g>
        </g>
    </g>
</svg>