<svg id="Calque_1" data-name="Calque 1" xmlns="http://www.w3.org/2000/svg" viewBox="0 0 877.38 1048"><title>africa</title><g id="world_map" data-name="world map"><g id="africa"><path d="M1670.1,939.9c-3.1-9.9-6.5-19.7-9.2-29.6-0.9-3.3,0-7.1,0-10.6a1.4,1.4,0,0,0,.2-1.4c2.2-5.1,4.7-10.1,6.4-15.4,3.9-12.2,12.5-21.7,18.8-32.4a37,37,0,0,0,4.1-9.9c1.9-7.8,5.3-13.7,12.9-17.7,3.6-1.9,6.1-7.2,7.4-11.5,1.9-6.5,6.4-9.3,11.9-10.5,5.1-1.1,8-4.2,10.9-7.9,5.3-6.7,11.3-12.8,16.3-19.8,2.8-3.9,4.3-8.9,6.2-13.4,3.1-7.3,6-14.6,9-21.9a2.73,2.73,0,0,1,1.3-1.5c8.4-4.6,13-14.1,22.7-17.1,4.6-1.5,7.7-4.8,9.4-9.6,1.1-3.1,3.4-5.7,5-8.6,6-10.6,9.9-11.5,20.4-4.9,0.7,0.4,1.4.8,2,1.2h14.5c1.2-.4,2.4-0.8,3.6-1.3,10.8,0.9,20.6-2.8,30.3-6.6l3.3-1.5c4.4-5.4,10.2-8.6,16.7-10.7,1.2,0,2.3.1,3.5,0.1h10.4l2.1-1.2,10.2-1.5a1.28,1.28,0,0,0,1.4-.6c0.7-.1,1.4-0.3,2.2-0.4,1.5-.5,3-0.9,4.5-1.4,6.1,0.7,12.2,1.7,18.4,2,2.8,0.2,5.6-.8,8.4-1.3,4.8-.8,9.6-1.6,14.3-2.5,6.8,2.1,13.6,2.5,20.4-.3,5.8-.8,11.7-2.3,17.5-2.3s8.8,4.1,8.8,9.9c0,6,.1,12-0.3,17.9a23,23,0,0,1-2.4,8.5c-4.3,9.1-2.3,16.5,6.4,21.6,7.3,4.2,14.8,7.4,23.7,6a28.53,28.53,0,0,1,10.9.4c7.4,1.6,14,4.4,16.1,12.9,1.4,5.7,5.5,8.1,11.1,8.2,9.1,0.1,16.7,3.5,23.8,9a17.79,17.79,0,0,0,9.1,3.4c6.5,0.3,9.6-4,8.4-10.4-2.4-12.5,2.1-18.4,14.8-21.7,8-2.1,16.6-4.5,23.1.7,8.9,7.2,20.8,7,29.3,14.3,1.3,1.1,3.8.8,5.7,1.2,11.7,2.5,23.5,4.5,35,7.6,5.2,1.4,9.2,2,14-1.4,10.6-7.4,18.5-8.4,32.8,1.2,12.3,8.3,15.5,20.4,17.8,33.1,1.4,7.6,5.5,15.1,2.9,23.4-0.5,1.7,1.4,4.3,2.4,6.3,6.4,13.2,12.5,26.5,19.3,39.4,3.7,7,7.8,14.1,13.2,19.8a50.76,50.76,0,0,1,13.9,30.3c1.5,14.5,7.8,25.9,16.9,36.2,6.3,7.1,9.2,15.2,10.1,24.4,0.8,8.8,4.7,17.1,12.9,19.7,12.8,4,19.4,14.2,27.9,22.7a74.83,74.83,0,0,1,7.9,9c3.2,4.5,7,8.5,7.2,14.9,0.3,11.6,11.9,19.8,23.1,16.8,14.4-3.8,28.7-8,43-11.8,8.3-2.2,17.1-1.8,24.9-6.5,1.6-1,5.3,1.4,7.3,2.1,0,8.8.2,16.3,0,23.9-0.5,15.2-9.3,27.5-14.7,40.9-4.7,11.7-10.5,23-16.1,34.4-8.6,17.6-19.4,34.5-36.3,44.1-19.8,11.2-32.1,28.4-45.2,45.5-4.4,5.8-9.6,11-14.4,16.5-1.1,1.3-2.4,2.3-3.4,3.7-8.9,12.5-14.8,26.7-20,40.8-2.4,6.7,1.2,15.6,2.1,23.5,0.6,5.3,2,10.6,1.4,15.8-1.3,11.6,2.2,21.9,8.4,31.1,6.4,9.4,6.1,19.3,5.3,29.7-0.7,8.9-2.2,17.9-1.4,26.7,1.7,18.2-6,31.7-19.6,42.3-6.2,4.9-13.5,8.4-20.4,12.4-1.7,1-4.1,1.2-5.4,2.5-8.3,8.4-16.9,16.6-24.4,25.8-6.5,7.9-5.6,17.6-2.2,26.7,4.8,12.6,2.6,24.8-.9,37.1-1.9,6.9-6.1,11.7-11.9,15.3-2,1.2-3.9,2.5-6,3.7-7.7,4.4-12,11-14,19.7a189.33,189.33,0,0,1-7.4,22.8,20.28,20.28,0,0,1-5.4,8.1c-8.4,7.3-14.5,16.3-20.1,25.9-3,5-7.2,9.4-11.1,13.8-2.8,3.3-6.4,5.9-9,9.3a63.44,63.44,0,0,1-32,22.3c-11.9,3.8-23.4,6.9-35.9,6.9a21.2,21.2,0,0,0-7.8,1.5,81.65,81.65,0,0,1-29.3,4.9c-1.4.4-2.7,0.8-4.1,1.3-3,0-6-.1-9.1-0.1-0.8-.4-1.7-0.8-2.5-1.2-2.3-1.3-4.5-3-7-3.7-4.5-1.3-5.9-4.3-7.3-8.4-3-8.6-4.6-17.2-3.7-26.3a23.33,23.33,0,0,0-.7-7.9c-2.9-10.2-6.1-20.3-9.2-30.4a19.55,19.55,0,0,0-7.9-11.1,29.2,29.2,0,0,1-8.4-9.4c-5-8.4-10.2-16.7-10.1-27.4,0-7.5-2.5-15-3.4-22.6a84.64,84.64,0,0,1-.6-15.9c0.8-10.4-1.3-19.2-8.2-27.7-5.7-7.1-8.8-16.2-13-24.5-3.7-7.4-7.4-14.8-11-22.3-1.3-2.7-3.3-5.6-3.1-8.3a258.79,258.79,0,0,1,3.5-30.5c1.8-9.4,5.6-18.4,7.3-27.8,1-5.6,2.9-10.2,6.8-13.9,10.9-10.6,12.7-22.8,6.7-36.4a80.48,80.48,0,0,1-7-33.9c0.1-5.4-2.4-10.9-4.3-16.1-2.3-6.5-6.1-12.6-7.4-19.3-1.7-8.9-5.6-16.1-11.2-22.9-7.3-8.7-14.3-17.5-21.1-26.6-6.6-8.9-8.6-17.8-4.7-29.6,4.6-13.9,5.6-29.1,7.4-43.9,0.8-6.2-1.8-11-8.3-14.3-9.4-4.8-18.6-6.5-28.8-4.4l-3.8.9h-5.4c-0.7-.4-1.5-0.9-2.2-1.3-4-2.3-5.6-5.9-6.8-10.2-2.1-7.9-6-14.5-14.9-16.5-0.8-.5-1.5-0.9-2.3-1.4-5.5.1-10.9,0.3-16.4,0.4a2,2,0,0,0-1.5,0c-2.1-.1-4.3-0.3-6.4-0.4-0.8.4-1.6,0.9-2.4,1.3a2.35,2.35,0,0,0-1.6.5l-4.2,1.5q-21.9,9.3-43.8,18.7a2.46,2.46,0,0,0-1.7.2c-1.9-.3-3.8-0.6-5.7-0.8a17.1,17.1,0,0,1-2.3-1.3c-5.4-1.2-10.9-2.1-16.2-3.8s-9.6,0-14.2,1.8c-2.6.5-5.2,1-7.8,1.4-8.1,2.9-16.2,5.8-24.2,8.7-1.2,0-2.4.1-3.5,0.1-7.3-5.1-14.6-10.4-22-15.4-4-2.8-8.4-5-12.5-7.8-3.2-2.2-6-5.1-9.2-7.2-15.5-9.9-24.7-24.4-30.9-41.5-1.7-4.8-5.4-9-8.6-13-5-6.1-9.5-13.3-15.9-17.5-7.7-5.1-12.4-11.9-16.6-19.4-2.6-4.8-4-10.3-5.9-15.5a0.82,0.82,0,0,0-.7-1c0-6-.6-12,0.3-17.9,0.7-4,2.6-8.9,5.6-11.4,10.5-8.7,9.8-21.1,12.2-32.5,0.4-1.9.1-4,.2-5.9A6.58,6.58,0,0,0,1670.1,939.9Z" transform="translate(-1651.2 -667.9)"/><path d="M2503.6,1385.1c1.8,2.7,3.1,4.2,4,5.9,6.3,12,8.2,25.2,10.1,38.4a23.87,23.87,0,0,1-3.7,16.2c-4.8,7.7-7.2,16-9.2,24.9-2.8,12.5-8.1,24.5-12.4,36.8-5.4,15.4-10.7,30.7-16.3,46-2.5,6.9-5.5,13.5-8.3,20.3a2.76,2.76,0,0,1-1.2,1.6c-8.4,4.7-17.2,10.2-26.8,7.9-10-2.4-17.6-9.2-19.3-20.5-0.6-4.3-1.9-8.5-2.2-12.8-1-11.6-2.7-23,6.3-33.1,3.8-4.3,5.7-10.5,7.7-16.1,1-2.6.7-5.8,0.4-8.7-0.7-6.9-1.7-13.8-2.6-20.8-1.1-8.6,3.6-15.6,7.8-22.2,2.3-3.6,7.8-6.5,12.2-7.3,17.7-3.3,27.2-15.1,34.4-30.2,3.7-7.8,8.8-14.9,13.4-22.1C2499.2,1387.7,2501.2,1386.9,2503.6,1385.1Z" transform="translate(-1651.2 -667.9)"/></g></g><g id="countries"><g id="ethiopia"><circle cx="723.5" cy="438.7" r="15.9" style="fill:#ff2b38"/><circle cx="723.5" cy="438.7" r="25" style="fill:#ff2b38;opacity:0.5;isolation:isolate"/></g><g id="south_africa" data-name="south africa"><circle cx="519.8" cy="966.9" r="15.9" style="fill:#ff2b38"/><circle cx="519.8" cy="966.9" r="25" style="fill:#ff2b38;opacity:0.5;isolation:isolate"/></g><g id="ivory_coast" data-name="ivory coast"><circle cx="189.6" cy="438.7" r="15.9" style="fill:#ff2b38"/><circle cx="189.6" cy="438.7" r="25" style="fill:#ff2b38;opacity:0.5;isolation:isolate"/></g></g></svg>