<svg id="Calque_1" data-name="Calque 1" xmlns="http://www.w3.org/2000/svg" viewBox="0 0 1546.88 1233.85"><title>asia</title><g id="world_map" data-name="world map"><g id="asia"><path d="M3740.1,280.9c-2.3-4.2-6-8.5-10.1-10.6-9.4-4.9-19-9.2-29.9-10.8-15-2.2-30.1-4.1-44.4-10.5-12.6-5.6-26.3-9.3-39.8-12.4-15.8-3.6-32-6.1-48.1-8.4-17.1-2.5-34.2-4.4-51.4-6.4-18.2-2.1-36.4-3.8-54.4,1.6-3.1.9-6.6,0.7-9.9,0.7-15,0-30,.1-45-0.2-9.3-.2-18.7-1-26.1-7.9a9.36,9.36,0,0,0-4.5-2.1c-17.6-3.3-35.1-7.9-53.3-5.7a15.51,15.51,0,0,0-4.6,1.9h-17.8c-0.8-.4-1.7-0.8-2.5-1.2a14.47,14.47,0,0,1-3-.4c-12.7-3.7-25.2-8.4-38.1-11.1-12.6-2.7-25.6-3.4-38.4-5-5.4-.4-10.9-0.9-16.3-1.3-5-.4-10.1,0-14.9-1.1-14-3.3-26.7-1.4-39.4,5.6-13.4,7.3-27.7,11.4-42.7,3.5-5-2.6-10.3-4.7-15.1-7.5-9.3-5.4-18.5-9.5-29.9-9.2-10.9.3-21.9-1.3-32.7-2.8-26.5-3.7-52.8-5.9-79.2.5-2.8.6-5.9,0.2-8.9,0-6.6-.5-13.2-1.5-19.8-1.9-9.2-.5-16.6-3.9-21.3-12.3a32.83,32.83,0,0,0-16.9-14.9c-4.6-1.8-9.3-3.6-14.2-4.3-18-2.4-36.3-2.6-54.2-6.5-4.2-1-8.7-1.4-12.6-3-14.2-5.8-27.2-3-40,4.2-3.8,2.2-7.9,3.5-11.9,5.2-5.4.6-10.7,1.3-16.1,1.9-10.7,1.9-21.4,4.5-32.3,5.5-12,1.2-22.7,6.4-32.4,11.9a83.19,83.19,0,0,1-32.4,11c-3.4.4-8.1,1.5-9.7,3.9-5.3,8.3-13.4,8.8-21.7,9.7-7.2.8-14.4,1.9-21.5,3.2-6.8,1.2-13.1,1.5-18.9-3.2-2.5-2-5.9-2.8-8.9-4.2-4.8-.1-9.6-0.1-14.4-0.2l-2,.3c-10.2,2-10.2,2-11.8,12.3a11.27,11.27,0,0,1-2.5,5c-2.9,3.6-6.5,6.6-9.1,10.4-4.2,6.1-9.7,8.9-16.9,8.7-4.4-.1-8.8-0.7-13,0.1-6.1,1.1-12.8,2-17.9,5.1-13.6,8.2-28,9-43.1,7.4-8.9-1-18.1-3-26.4,1.8-9.4,5.5-19.7,7.7-30.1,10.1-7.7,1.8-14.2.8-20.5-4.3-6.7-5.4-14.3-5.3-21.2-.6-2.1,1.5-4,3.5-6,5.2-4.3,3.7-8.7,6-14.4,2.4l1.4,15.3s-0.3,15,0,16.3,1,14.3,0,17.7-5.3,12.7-5.3,12.7l-12,22-2.3,14,2,22,2,22,3.7,39.3s5.7,22,5.7,23.7,1.3,15.3,1.3,18,1.3,25.3,1.3,25.3l-1.3,21s-3.3,15.7-4,16.7-9.3,18-9.3,18l-9.3,25-6,15.7v11.7l-0.3,20s-2.3,9.3-2.7,11-1,5.3-2.7,7.7-10,16-10,16l-3.7,12.3,0.8,8.4c6.2,1.9,12.2,4.7,18.3,7.2h14.1c3.1-2,6-4.5,9.3-5.7,6.8-2.6,15.3,1,16,7.6a85.1,85.1,0,0,1-1,24.7c-1.9,9.7-5.6,19-8.6,28.5-0.8,2.9-1.4,5.9-2.8,8.5a22.26,22.26,0,0,0-1.4,19.3c3.1,8.7,7,17.1,10.2,25.8,4.9,13.3,12.5,24.9,20.6,36.4,4.4,6.2,7.7,13.1,11.7,19.6a34.44,34.44,0,0,0,6.7,8.4,50.38,50.38,0,0,1,17.3,29.5c0.9,4.3,1.6,8.5,2.7,12.7,1.8,7,5.3,12.6,11.8,16.6a31.31,31.31,0,0,1,9.9,9.6c7.3,12.1,15.8,24,20.4,37.2,5.5,15.7,13.3,30.3,19.6,45.6,1.9,4.7,6.1,8.7,10.1,12a11.44,11.44,0,0,0,9.2,1.5,271.8,271.8,0,0,0,25.8-10.3c11.8-5.2,23.5-10.8,35.2-16.1a37.12,37.12,0,0,1,8.5-2.9c9.1-1.9,17.3-5.1,21.4-14.4a4.71,4.71,0,0,1,1.3-1.5c2.5-2.1,4.8-4.8,7.7-6.3,11.1-5.7,22.5-10.5,32.9-17.9,11.8-8.3,24.2-15.2,27.4-30.9,0.7-3.1,3.1-5.9,4.6-8.8,4.1-7.9,8.5-15.7,12.1-23.9a10.23,10.23,0,0,0-.4-8.4,84.71,84.71,0,0,0-12.2-15.7,16.18,16.18,0,0,0-10.4-4.5c-5.4-.2-8.8-2.1-11.5-6.4-1.8-2.8-3.9-5.3-5.8-8.1-7.5-11.1-17-11.7-24.6-1.1-4.5,6.2-10.2,9.4-17.7,9.4-5,0-10,0-15-.5-5.7-.6-6.2-1.6-5.4-7.8,0.9-6.5.9-13.1-3.8-18a59.06,59.06,0,0,0-13.8-11.1c-13-7.2-22.5-17.3-27.9-31.1-2.7-6.9,2.4-15.5,9.3-15.2,5.2,0.2,11,1,14.2,6s5.7,10.3,8.6,15.5c2.1,3.7,3.5,9.1,6.7,10.6,11.5,5.2,20.9,13.7,33.3,17.8,9.4,3.1,16.7,1.8,24.8-1.1,1.3-.4,2.2-1.5,3.4-2.1,3.2-1.7,5.9-.8,7.6,2.3a28.1,28.1,0,0,1,2.9,6.4c1.7,6.3,5.8,9.1,12.1,10.2,15,2.6,30.1,5.6,45.1,8.4,0.8,0.1,1.6.3,2.4,0.4,4.6-.1,9.1-0.3,13.7-0.4l2.2-.3c3.9-.5,7.8-1.2,11.8-1.6,7.6-.8,15.2-1.6,22.8-2.3,4.7-.5,8.2,1.8,11.1,5.4,6.1,7.5,12.2,14.8,20.4,20.2,5.3,3.5,8.7,8.8,11.3,14.8,1.7,4,5.1,7.5,8.1,10.8,3.7,4.2,8.3,7.6,11.8,11.9,3.2,3.9,6.2,5.7,11,3.3a37.73,37.73,0,0,1,5.7-1.8c7.2-1.8,12.5,1.6,13.7,8.9,1.6,9.4,2,19.2,4.8,28.3,5,16.5,11.1,32.7,17.4,48.8,2.7,7.1,7.3,13.4,10.5,20.3,2.3,4.8,3.4,10.1,5.5,15q10.65,24.75,21.7,49.2a35.22,35.22,0,0,0,5.5,8.3c5,5.9,9.6,6,15.3.7,2.2-2.1,4-4.5,6.3-6.4,10.7-8.9,19.1-18.8,17.4-34-0.1-1.3.5-2.6,0.7-3.9,1.9-15.5,5.5-30.8,1.8-46.6-0.8-3.6.9-9.4,3.5-11.8,8.2-7.6,16.9-14.8,23.3-24.2,0.5-.8,1.8-0.9,2.5-1.6,2.7-2.8,5.4-5.8,8-8.7,8.3-9.3,13.7-21,26-26.8,5.4-2.5,11.2-7.1,11.4-14.2,0.2-5.6,2.8-9,7.4-10.7,5.5-2.1,11.2-3.2,16.9-4.7,0.8-.1,1.6-0.3,2.4-0.4,4.9-1.1,9.8-2,14.7-3.1,9.1-2.1,11.2-1,16.3,6.9,4.3,6.6,9,13,13.7,19.4,5.2,7,13.9,11.1,16.7,20.3,1.6,5.3,4.7,10.3,6.3,15.7a61.16,61.16,0,0,1,2,13.6c0.3,3.5-1.5,7.9,0,10.5,1.4,2.4,6,3,9.2,4.5,2,0.9,3.9,2,5.9,3,1.7-1.5,2.9-2.6,4.2-3.6,11.5-8.5,21.5-6.8,25.4,7.9,1.5,5.8,4.5,11.1,7.1,16.5,7.3,15.5,13.5,31.2,8.6,48.9a5.16,5.16,0,0,0-.1,3c2.9,7.3.5,14.4-.1,21.6-0.6,6.8-1.2,13.9,4.4,19.7a120.88,120.88,0,0,1,25.4,40.2c7.7,19.9,16.6,38.7,37.6,48.3,4.1,1.9,7.8,6.2,12.5,2,4.3-3.8,1.1-8.3-.6-11.9a71.6,71.6,0,0,1-7.3-31.8,17.63,17.63,0,0,0-2.4-8.5c-5.8-11-13-21.2-23.4-28.2-10.8-7.3-16.9-17.4-20.9-29.4a13.78,13.78,0,0,0-6-7.2c-3.5-1.8-5.2-4.1-5-7.7,0.7-11.9,4-23,10.9-32.7,4-5.6,14.9-6.4,19.7-1.7a108,108,0,0,1,13.6,15.8c5.6,8.1,10.3,16.8,15.5,25.2,2.5,3.9,5.2,7.7,7.9,11.5,4.3,5.9,7.4,6.2,13,1.3,1-.9,1.9-2,2.8-2.9,9.4-9.2,16.9-20.3,29.1-26.7,6.4-3.4,11.8-9.2,12.7-17.1,1-8.6,1.5-17.2-2.5-25.5-1.4-3-1.7-6.4-2.9-9.5-2.2-5.8-3.8-12.3-7.4-17.1-7.6-10-16.4-19.2-24.7-28.7-4.5-5.2-9.4-10.2-13.7-15.7-6.8-8.7-2.5-16.9,1.3-25.2,3.1-6.9,9.2-10.6,15.3-13.5,5.2-2.5,8.6,3.7,13,5.7a5.72,5.72,0,0,1,1.6,1.1c8.5,7.9,17.8,8.1,27.5,2.6,8.4-4.7,16.8-9.6,25-14.6,8.7-5.3,16.7-12.1,25.9-16.1,10.4-4.5,18.7-11.3,25.9-19.3,8.1-9,16.2-18.4,17.1-31.6,0.1-2.2,1.5-4.4,2.2-6.6,4.2-12.7,10.2-24.8,10-39-0.2-15-4.7-28.4-13.5-39.6-5.4-7-11.3-13.6-16.3-21.1-4.6-6.9-10.2-13.1-15.6-19.4-6.5-7.7-6.6-9.7-1.4-18.5,2.8-4.7,6.2-7.7,11.6-8.4,3.9-.5,7.7-1.9,7.1-6.6-0.6-4.5-4.7-4.8-8.5-5.2a45.29,45.29,0,0,1-11.6-2.5c-4.6-1.7-8.7-2.2-13.5-.6-2.8.9-7.4,1-9.3-.7a43.25,43.25,0,0,1-10.3-13c-3.9-7.9-.5-17,6.9-21.5,5.4-3.3,11.3-.4,12.4,5.9a36.69,36.69,0,0,0,3.2,10.2c2.4,4.9,5.2,5.5,9.4,2.3,2.3-1.8,4.2-4.3,6.5-6.2,10.3-8.4,26.8-4.3,28.9,8.1,1.4,8.1,6,11.6,11.9,15.8,12,8.5,22.9,18.1,25.6,34.1,0.8,5,4.2,9.6,6.1,13.7,10.6,1.8,17.5-5.1,25.7-7.3,7.1-1.9,7.9-5.1,5.6-12.2-6.2-19.1-18.5-33.5-34.4-45.3-1.9-1.4-4-2.4-5.8-3.9-6.4-5.4-6.6-8-.5-13.6,5-4.6,9.1-9.6,9.7-16.8,0.2-2.2,1.6-4.3,2.4-6.5,3.8-10.1,6.9-12.2,17.8-12.2,12.7,0,18-4.2,21.1-16.6,1.7-7.1,3.1-14.3,5.5-21.2,2.6-7.3,4.6-14.4,4.6-22.3a47,47,0,0,1,3.2-16.5c1.5-4.1,4.3-9.5,7.7-10.6,5.2-1.7,9.8,2.9,13.2,7.2a29.74,29.74,0,0,1,2.4,4.3c4.4,7.5,8.8,14.9,13.3,22.3a10.59,10.59,0,0,0,1.9,2.3c4.3,4,10.3,4.4,14.6.9,3.6-3,3.6-6.6.4-12.5-2.7-4.9-4.9-10.1-7.3-15.2-3.1-6.6-6-13.4-9.5-19.7a12.45,12.45,0,0,0-6.6-5.8c-8.3-2.6-12.8-9-17.2-15.8-2-3-4.8-5.6-7.1-8.4-3.4-4.1-6.8-8.2-10.1-12.3-1.3-1.5-2.1-3.9-3.7-4.6-8.9-3.7-13.3-11.9-19.6-18.1-2.2-2.1-5.6-3.9-8.5-4-10-.4-19.9.1-29.9,0.2-2.1-.4-4.2-0.9-6.3-1.3a68.73,68.73,0,0,1-7.8.8c-3.2,0-6.7.1-9.4-1.1a148.2,148.2,0,0,1-17.4-9.7c-2.1-1.3-4.9-4.2-4.6-5.7,1.7-7.7.1-16,4.6-23.2a52.61,52.61,0,0,0,4.9-10.8c3.6-10.8,11.1-16.1,22.3-16.2,4.3-.1,8.6.6,12.9,0.9,2.9,0.2,6.1,1.2,8.8.5,12.8-3.5,25.8-1.3,38.7-1.9,3.1-.2,7,0.4,9.5,2.1,11.2,7.5,23.1,4.1,34.6,2.3,5.3-.8,6.5-5.1,3.7-10-1.6-2.9-4.2-5.2-6.1-7.9-4.7-6.9-2-14.8,6.1-16.2,7.3-1.3,15-1.3,20.7,4.5,5.3,5.5,11.9,6.6,18.9,7.1,1.7,0.1,3.4-.2,5,0,6.5,0.9,8.5,3.4,6.7,10.1a102.37,102.37,0,0,1-5.8,15.7c-4.8,10.3-6,20.7.8,30.2,6.9,9.7,14,19.3,23.9,26.6,6.9,5.1,12.3,12.1,18.7,17.9,11.4,10.2,22.8,20.4,34.5,30.1,4.2,3.5,8.4,1.6,9.8-3.7,2.2-8.1,5-16.1,5.7-24.3,1.2-13.7,4.2-28.4-9.9-38.4a3.86,3.86,0,0,1-1.1-1.7c-3-9.1-8.7-16.2-15.4-22.9a60.63,60.63,0,0,1-7.3-9.4c-4.2-6.4-2.6-12.1,4.4-15.4,3.3-1.6,6.9-2.5,10-4.4a13.5,13.5,0,0,1,11.4-1.6c10.2,2.9,18.2-1.1,24.8-8.8,2.8-3.3,5.5-6.7,8.6-9.7,6.6-6.5,13.9-11.3,23.8-10.8a15.93,15.93,0,0,0,6.7-1.5c5.9-2.5,6.3-6.6,1-10.3-2.6-1.8-6.1-2.5-9.1-3.7-6.2-2.6-12.5-4.7-18.3-7.8-4.6-2.5-5-7.5-.9-10.7,5.6-4.4,11.7-6.9,19.4-4,12.2,4.5,24.6,8.3,37,11.9,3.4,1,7.3.2,10.9,0.7C3739.1,297.4,3743.5,287.1,3740.1,280.9Z" transform="translate(-2254.1 -134.08)"/><path d="M3209.4,1190.4c-4.7,4.2-8.4-.1-12.5-2" transform="translate(-2254.1 -134.08)"/><path d="M3772.6,1361.3c-1.8,0-3.5.1-5.3,0.1-1.5-.4-2.9-0.9-4.4-1.3-8.4-3-13.5-9.8-16.9-17.3-4.1-8.9-11-13.7-19.4-17.4-4-1.8-7.3-1.3-9.9,1.6a50.27,50.27,0,0,0-7.5,10.3c-2.3,4.3-5,7.8-10,8.8-1.4.5-2.9,0.9-4.3,1.4l-13.4-.3c-0.8-.4-1.6-0.8-2.5-1.2-2.8-2.3-5.6-4.7-8.5-7-6.4-5-13.2-7.1-21.4-4.6-3.9,1.2-8.3,1-14.1,1.6,0.5-4.9.6-8.3,1.3-11.6,0.8-3.9,2.4-7.6,3.3-11.5,2.9-12.9-2-23-13.8-28.6-4.5-2.1-9.3-3.5-14-5.3-4.3-1.7-8.7-3.2-12.8-5.3-5.5-2.9-10.5-5.1-16.7-1-4.2,2.8-7.9,1.6-9.4-3.4-2.3-7.6-8.9-13.5-7.2-23,1.1-6.1-4.2-10.8-10.6-12.9-4.8-1.5-8.3-4.1-7.7-9.1,6.7-2.7,12.7-5.2,18.8-7.4,10-3.7,23.3.7,29.2,9.6,1,1.5.8,3.8,1.4,5.7,1,3.1,1.6,6.5,3.3,9.3,3.7,6.1,6.7,6.6,13.1,3s12.6-7.3,19-10.7c5.3-2.8,10.9-2.4,16.4-.4,19,6.9,37.8,14.5,57,20.7,16.3,5.2,27.7,16.2,38.7,28.2,4.7,5.1,8.6,10.5,15.9,13,5.6,1.9,9.3,7.2,9,14.2-0.2,5.6-.7,11.5.6,16.8,1.3,5.6,3.1,11.5,11,12.4,2.7,0.3,5.4,3.6,7.6,5.9,3.4,3.6,6.4,7.7,9.5,11.5,2.2,2.6,4.7,5.5,1.7,8.7s-6.7,4.2-10.9,1.9c-3.2-1.8-6.3-3.7-9.4-5.5C3777.1,1361.3,3774.9,1361.3,3772.6,1361.3Z" transform="translate(-2254.1 -134.08)"/><path d="M3370.6,1105.3c2.9,2.6,4.7,3.6,5.8,5.2,5,7.4,12.2,12,19.8,16.2,8,4.3,8.5,6.6,3.9,14-1.9,3.1-4,6.4-6.8,8.5-7.1,5.5-7.2,12.3-4.5,19.7,3.3,9.3,6.8,18.5,10.8,29.4a48.32,48.32,0,0,0-5.9,4.3c-2.6,2.5-5.8,5-7.1,8.2-3.3,7.7-7,14.5-14.5,19.2-2.2,1.4-3.2,6.4-3,9.7a47.2,47.2,0,0,1-3.6,21.4c-1.1,2.5-3,5.4-5.3,6.3-7.9,3.3-15.5,5.9-24.5.8-6.9-3.9-15.1-6.9-23.9-4.7-1.9.5-4.4-.8-6.5-1.4-4-1.3-7.8-3.3-11.9-4.1-4.5-.9-6.6-3.4-8.1-7.6-2.2-6.2-5.4-12-7.8-18.1a100.93,100.93,0,0,1-4.6-14.1c-1-4.2-.4-8.9-1.9-12.8-3-7.9-1-14.4,3.9-20.3a29.27,29.27,0,0,1,7.9-7c11.3-6.3,23-11.8,34.1-18.4,4.7-2.8,8.3-7.4,12.5-11.2,3.9-3.5,7.4-7.6,11.7-10.5,7.8-5.3,14.6-11.4,19.8-19.4C3363.6,1114.4,3366.9,1110.3,3370.6,1105.3Z" transform="translate(-2254.1 -134.08)"/><path d="M3329.1,1307.7c2.2,2.5,4.1,5.3,6.6,7.4,3.2,2.7,7,4.8,10.4,7.3,2.7,1.9,5.7,3.6,7.7,6,2.4,3,.8,7.3-2.9,7.5-7.5.5-14.9,3.5-22.6,0.2-2.5-1.1-5.8-.6-8.8-0.4-13.2.9-25.7-.5-37.7-6.8-5.1-2.7-11.3-3.9-17.2-4.4-10.1-.9-19.6-2.7-28.1-8.7-3.9-2.8-9.4-3.5-12.9-6.6-5.9-5.2-10.7-11.7-16-17.5-4.5-4.9-9.1-9.5-13.6-14.4-2.9-3.1-5.9-6.3-8.6-9.5-5.3-6.3-10.6-12.7-15.8-19.1-1.5-1.8-3.2-3.6-3.9-5.7-4.2-12.9-12.7-23.3-19.6-34.6a158.33,158.33,0,0,1-8.1-15.9c-2.4-5.1-4.3-10.5-10.2-12.9a6.29,6.29,0,0,1-3.2-3.6c-4-13.3-15.9-20-24.6-29.4-3.2-3.4-6.8-6.4-6.8-11.7s2-7.4,7.2-6.7c4.9,0.7,9.9,1.3,14.7,2.2,7.1,1.3,13.2,4.4,17.2,10.9a21.16,21.16,0,0,0,3.5,4.8c11.8,11.2,23.6,22.4,35.7,33.2,6.7,6,13.9,11.4,21.1,16.7,12.7,9.2,22.9,20.1,27.1,35.8,1.3,4.7,3.3,8.7,8.1,11.8,5.4,3.5,6.5,9.9,5.9,16.8a93.28,93.28,0,0,0,1.1,23.6c1.8,9.6,9.3,13.9,18.5,15.8,4.4,0.9,8.7,2.9,13.1,3.9,5.1,1.1,11.3,3.7,15.4,1.9,10.2-4.5,19.4-1.6,29,.8C3316.8,1306.7,3322.9,1307.2,3329.1,1307.7Z" transform="translate(-2254.1 -134.08)"/><path d="M3516.8,551.8c1.1,0.4,3,.9,4.8,1.7,7,3.1,13.8,6.7,20.9,9.3a81.76,81.76,0,0,0,18.1,4.7c4.4,0.6,7.5,1.7,9.6,5.8a29.22,29.22,0,0,0,4.4,6.6c3.8,4,3.5,7.9-.3,11.3a187.69,187.69,0,0,1-15.4,12.6c-6.1,4.4-8.4,9-3.7,14.6,8.5,10.4,10.8,23.4,16.9,34.8,2.7,5.1,3.6,11.4,4.3,17.2,1,8.3,1.2,16.6,1.4,24.9,0.2,5.3-2.9,8.7-7.8,10.4-3.1,1.1-6.4,2-9.6,2.8-9.6,2.7-18.9,5.2-23.6,16-1.2,2.9-7,4.3-11,5.4-4.8,1.3-9.9,1.3-14.7,2.3-9.7,2.1-17.4,6.3-19.1,17.5-0.5,3-3,5.9-5.1,8.3a5.27,5.27,0,0,1-8,.5c-7.8-7.2-16.3-14-19.6-24.7a12.45,12.45,0,0,1-.4-6.6c3.9-12.6,9.7-23.8,21.3-31.4a22.43,22.43,0,0,1,11.9-4.1c8.7-.3,16.9-2.7,21.3-10.7,5.1-9.1,13-15,21.2-20.5,6.1-4,7.8-9.1,6.1-15.3a198.46,198.46,0,0,0-7.9-22.4,78.75,78.75,0,0,0-7.1-13.1,73,73,0,0,0-9.5-12.6c-4.5-4.5-6.5-9.1-4.6-15.2,2.2-6.6,1.6-12.8-1.2-19.4S3510.2,551.8,3516.8,551.8Z" transform="translate(-2254.1 -134.08)"/><path d="M3453.2,1193.7c7.3,1.3,13-.5,16.5-7.8,1.3-2.8,4.5-5.1,7.3-2.7,1.7,1.5,2.9,5.6,2.1,7.7a48.45,48.45,0,0,1-8.1,13.4c-4.3,5.1-9,9.4-10.3,16.6-0.5,3-3.8,6.2-6.6,8.2-9.7,6.9-11.5,11.5-8.2,23.6,2,7.3,4.1,14.7,6,22.1a29.65,29.65,0,0,1,1.2,8.8c-0.2,2.3-1.4,5.5-3.2,6.4s-5.7.3-6.9-1.2c-3.7-4.4-8.8-4.3-13.5-5.6-5.8-1.6-9.6.5-12.3,5.5-0.9,1.7-1.9,3.9-3.5,4.6-2.2,1-5.5,1.7-7.4.8-1.7-.9-3-4.2-3-6.4,0-3.9,1.3-7.8,1.7-11.8,0.5-4.8-.6-8.8-4.8-12.3-6.3-5.2-6.3-9.9-1.9-17.3,1.6-2.7,2.3-6,3.2-9.1,0.8-2.5,1.3-5.1,1.9-7.7,1.1-4.8,2.6-9.5,2.9-14.4,0.6-8.2,3.6-14.7,10.8-18.9,0.8-.5,2.2-0.6,2.6-1.3,4.6-7.4,10.6-6.6,17.2-3.2,1.1,0.6,2.6.5,3.9,0.7C3444.9,1192.8,3449.1,1193.2,3453.2,1193.7Z" transform="translate(-2254.1 -134.08)"/><path d="M3439.1,1001.8c1.9,0.7,3.7,1.4,5.6,2.1,14.1,5.1,14.3,5.5,11.2,21.2-7.2,2.8-13.5.1-19.3-4s-11.4-7.1-18.9-8c-11.1-1.3-26.2-17.5-27-31.3-0.7-12.1,1.4-23.8,4.3-35.5q1.5-6.3,7.8-6.3c3.7,0,7.3-.1,11,0.2,6.8,0.5,12.5,5,13,11.6,0.7,9.1,2.6,18.5-4.6,26.6-4.6,5.2-1.9,11.4-.5,17.1,0.9,3.5,3,5.9,7.2,5.2C3432.3,1001.1,3435.7,1001.5,3439.1,1001.8Z" transform="translate(-2254.1 -134.08)"/></g></g><g id="countries"><g id="central_asia" data-name="central asia"><circle cx="568.8" cy="248.12" r="15.9" style="fill:#ff2b38"/><circle cx="568.8" cy="248.12" r="25" style="fill:#ff2b38;opacity:0.5;isolation:isolate"/></g><g id="south_asia" data-name="south asia"><circle cx="671.9" cy="647.12" r="15.9" style="fill:#ff2b38"/><circle cx="671.9" cy="647.12" r="25" style="fill:#ff2b38;opacity:0.5;isolation:isolate"/></g><g id="east_asia" data-name="east asia"><circle cx="1106.4" cy="398.92" r="15.9" style="fill:#ff2b38"/><circle cx="1106.4" cy="398.92" r="25" style="fill:#ff2b38;opacity:0.5;isolation:isolate"/></g></g></svg>