<svg id="Calque_1" data-name="Calque 1" xmlns="http://www.w3.org/2000/svg" viewBox="0 0 538.87 476.15"><title>europe</title><g id="world_map" data-name="world map"><g id="europe"><path d="M2258.7,661s8.3-13.7,10-16,2.3-6,2.7-7.7,2.7-11,2.7-11l0.3-20V594.6l6-15.7,9.3-25s8.7-17,9.3-18,4-16.7,4-16.7l1.3-21s-1.3-22.7-1.3-25.3-1.3-16.3-1.3-18-5.7-23.7-5.7-23.7l-3.7-39.3-2-22-2-22,2.3-14,12-22s4.3-9.3,5.3-12.7,0.3-16.3,0-17.7,0-16.3,0-16.3l-1.4-15.3c-1.8-1.2-4.5-1-6.7-1.6-5.7-1.4-11.7-2.4-17.2-4.6a198.5,198.5,0,0,0-30.4-9.5c-14.5-3.1-29.3-5.3-42.6-13.1a59.19,59.19,0,0,0-23.3-7.9c-19.5-1.8-39.1-2.1-58.7-2.8-3.2-.1-7.5-0.1-9.5,1.8-8.1,7.8-18.5,6.4-28.1,8.2-2.3.4-4.9,0.4-6.6,1.7-13.7,10.4-27.9,20.3-38.9,33.8-1.5,1.8-3.5,3.1-5.1,4.8-7.5,7.5-14.8,15.2-22.3,22.7-3.3,3.3-6.4,6.9-10.2,9.4-15.2,10.1-31.4,18.4-47.9,26.1-6.4,3-10.9,6.4-9.6,14.2,1.4,8.5,2.9,16.9,4.3,25.4a1.48,1.48,0,0,1,.8,1.6c0.7,8.9,4.5,15.6,13.3,18.8h7.7c1.3-.2,2.7-0.3,4-0.5,1.3-.5,2.7-1,4-1.5,5.3-3.5,10.7-7,16.1-10.5a15.05,15.05,0,0,1,1.7-1,4.06,4.06,0,0,1,1.9,0c11.3,6.5,17.5,17.9,25.3,27.6,2.3,2.9,1.4,6.4-2,8.6-2.7,1.8-5.6,3.6-8.3,5.4-3,2-3.6,5.2-1.8,7.8,1.3,1.7,4.6,3.3,6.6,2.9,9.9-2.1,20.6-2.4,29-9.3,1.1-.5,2.3-1,3.4-1.5,1.3-.2,2.7-0.9,3.9-0.7,6.3,0.8,9.1-2.7,10.2-8.2,1.3-6.5,2.7-13,3.5-19.5,0.6-4.5,2-7.7,6.9-8.2,1.1-.5,2.3-1.1,3.5-1.6,1-.8,2.1-1.6,3.1-2.5,10-9.1,10-14.6,0-23.6-1-.9-2.1-1.6-3.1-2.5-9.4-8-8.2-19.8,2.6-25.6,2.9-1.6,5.8-3.3,8.7-4.9,8.4-4.8,16.4-9.9,20.1-19.8a13.4,13.4,0,0,1,11.4-8.8c6.4-.4,12.9.7,19.4,1.2-0.1,1.2-.1,2.4-0.1,3.5-8.6,6.8-16.9,13.8-25.8,20.2-6,4.4-9.3,9.5-8,16.9,0.8,4.9,2.1,9.7,3.3,14.5,2.2,8.9,10.1,11.7,16.8,15.8,1.2,0.4,2.5.9,3.7,1.3,6.3,1.5,9.4,5.8,9.6,12s-2.7,9.8-8.8,12.2c-0.8.3-1.7,0.7-2.5,1-9.4,1.3-13.4,7.6-15.1,16.1-0.5,2.2-.6,4.6-1.3,6.8-2,6.7-4,13.5-11.8,15.9l-3.9,1.5c-4.7.2-9.5,0.3-14.2,0.5l-3.5.9c-5.4,1.4-10.8,2.8-16.2,4.3s-10.7,3.2-16,4.8c-0.7.4-1.4,0.9-2.1,1.3-1.6-.9-3.7-1.3-4.7-2.6-5.4-6.9-11.8-8.5-19.7-4.9-1.2.5-2.4,0.9-3.6,1.4-5.5,5.1-9.9.3-14.4-1.8-4.2-2-4.5-6.3-4.2-10.4,0.1-2.3,1-4.5,1.2-6.8a132.5,132.5,0,0,0,.6-16.7c-0.1-3.8-2.9-6.6-6.7-5.5-6,1.7-12.7,3.6-15,10.2-2.3,6.3-6.3,12.4-4.1,19.9,0.8,2.8.2,5.9,0.5,8.9a7.34,7.34,0,0,1-4.5,8.1c-4.7,2.2-9.5,4.5-14.3,6.7-1,.4-2,0.9-3,1.3-2.1.9-4.3,1.8-6.5,2.7-0.5.5-1,.9-1.5,1.4-2.7,2.3-6.1,4.3-8,7.2-7,10.6-17.5,16.3-28.2,22.1-2.9,1.6-4.8,5.1-7.2,7.7a1,1,0,0,1-.8,1.3c-1.4,1.4-2.7,2.9-4.1,4.3l-3.6,1.5c-5.9,3.8-11.7,6.4-19.2,3-4.3-2-8.8-.2-11.8,4.4-1.3,2.1-3.7,3.4-5.6,5.1a0.68,0.68,0,0,1-.9.6c-1.6.2-3.2,0.5-4.8,0.7-2.5.2-5.1,0.3-7.6,0.5l-4,.3c-1.9.5-3.9,1-5.9,1.5-1.9,1.2-3.8,2.3-6.2,3.7,2.2,4.1,4.2,7.8,6.2,11.4l3.6,1.5c12.7,1.1,30.3,17.3,31.6,29.5,0.3,2.8-.5,5.8-1.1,8.7-0.7,3.8-1.9,7.6-2.6,11.5-1.9,10.1-2.5,10.7-12.9,10.1-0.9-.1-1.9-0.3-2.9-0.4-1.2.1-2.5,0.1-3.7,0.1l-11.9-1.2c-2.2,2.1-4.3,2.1-6.4,0-1.8-.2-3.7-0.5-5.6-0.7-8.2-.4-16.3-0.9-24.4-1.3-1.4-.4-2.7-0.7-4.1-1.1h-3.5c-5.2,3.5-10.4,6.9-14.7,9.8,0,10.1.5,19.4-.1,28.5-0.7,9.6-3,18.8-8.5,27.1-1.4,2.1-1.9,6.7-.6,8.3,4.3,5.3,3.5,11.1,3.8,17,0.3,6.6,1.3,7.7,7.3,8.2a16.76,16.76,0,0,0,5,0c8.5-1.5,15.5.9,21.9,6.7,4.8,4.4,12,6.9,17.5,4.2,9-4.5,18.1-2.6,27.2-3.2,0.9-.4,1.8-0.9,2.7-1.3,4.2-3.2,8.2-6.9,12.8-9.4,8.4-4.4,8.3-14.8,15.1-20.2,0.6-.5.6-2.8,0-3.8-2.9-5.2.2-8.8,3.1-12.5a92.67,92.67,0,0,0,6-8c2.9-4.6,6.1-7.6,12-9.2s12-6,16.4-10.7c2.6-2.8,2.5-8.5,3-13,0.9-7.4,6.2-12.1,14.6-11.3,5.3,0.4,10.4,2.3,15.6,3.3,2.9,0.5,6.4,1.6,8.7.5a148.94,148.94,0,0,0,21.3-12c6.4-4.3,7.1-5,12.9-.3,3.2,2.6,5.7,6.3,8.4,9.6,3.8,4.5,7.1,9.5,11.3,13.7a102.46,102.46,0,0,0,32.9,22.1c8.6,3.7,14.1,11,19.8,17.8,5,6,1.2,15.7-6.4,16.9-7.8,1.2-15.8,1.3-23.7,1.8-3.3.2-7.5-.2-8,3.9-0.2,2,2.7,5.1,4.9,6.4,6.5,3.9,13.3,7.4,20.2,10.8,5.3,2.6,9.6.6,9.6-5.5s2.6-9.2,8.1-10.7a12.37,12.37,0,0,0,4.4-2.3c5.6-4,9.9-15.6,7.5-21-1.2-2.8-3.5-5.9-.4-7.9,1.9-1.3,5.5-.2,8.3.1,0.9,0.1,1.6,1.4,2.5,1.5,2.1,0.2,4.3.1,6.4,0.1,0-2.5.9-5.7-.3-7.3-2.3-3.2-5.7-5.6-8.9-7.9-5.2-3.6-10.8-6.6-15.9-10.3a41.07,41.07,0,0,0-12.2-6.1c-6.4-2-13-5.7-16.1-12.4-2.5-5.2-5.4-9.8-10.2-13.2a14.06,14.06,0,0,1-4-4.4c-2.5-4-2-10.3.8-13s6.7-4.4,10-2.1c6.4,4.6,13,9.4,18.1,15.3,4.8,5.6,9.7,9.7,16.6,12,3.3,1.1,6.3,3.3,9.3,5.3,2.2,1.4,3.9,3.7,6.2,4.9,12,6.1,17.3,15.9,17.3,29.1,0,2.5.2,5.6,1.5,7.6,6.2,9.8,13,19.2,19.3,28.9,2,3,4.5,6.4,4.6,9.7,0.2,10.4,7.4,12.4,15.1,14.1,4.6,1,7.5-.3,9.1-5.2,4.2-12.5,9.8-24.7,3.3-38.1a5.33,5.33,0,0,1-.4-1.9c-0.9-6.5,5.2-15.8,10.3-16.1,8.8-.4,16.6,5.2,17.3,12.7a130.92,130.92,0,0,1,.4,14c-0.2,8.5,2.9,16,7.7,22.3,3,4,8,7,12.7,8.8,7.3,2.8,15.4,3.7,22.8,6.3,4.2,1.5,7.5,1.6,11.2-.9,2-1.3,5.1-2.7,7.1-2.1l-0.8-8.4Z" transform="translate(-1769.55 -210.37)"/><path d="M1833.5,409.4c-5.3-6.8-2.4-15.4-4.8-22.9,4.9-5.7,8.9-13.3,15.1-16.7,5.1-2.8,13.7-2.8,19.2-.3,5.8,2.6,11.3,9.1,11,16.4a50.29,50.29,0,0,0,8,29.2c0.7,1.1.7,2.9,1.7,3.6,7.6,5.7,10.9,13.7,13.4,22.4,0.5,1.6,3.4,2.9,5.5,3.5,9.5,2.6,13.3,8.8,3.3,16.9a20.88,20.88,0,0,0-2,2.2c-0.5.8-1,1.5-1.4,2.3,0.1,4.8-3.2,6.5-6.9,8.3-7.5,3.7-15.6,4.1-23.7,4.4l-2.4,1.2c-7.5-.7-14.6.6-20.9,4.9a13.84,13.84,0,0,1-2.7,1.4c-3.4,1.6-7.6,3.2-10.1-.1-1.5-2-1-6.1-.4-9.1,1.9-9.1,3.9-18.1,6.6-27,1-3.2,4-5.7,6.1-8.6a1.91,1.91,0,0,0,1.5-.4l4.8-.3a1.35,1.35,0,0,0,1.6-.7c4.2-.8,4.4-3.9,3-6.8-2-4.1-3.8-8.8-8.9-10-4.9-1.2-11.1-7.7-11.1-7.7" transform="translate(-1769.55 -210.37)"/><path d="M1836,418c0.2,6.5,1.4,13.2-6.3,17-1.2.6-1.4,3.4-1.8,5.3-0.7,2.9-1,5.8-1.7,8.6-1.6,6.4-5.2,10.5-12.4,9.9-0.7.4-1.5,0.7-2.2,1.1-5.1,2.3-10.3,4.4-15.3,6.8-6.1,2.9-9.6,2.7-13.3-1.4-4.8-5.3-5.5-8.7-2.1-14,3-4.8,3.8-9.7,3.4-15.2-0.5-8-.1-7.5,7.3-10.2,4.5-1.7,8.3-5.2,12.4-7.8,2.8-1.7,5.6-3.3,8.4-4.9,3.7,0.1,7.5.1,11.2,0.2,4.2,1.5,8.3,3.1,12.4,4.6h0Z" transform="translate(-1769.55 -210.37)"/></g></g><g id="countries"><g id="france"><circle cx="140.65" cy="330.33" r="25" style="fill:#ff2b38;opacity:0.5;isolation:isolate"/><circle cx="140.65" cy="330.33" r="15.9" style="fill:#ff2b38"/></g><g id="finland"><circle cx="404.65" cy="109.53" r="25" style="fill:#ff2b38;opacity:0.5;isolation:isolate"/><circle cx="404.65" cy="109.53" r="15.9" style="fill:#ff2b38"/></g><g id="uk"><circle cx="105.95" cy="244.33" r="25" style="fill:#ff2b38;opacity:0.5;isolation:isolate"/><circle cx="105.95" cy="244.33" r="15.9" style="fill:#ff2b38"/></g><g id="spain"><circle cx="63.45" cy="412.83" r="25" style="fill:#ff2b38;opacity:0.5;isolation:isolate"/><circle cx="63.45" cy="412.83" r="15.9" style="fill:#ff2b38"/></g></g></svg>