<svg id="Calque_1" data-name="Calque 1" xmlns="http://www.w3.org/2000/svg" viewBox="0 0 506.04 272.25"><title>groenland</title><g id="world_map" data-name="world map"><g id="groenland"><path d="M1390.1,154.4c-2-.1-4-0.2-6.1-0.4a1.48,1.48,0,0,0-1.6-.7c-9-2.7-17.7.1-26.5,1.1a2.82,2.82,0,0,0-1.8.2h-4.3a3.72,3.72,0,0,0-1.8-.2l-4.1-.3a1,1,0,0,0-1.3-.5c-6.6-1.9-12-5.2-15.8-11.2-5.5-8.7-3.3-15.7,6.7-17.5,11.4-2.1,22.9-2.9,34.4-4.6,6.2-.9,12.3-2.5,18.4-3.9,1.3-.3,3.1-0.7,3.5-1.6,4.5-8.5,13-7.5,20.6-9.1,15.2-3.2,30.2-7.4,45.3-10.9a132.75,132.75,0,0,1,16.6-2.4c8.2-.9,16.5-1.5,24.7-2.2l22.7-1.8a25.58,25.58,0,0,0,20.3-.1c3.9-.1,7.8-0.3,11.7-0.4l12.4-.3h3.5c1.5-.3,3-0.7,4.5-1,11.1-1.6,22.3-3.1,33.4-4.7,1.5-.4,2.9-0.9,4.4-1.3l36,0.3c4.1,2,8.1,2.1,12-.4,5.3-.9,10.6-1.8,15.8-2.6,16.7,0,33.5.1,50.2,0.1,17.6,2.6,35,6.2,51.9,12.1,6,0.6,12,1.3,18.1,1.9,10,0,20,.1,30,0.1,1.2,0.4,2.4.7,3.6,1.1l2.4,5.7c-0.5.4-1,.9-1.5,1.3-5.1,1.9-10.1,3.7-15.2,5.6a0.76,0.76,0,0,0-1.1.4c-1.4.1-2.9,0.3-4.3,0.4-0.9.5-1.9,0.9-2.8,1.4-5.8,1.2-11.7,1.9-17.2,3.7-5.9,1.9-11.5,5-17.3,7.5s-9.3,6.1-8.8,12.8a19.26,19.26,0,0,1-5.4,15.4c-1.5,1.6-2.2,4-3,6.1-6.6,17.8-20,27.9-37.5,33.4l-1.8,1.2c-5.1,2.9-5.9,6.7-4.4,12.5,1.7,6.9,3.2,14.8-3,20.6a36.44,36.44,0,0,1-10.5,6.8c-11.3,4.5-22.8,8.6-34.3,12.8-0.8.4-1.5,0.8-2.3,1.2a367.94,367.94,0,0,1-48.8,8.1c-9.8,1-16.5,8.1-24.1,13.3a87.17,87.17,0,0,1-41.8,14.6c-4.9.5-9.7,1.7-14.6,2.5l-8.4,1.2c-6-.3-10,3.1-13.1,7.7-3.6,5.2-6.1,11.4-10.5,15.6-9.4,8.9-18.1,18.1-25.4,28.7-3,4.3-7.3,7.6-11.2,11.2-8,7.3-14.8,6.9-22.4-.7-2.5-2.5-5.6-4.2-8.5-6.2-0.8-.4-1.6-0.8-2.5-1.2h-6.4c-0.8.4-1.5,0.8-2.3,1.2-5.7,1.1-9-1.5-11.9-6.5-8.1-13.7-12.8-28.1-12-44.3,0.3-5.9-1.4-11.8-1.5-17.7-0.2-17.3,8.5-28,25.3-31.6,1-.2,1.9-0.5,2.9-0.7,1.1-.4,2.3-0.8,3.4-1.2,4.1-2.5,2.5-5.5.7-8.5-3.1-5.1-6.3-10.1-9.3-15.1-3.7-6.2-3.9-12.1-.4-18.7,6.2-11.7,4.5-22.3-3.5-31.2-4.6-5.2-10.3-6.9-16.9-6.4A62.78,62.78,0,0,0,1390.1,154.4Z" transform="translate(-1323.86 -77.9)"/><path d="M1761.7,267.2c2.9,2.7,5.9,5.3,8.7,8.1,4.1,4.1,4.4,6.9.4,11a22.93,22.93,0,0,1-8,5.5c-5.6,2.1-11.4,3.4-17.1,5-0.6.4-1.2,0.7-1.8,1.1a3.4,3.4,0,0,0-1,.1c-8,3.1-15.7,7.9-24,8.9-7.9.9-16.2-2.6-24.3-3.3-7.2-.6-11.3-3.8-14.2-10.3-2.3-5.2-6.2-9.8-9.6-15,5.5-10.2,14-13.9,25.7-10.8,3.7,1,7.7,1.3,11.5,1.9a2.49,2.49,0,0,0,1.7-.3h14.4c0.7-.4,1.5-0.7,2.2-1.1l31.5-2.1C1759.2,266.4,1760.5,266.8,1761.7,267.2Z" transform="translate(-1323.86 -77.9)"/></g></g></svg>