<?xml version="1.0" encoding="utf-8"?>
<!-- Generator: Adobe Illustrator 21.0.0, SVG Export Plug-In . SVG Version: 6.00 Build 0)  -->
<svg version="1.1" id="world_map" xmlns="http://www.w3.org/2000/svg" xmlns:xlink="http://www.w3.org/1999/xlink" x="0px" y="0px"
	 viewBox="0 0 4200 2085" style="enable-background:new 0 0 4200 2085;" xml:space="preserve">
<g id="north_america">
	<path d="M1267.8,417.3c5.3,2.5,11.7,4,10.8,12.1c-0.1,0.7,0.8,1.9,1.6,2.4c12,7.2,5.9,17.4,4.4,26.7c-1,6.1-3.7,12-5,18.1
		c-1.5,6.9,0.8,10.4,7.1,13.3c8.6,3.8,8.7,3.9,5.2,11.9c-3.2,7.4-1.8,14.3,2.2,20.8c-1.3,2.4-2.4,4.4-3.5,6.4
		c-2.4,4.5-6.2,6-10.9,4.6c-7.9-2.4-15.7-5-23.5-7.6c-4.9-2.6-9.9-2.4-14.8-0.1c-7.5-0.5-15.1-1.1-23.1-1.7
		c0.5-8.4,2.9-14.6,7.9-19.8c2.8-2.8,5.7-5.8,7.5-9.2c1.1-2.2,1.1-5.9,0-8.1c-0.7-1.4-4.7-2.2-6.7-1.6c-8.8,3-17.5,2.1-26.5,1.2
		c-7.4-0.8-15.2,0.7-22.7,1.9c-4.4,0.6-7.1,3.5-6.2,8.6c1.2,6.9-1.7,11.8-6.3,16.8c-3.2,3.5-5.6,8.4-6.7,13.1
		c-2.2,9.4,2.2,15.2,11.7,17.2c4.2,0.9,8.5,1.4,12.7,2.4c3.8,0.9,6.6,3.2,6.8,7.5c0.2,5-3.4,5.8-7.2,6.4
		c-10.4,1.8-20.9,3.4-31.2,5.6c-3.3,0.7-6.6,2.8-9.4,4.9c-3.2,2.4-5.5,5.8-8.7,8.2c-4.7,3.5-9.2,2.7-11.2-2.7
		c-1.9-5.2-5.4-6.5-9.9-6.5c-8.1,0-15.8-0.9-23.5,5c-4.8,3.7-12.1,4.6-17.2,9.2c-4.6,4.2-8.6,8.4-8,15.2c0.3,3.9-1.9,6.3-5.3,7.5
		c-5.6,2-11.1,4.8-16.9,5.7c-12.8,2.1-22.8,7.9-31,17.9c-7.1,8.8-15.3,16.6-22.7,25.2c-6.6,7.6-11.9,15.9-14.4,25.9
		c-1.6,6.4-5.7,11.7-9,17.4c-5.4,9.3-13.8,12.7-22.2,16.7c-15.3,7.4-29.4,16.8-42.8,27c-15.7,12-20.9,28.4-16.3,47.8
		c2.5,10.3,5.6,20.5,4.8,31.4c-0.6,8.9-4.3,16-11.3,21.4c-4.9,3.8-7.6,2.7-11.2-2.6c-6.3-9.3-10.3-19.4-12.3-30.3
		c-0.7-3.6-1.1-7.3-0.8-10.9c1.3-14.5-3.8-19.6-18-17.9c-1.3,0.2-2.6,0-4.5,0c-1.2-1.6-2.4-3.5-3.8-5.3c-3.8-5-8.8-6.9-14.9-5.6
		c-5.8,1.2-11.7,2.6-17.5,3.8c-5.7,1.2-9.5,4.9-12.3,9.5c-1.8,3-3.9,4.3-7.3,3.8c-5.4-0.5-10.8-1-16.2-1.5c-8.6-2.1-17.1-4.8-25.9-6
		c-3.8-0.5-8.3,1.8-12.2,3.6c-6.9,3.2-13.7,6.7-20.3,10.5c-6.9,3.9-13.6,8.1-20.1,12.6c-5.2,3.7-7.7,9.3-7.4,15.6
		c0.2,7.3-2.3,13.5-5.2,20c-7.6,16.8-12.4,33.8-10,53c1.1,8.7,3.4,16.5,5.7,24.7c3.8,13.2,14.1,16.6,25.4,19.2
		c2.5,0.6,5.3,0.1,7.9,0.1c8.8-0.4,17.6-0.9,26.4-1.3c4.7-0.9,7.4-4,8.9-8.4c2.2-6.6,4.9-13,6.4-19.7c1.1-5.2,3.3-8.4,8.4-9.8
		c8-2.1,15.9-4.2,23.9-6.3c2.8,0.4,5.5,0.9,8.3,1.3c1.3,0,2.5,0,3.8,0c0.7,0.1,1.5,0.1,2.2,0.2c5.1,6.1,5.5,7.2,1,12.5
		c-3.2,3.8-4.3,7.8-5,12.6c-1.5,10.2-5.1,19.9-11.4,28.4c-3.5,4.7-5.8,9.6-6.2,15.5c-0.5,8.9,2.8,13,11.6,13.4
		c5.9,0.3,12,0.2,17.8-0.6c11-1.5,19,4.8,27.3,10c1.4,0.9,2.2,3.3,2.4,5.1c0.3,3.3,0.6,6.8-0.1,9.9c-2.8,11.6-5.6,23.2-9.2,34.6
		c-5.7,18.3,3.1,35.6,21.5,40.8c3,0.9,6.5,0.3,9.7,0.4c3.6,0,7.1,0,12.2,0c-0.7,4-1.1,7.4-1.8,10.7c-0.5,2.5-1.6,4.9-1.8,7.4
		c-0.2,3.2-0.6,6.6-4.1,7.1c-3.4,0.4-8.4,0.6-10.2-1.3c-5.1-5.8-11.2-7.8-18.3-8.8c-4.6-0.6-9.3-2.5-11.2-7.3
		c-3-7.5-9.6-11.4-16.2-13.9c-10.1-3.9-13.8-11.5-16.2-21c-1.6-6.3-3.9-12.7-6.9-18.4c-3.2-6.1-8.8-9.3-15.8-10.9
		c-11.9-2.8-24-5.7-35.2-10.5c-6.7-2.9-12.1-9.1-17.7-14.3c-3.9-3.6-6.9-8.1-10.7-11.8c-5.8-5.6-12.3-9.1-20.7-5.3
		c-2.7,1.2-5.8,1.6-8.7,2.4c-0.9,0.3-1.7,0.7-2.6,1c-1.7,0-3.5,0-5.2,0c-2.1-0.4-4.3-0.9-6.4-1.3c-14.2-5.8-28.4-11.6-42.5-17.5
		c-2.7-1.1-5.8-2.4-7.7-4.5c-5.5-5.7-12-9.2-19.5-11.5c-1.3-0.4-2.6-0.9-3.5-1.9c-5.5-5.7-11.1-10.8-18.5-14.5
		c-6.4-3.2-8.6-17.3-5-24.7c4.6-9.3,3.7-17.8-2.3-26.2c-2.3-3.2-4-6.9-5.7-10.4c-4.9-10-10.7-19.2-20.1-25.6c-3.9-2.6-6-6.1-5.4-11
		c0.2-1.9,0.3-4.2-0.5-5.8c-5-10-9.5-20.5-15.8-29.6c-5.2-7.5-8.4-14.8-7.8-23.9c0.3-4,0.1-8-0.1-12c-0.2-3.6-1.5-6.7-5.7-6.8
		c-3.8-0.1-6.6,2.2-7.3,5.7c-0.7,3.8-1.1,8.2,0,11.8c4.2,14.3,4.8,29.5,11.2,43.4c3.8,8.3,6,17.7,7.4,26.8c1,6,4.5,10.1,7.1,15
		c1.8,3.3,2.9,7.3,3,11.1c0,1.9-2.8,4.6-4.8,5.4c-1.4,0.5-4.2-1.2-5.7-2.6c-5.6-5.2-11.1-10.4-16.2-16.1c-2.1-2.3-3.5-5.6-4.4-8.6
		c-1.1-3.5-1.5-7.2-1.7-10.8c-0.3-4.4-2-7.1-5.9-9.5c-4.5-2.7-8.4-6.5-11.9-10.5c-4.3-4.8-3.3-9.6,2.1-13.1
		c6.5-4.2,7.8-7.6,2.8-13.5c-7.2-8.5-8.9-18-9.1-28.7c-0.2-9.6-1.5-19.3-3.2-28.7c-1.9-10.4-9.2-16.6-19.1-19.4
		c-9.4-2.6-10.1-3-10.1-12.8c-0.1-12.9-3.8-25.7-0.8-38.6c0.1-0.6-0.1-1.4-0.4-1.9c-6-9.1-5.6-18.9-2.7-28.7c1.1-3.7,2-7.7,4.2-10.7
		c5.3-7.3,9.6-14.8,12.8-23.5c2.5-6.9,8.5-12.5,13.1-18.5c9-11.9,18.6-23.5,27.1-35.8c4.3-6.2,6.6-13.7,10.1-20.5
		c4.6-8.9,2.7-16.7-3.5-24c-1.5-1.8-3.1-3.6-4-5.7c-2.5-5.7-2.7-10.6,1.5-16.6c6.3-9.1,10.8-19.1,9.5-31.4
		c-1-10.1-0.2-20.8,2.1-30.7c3.5-15.3-3.5-26.9-10.4-38.9c-1.1-2-3.5-3.4-4.2-5.5c-4.3-11.4-13.2-16-24.5-17.6
		c-7.9-1.2-15.7-2.4-23.4-4.3c-4.7-1.2-9.3-3.5-13.7-5.8c-6.4-3.3-12.8-3.3-19.2-0.5c-1.7,0.8-4.1,2-4.6,3.5
		c-1.8,6.4-7.1,7.5-12.2,8.9c-10.9,3-21.8,6-32.7,8.9c-1.3,0.3-2.8,0.9-3.9,0.4c-13.4-4.9-24.9,2.3-36.4,6.5
		c-28.1,10.3-55.8,21.8-83.6,33c-4.6,1.9-8.6,5.2-13.1,7.2c-4.2,1.8-8.7,3-13.2,3.9c-5.1,1-8.1-1.7-9.7-7.2c2.4-1.5,4.8-3.4,7.4-4.6
		c12.6-6,25.3-12,38-17.6c4.5-2,7.8-4.7,10-8.5c-2.1-7.4-8.2-5.1-13.9-6.6c-2.6-4.7-5.8-10-8.4-15.7c-1-2.2-1.7-6.6-0.5-7.5
		c4.9-3.9,4.8-10,8-14.4c2-2.8,5.3-4.9,8.4-6.4c6.6-3.1,13.5-5.6,20.3-8.1c7.4-2.8,15.1-4.8,22.3-8.1c8-3.6,17.2-5.2,23.8-12.5
		c-5.5-9-14.1,0.5-21.1-4.6c1.1-4.7,1.6-10.4,3.8-15.3c1-2.4,4.9-4.3,7.9-4.9c10.4-2.3,20.9-3.8,31.4-5.8c2.6-0.5,5-1.5,7.5-2.2
		c8.5-2.5,13.9-7.2,13.8-17c-0.1-4.3,2.7-7.5,7-8.7c5.7-1.6,11.5-3.1,17.3-4.4c5.2-1.2,10.6-1.4,15.6-3.1c12.9-4.4,25.5-9.4,38.4-14
		c5-1.8,10.1-3.6,15.3-4.3c8.9-1.2,17.8-2,26.8-2.3s17.8,0.3,26.5-3.4c3.1-1.3,7.3-0.6,10.8,0.1c9.2,1.6,18.2,3.7,27.3,5.7
		c4.8,0.5,9.5,1,14.3,1.5c6.7,1.3,13.3,2.7,20,4c0.7,0.1,1.4,0.1,2.1,0.2c3.2,0.1,6.4,0.1,9.6,0.2c4.8,2.7,9.6,2.6,14.4,0
		c1.9,0,3.8-0.1,5.7-0.1c0.8,0.5,1.6,0.9,2.3,1.4c2.3,0.3,5.1-0.1,6.7,1.2c9.5,7.2,21.6,4.7,31.8,9.1c7.4,3.2,14.1-0.7,21.1-2.2
		c4.1-0.4,8.2-0.8,12.4-1.3c10.8-1.7,21.6-3.5,32.5-5c4.6-0.7,9.2-1.2,13.9-1.2c7,0,13.7,0.4,20.5-2.8c3.1-1.5,7.7-0.3,11.6,0.1
		c6.6,0.6,13.1,2.3,19.6,2.3c13.7,0,26.5,3.3,37.9,10.7c4.8,3.1,9.5,4.5,15,3.8c5.1-0.7,10.2-0.4,14.3,3c13.7,11.4,29,9.4,44.6,6
		c11-2.4,22-4.9,33.2-6.6c6.3-0.9,12.8,0.3,17.5,5.3c5.1,5.5,11.5,6.4,18.3,6.1c9.9-0.4,19.9-1.1,29.8-1.8c1.9-0.1,3.7-1.3,5.5-1.9
		c1.3-0.6,2.5-1.2,3.8-1.8c1.3,0,2.6,0.1,3.9,0.1c2.7,2.1,5.4,2,8.1-0.1c2,0.2,4,0.4,6,0.6c2,0.3,3.9,0.7,5.9,1.1
		c12.8,0.6,17.6-4.1,15.2-16.2c-1-4.9,0.2-8,3.2-11.7c8.4-10.2,20.3-13.4,32-16.8c4.3-1.3,8.1,3.1,9.7,9.1
		c1.5,5.7,3.5,11.3,5.6,16.9c2.3,6.2,7.7,6.6,13.2,6.5c5.6-0.1,9.5-3.1,11.8-7.7c0.9-1.9,0.2-5.1-0.7-7.3
		c-3.4-7.6-1.3-13.6,4.9-18.6c6.5-5.2,12.7-11,19.8-15c5.3-2.9,11.9-3.7,18-4.8c4.2-0.7,8.6-0.3,13-0.4c20.2-0.6,40.4-1.4,60.6-1.8
		c4.6-0.1,9.2,1.1,13.8,1.9c5.3,0.9,8.8,3.6,10.7,9.1c3.2,9.2,10.5,13.7,19.9,16.2c7.2,2,14.1,5.6,20.7,9.3
		c5.3,2.9,7.8,8.1,6.9,14.4c-1.4,10.6,5,16.8,13,21.4c4.7,2.7,7.9,5.7,9.6,10.7c2.7,7.9,2.1,10.3-4.3,15.5
		c-4.4,3.6-8.8,7.1-13.2,10.6c-5.9,4.6-10.6,4.3-15.8-1.1c-3-3.1-5.3-6.9-8.6-9.6c-1.7-1.4-4.7-1.4-7.1-2c-0.2,2.4-1.1,4.9-0.5,7.1
		c0.7,2.8,2.5,5.4,3.8,8.1c4.7,9.4,3.1,16.6-5.1,22.7c-5.9,4.3-12.2,8-17.6,12.9c-4.4,4-9.1,5.1-14.6,4.6c-1.3-0.5-2.5-1-3.8-1.6
		c-5.9-2.4-11.7-4.7-17.6-7c-6.4-2.5-11.8-5.7-13.8-13.1c-1.2-4.3-3-9-8.3-10.5c-1.6,0-3.1,0.1-4.7,0.1c-7.9-0.1-15.7-0.2-23.6-0.3
		c-4.1-0.5-8.2-1-12.3-1.5c-3.7-4.7-0.1-8.1,2.5-11.2c3.5-4.1,7.7-7.3,13.6-6.4c2.6,0.4,5.1,1.1,7.7,1.6c0.7,0.3,1.3,0.7,2,1
		c4.9,0,9.8,0,14.6,0c0.6-0.3,1.3-0.6,1.9-1c0.3-0.1,0.7-0.2,0.9-0.4c6.3-8.7,16.1-13.1,24.3-19.3c1.6-1.2,3.1-2.5,4.2-4.1
		c2.9-4.3,2.5-7.7-2.1-9.8c-5.3-2.4-9-5.8-12.4-10.6c-2.2-3-7.3-4-11.1-5.9c-1.4-0.5-2.8-1-4.2-1.4c-5.1,0.3-10.3,0.6-15.4,0.8
		c-0.9-0.3-1.7-0.7-2.6-1c-1.8,0-3.7,0.1-5.5,0.1c-0.8,0.5-1.5,1-2.3,1.5c-0.9,0.5-1.9,0.8-2.6,1.5c-6.2,7.2-12.3,14.5-18.5,21.6
		c-2.5,2.9-5,5.9-7.9,8.4c-2.7,2.4-6.3,3.8-9,6.2c-5.3,4.5-11.3,6.8-18.2,6.7c-1.3,0.5-2.6,1.1-3.8,1.6c-4.7,7.7,0,13.3,4.1,19.1
		c1.4,2,3.5,4.4,3.3,6.4c-0.4,3.8-3.9,5.4-7.4,4.6c-4.1-0.9-8-2.7-12-4.2c-0.9-0.1-1.8-0.1-2.7-0.2c-6,2.5-12.2,4.6-18.1,7.6
		c-4.9,2.5-8.3,3-13.2-1c-11.8-9.6-26.7-8.4-38.8,1c-6.9,5.3-13.5,12-23.4,11.1c-2.2,0.4-4.4,0.9-6.5,1.3c-7.3,3-15.2,5-21.9,9.1
		c-9.6,5.9-18.5,13-27.3,20.1c-5,4.1-7,9.3-2.7,15.8c1.9,2.8,1.9,6.9,2.6,10.5c0.9,5,3.2,7.9,8.7,9.3c9.3,2.3,17.6,6.1,24.6,14
		c5,5.6,13.6,7.9,20.6,11.7c5.4,0.6,10.8,1.2,16.2,1.8c4.5,1.5,9,2.9,13.9,4.5c-5.1,9-9.4,16.8-13.9,24.5
		c-3.6,6.2-2.7,12.2,0.7,17.8c3.1,5.2,6,5.7,11.6,3.1c3-1.4,6.1-2.7,8.8-4.6c2.3-1.7,5.2-3.8,6-6.4c2.3-7.8,4.2-15.9,5.2-24
		c0.6-4.6,1.9-7.3,6.2-9c5.3-2,10.4-4.3,15.6-6.4c1.3-0.5,2.5-1,3.8-1.5c9.9-4.7,19.9-9.2,25.4-19.8c3-5.8,4.3-10.7-0.7-16.3
		c-5.1-5.7-3.9-8.6,3.1-12.1c2.4-1.2,4.8-2.2,7.2-3.4c5.7-2.7,9-7.3,8.8-13.4c-0.2-5.9,1.6-10.3,6-14c1-0.8,2-2.2,2-3.3
		c0.2-8.3,6.8-10.8,12.4-14.2c2.5-0.1,5-0.2,7.5-0.3c6,0.3,11.9,0.6,17.9,0.9c0.7,0.4,1.5,0.7,2.2,1.1c10.2-0.4,17.4,4.7,23.5,12.2
		c2.5,3,5.9,5.2,9.1,7.5c5.9,4.2,6.3,5.5,3.2,12.3c-0.8,1.8-1.9,3.5-2.6,5.4c-2.5,6.4-1.5,10.3,3.3,14.1c5.2,4.1,7.6,3.4,14.2,0.1
		c10.7-5.4,20.5-11.9,29.7-19.5c0.7-0.5,1.3-0.9,2-1.4c13.1,6.8,16.3,19.1,17.5,32.2c0.6,6.5,0.2,13.2,0.1,19.8
		c0,7.3,2.5,13.4,8.4,18C1265.3,416.4,1266.5,416.8,1267.8,417.3z"/>
	<path d="M812.1,895.5c1.5-10.9,8.8-15.6,16.3-18.6c7.6-3.1,16.1-3.8,24.2-5.5c1.3-0.3,2.7-0.4,4-0.1c16.8,4.1,33.9,8,47,20.1
		c8,7.3,17.4,12,26.5,17.3c4,2.3,8.2,4.4,12,7.1c4,2.9,3.9,5.6-0.1,8.7c-5.2,4.1-11.1,5-16.8,1.7c-5.2-3.1-9.9-4.3-15.9-2.5
		c-5.6,1.7-6.9,0.2-9-5.9c-0.6-1.8-1-4.4-2.4-5.3c-12.4-7.6-21.9-20.8-38.6-20.6c-2.2,0-4.6-0.9-6.7-1.7c-6.9-2.6-13.4-2.4-20.3,0.3
		C826.2,892.8,820.2,895.8,812.1,895.5z"/>
	<path d="M935.2,946.2c6.3-10.6,15.6-5.9,21.8-9.3c3.4-6.7-8.6-8.8-4.6-15.9c8.8,0,17.6,0,26.3,0c1.3,0,2.8,0.1,3.9,0.6
		c9,4.1,18,8.1,26.7,12.8c2,1.1,3.8,4.6,3.9,7c0.1,3.5-3.2,4.4-6.4,5c-8.4,1.6-16.7,4-25.1,5.2C966.4,953.7,951.8,949.5,935.2,946.2
		z"/>
</g>
<g id="south_america">
	<path d="M1317.5,1240.7c6.2,2.4,12.4,4.9,18.6,7.3c1.9,0.5,3.8,1,5.7,1.6c4.8-0.1,9.6-0.2,14.4-0.3c1.8,0,3.6,0,5.4,0
		c11.7,3,20,11,28.3,19.1c3.7,3.6,8.3,6.4,12.4,9.5c1.8,0.5,3.6,1.1,5.4,1.6c5.2,2.6,12.2,1.2,15.9,7.2c4.9,7.8,8,16.2,8.1,25.4
		c0.4,22.1-7.9,40.8-23.2,56.6c-2.7,2.8-4.7,6.3-6.8,9.6c-3.4,5.3-5.8,11.5-10,16c-11.2,11.9-11.7,25.6-7.7,40
		c1.6,5.6,2.6,10.7,0.9,16.5c-1.1,3.7-0.8,7.9-1.2,11.9c-0.3,2.6,0.1,5.9-1.3,7.7c-4.9,6.4-3.8,13.7-4.6,20.9
		c-0.8,6.3-3.9,12.7-7.1,18.3c-2.7,4.8-5.1,9.2-4.5,14.9c0.4,4.2-0.8,7.9-4.8,10.2c-1.1,0.7-2.7,1.4-3.1,2.4
		c-3.9,10.1-13.1,10.3-21.5,10.7c-8.3,0.4-15.5,2.9-22.4,7.3c-3,1.9-6.7,2.8-9.9,4.5c-6.7,3.6-13.6,6.9-19.8,11.3
		c-10.7,7.7-9.4,18.7-7.4,29.9c1.2,6.5,2,13.1,2.5,19.7c0.3,4.5-1.4,8.4-5.3,11.3c-1.6,1.2-2.8,2.8-4.3,4.2
		c-6.3,6.2-4.4,16.8-12.5,22.1c-7.5,4.9-9.3,13.4-12.4,21.1c-3.7,8.9-7.1,18-11.7,26.4c-3,5.4-7.3,10.6-12.3,14.2
		c-9.6,7-12.9,17.4-17.3,27.4c-0.7,1.5-1.3,3.2-1.4,4.8c-0.7,14-10.3,19.8-21.7,24c-2.5,0.9-5.1,1.6-7.6,2.5
		c-7,2.6-11.7,7.3-13.3,14.9c-0.8,3.5-1.5,7.4-3.5,10.3c-5.4,7.8-9.4,16-10.6,25.5c-0.2,1.6-0.9,3.3-1.9,4.5
		c-5.1,6.1-8.7,12-6.2,20.8c0.8,3-2.3,7.4-4.2,10.8c-5.6,9.6-2.8,20.1,7,24.9c10.5,5.1,12.1,13.9,3.8,22.3
		c-4.5,4.6-9.2,8.8-8.3,16.1c0.1,0.9-0.5,2-1,2.8c-7.2,10.6-2.1,19.4,5.9,26c3,2.4,6,5.5,7.5,8.9c7.1,16.3,20.8,23.3,36.7,27.7
		c3.4,0.9,7.1,1.9,9.8,3.9c1.5,1.1,2.1,4.8,1.5,6.9c-0.4,1.5-3.4,3.4-5.1,3.3c-7.9-0.3-15.8-1.2-23.7-2c-4.9-0.5-9.8-1.7-14.8-1.8
		c-5.8-0.1-9-2-10.7-8c-3.1-10.9-14.4-16.9-25-13.3c-11.8,4-18.9-2.7-26.3-9.7c-11.3-10.8-16.3-25.6-24.2-38.6
		c-1-1.7-1.4-3.9-2.6-5.4c-7.1-8.7-8.2-19.4-10.3-29.8c-0.9-4.2-1.4-8.8-3.6-12.3c-4.4-7.1-5.7-14.6-6.9-22.6
		c-2.2-14.9-6.4-29.5-16.8-41c-7.1-7.9-10.2-17.2-12-26.9c-2.6-14.1-5-28.1-11.6-41.1c-1-1.9-1-4.6-0.8-6.8
		c1.2-10.9,2.8-21.7,3.9-32.6c0.8-8.2,1.9-16.6,1-24.7c-1.2-10.1-4.4-20-6.7-30c-3.6-15.6-6.9-31.2-2.8-47.3c0.5-1.9,0.6-4,0.5-6
		c-0.8-13.3-1.6-26.5-2.5-39.8c-0.3-5-1.1-9.9-1.4-14.9c-0.8-16.3-1-32.6-2.1-48.8c-1.2-17-6-31.8-21.5-42.7
		c-12.4-8.7-25.2-16.1-39.4-20.9c-8.4-2.8-12-10.3-17.4-15.9c-5.6-5.9-11.9-11.9-12.1-21.1c-10.7-16-17.7-34.3-30.7-48.9
		c-3.8-4.3-6.7-9.9-8.5-15.4c-3.6-11.4-8.3-21.9-18.4-28.9c-10.9-7.6-12.7-19-13.4-30.7c-0.2-3.5,2.2-7.6,4.6-10.6
		c6.2-7.7,9-15,3.3-24.5c-2.3-3.9-2.4-9.6-2.3-14.5c0.3-14.5,4.7-27,16.2-37c5.9-5.2,9.4-13,15.3-18.2c4.9-4.3,9.5-8.8,11.5-14.7
		c5.7-16.3,8.2-32.8,0.5-49.4c-2.3-5-4-10.4-6-15.6c-0.3-0.9-0.6-2.2-1.3-2.5c-7.3-2.9-4.2-8.5-4-13.7c5-2.7,9.9-1.9,14.7-0.9
		c10.1,1.9,21.7-4.2,24.3-14.1c3.5-13.3,13.8-18,25.3-20.5c8.8-1.8,16.4-4.9,22.9-11.1c1.7-1.6,4.6-3.2,6.8-2.9
		c7.2,0.8,14.7,1.5,21.3,4.2c7.9,3.2,14.8,8.6,22.4,12.6c4.3,2.3,9.1,3.8,13.6,5.6c4.1,0.6,8.2,1.1,12.2,1.7
		c11.7,7.8,16.1,7.7,27.8-0.4c6.1-0.5,12.2-0.9,18.3-1.4c6.5-0.8,12.7-3.3,19.4,0c5.7,2.8,7.1,4.4,5.8,10.6
		c-0.3,1.3-0.9,2.5-1.3,3.8c-2.7,8.9,0.1,16.2,8.7,19.3c8.8,3.1,14.2,9,18.7,16.8c7.3,12.5,17.8,20.6,33.1,19.2
		c12.1-1.1,22.8,3.6,33.9,6.8c2.3,0.7,4.3,2.9,6.3,4.6c4.2,3.7,8.1,7.8,12.5,11.1c5.5,4.2,7,10.5,8.5,16.5c2,8.1,4.1,15.9,9.6,22.6
		c1.9,2.3,2.3,6.1,3.2,9.2c2.5,8.8,6.5,15.6,16.5,17.9c6,1.4,11.6,4.7,17.4,7.1c1.1,0.5,2.3,1,3.4,1.5c14.2,6.9,28.4,13.7,42.7,20.6
		C1316.6,1240.5,1317,1240.7,1317.5,1240.7z"/>
</g>
<g id="africa">
	<path d="M1670.1,939.9c-3.1-9.9-6.5-19.7-9.2-29.6c-0.9-3.3,0-7.1,0-10.6c0.3-0.4,0.4-0.9,0.2-1.4c2.2-5.1,4.7-10.1,6.4-15.4
		c3.9-12.2,12.5-21.7,18.8-32.4c1.8-3.1,3.3-6.5,4.1-9.9c1.9-7.8,5.3-13.7,12.9-17.7c3.6-1.9,6.1-7.2,7.4-11.5
		c1.9-6.5,6.4-9.3,11.9-10.5c5.1-1.1,8-4.2,10.9-7.9c5.3-6.7,11.3-12.8,16.3-19.8c2.8-3.9,4.3-8.9,6.2-13.4c3.1-7.3,6-14.6,9-21.9
		c0.2-0.6,0.7-1.2,1.3-1.5c8.4-4.6,13-14.1,22.7-17.1c4.6-1.5,7.7-4.8,9.4-9.6c1.1-3.1,3.4-5.7,5-8.6c6-10.6,9.9-11.5,20.4-4.9
		c0.7,0.4,1.4,0.8,2,1.2c4.8,0,9.7,0,14.5,0c1.2-0.4,2.4-0.8,3.6-1.3c10.8,0.9,20.6-2.8,30.3-6.6c1.1-0.5,2.2-1,3.3-1.5
		c4.4-5.4,10.2-8.6,16.7-10.7c1.2,0,2.3,0.1,3.5,0.1c3.5,0,7,0,10.4,0c0.7-0.4,1.4-0.8,2.1-1.2c3.4-0.5,6.8-1,10.2-1.5
		c0.6,0.1,1.1-0.1,1.4-0.6c0.7-0.1,1.4-0.3,2.2-0.4c1.5-0.5,3-0.9,4.5-1.4c6.1,0.7,12.2,1.7,18.4,2c2.8,0.2,5.6-0.8,8.4-1.3
		c4.8-0.8,9.6-1.6,14.3-2.5c6.8,2.1,13.6,2.5,20.4-0.3c5.8-0.8,11.7-2.3,17.5-2.3c5.7,0,8.8,4.1,8.8,9.9c0,6,0.1,12-0.3,17.9
		c-0.2,2.9-1.1,5.9-2.4,8.5c-4.3,9.1-2.3,16.5,6.4,21.6c7.3,4.2,14.8,7.4,23.7,6c3.6-0.6,7.4-0.4,10.9,0.4c7.4,1.6,14,4.4,16.1,12.9
		c1.4,5.7,5.5,8.1,11.1,8.2c9.1,0.1,16.7,3.5,23.8,9c2.5,1.9,6,3.2,9.1,3.4c6.5,0.3,9.6-4,8.4-10.4c-2.4-12.5,2.1-18.4,14.8-21.7
		c8-2.1,16.6-4.5,23.1,0.7c8.9,7.2,20.8,7,29.3,14.3c1.3,1.1,3.8,0.8,5.7,1.2c11.7,2.5,23.5,4.5,35,7.6c5.2,1.4,9.2,2,14-1.4
		c10.6-7.4,18.5-8.4,32.8,1.2c12.3,8.3,15.5,20.4,17.8,33.1c1.4,7.6,5.5,15.1,2.9,23.4c-0.5,1.7,1.4,4.3,2.4,6.3
		c6.4,13.2,12.5,26.5,19.3,39.4c3.7,7,7.8,14.1,13.2,19.8c8.3,8.7,12.8,19.3,13.9,30.3c1.5,14.5,7.8,25.9,16.9,36.2
		c6.3,7.1,9.2,15.2,10.1,24.4c0.8,8.8,4.7,17.1,12.9,19.7c12.8,4,19.4,14.2,27.9,22.7c2.8,2.8,5.6,5.8,7.9,9c3.2,4.5,7,8.5,7.2,14.9
		c0.3,11.6,11.9,19.8,23.1,16.8c14.4-3.8,28.7-8,43-11.8c8.3-2.2,17.1-1.8,24.9-6.5c1.6-1,5.3,1.4,7.3,2.1c0,8.8,0.2,16.3,0,23.9
		c-0.5,15.2-9.3,27.5-14.7,40.9c-4.7,11.7-10.5,23-16.1,34.4c-8.6,17.6-19.4,34.5-36.3,44.1c-19.8,11.2-32.1,28.4-45.2,45.5
		c-4.4,5.8-9.6,11-14.4,16.5c-1.1,1.3-2.4,2.3-3.4,3.7c-8.9,12.5-14.8,26.7-20,40.8c-2.4,6.7,1.2,15.6,2.1,23.5
		c0.6,5.3,2,10.6,1.4,15.8c-1.3,11.6,2.2,21.9,8.4,31.1c6.4,9.4,6.1,19.3,5.3,29.7c-0.7,8.9-2.2,17.9-1.4,26.7
		c1.7,18.2-6,31.7-19.6,42.3c-6.2,4.9-13.5,8.4-20.4,12.4c-1.7,1-4.1,1.2-5.4,2.5c-8.3,8.4-16.9,16.6-24.4,25.8
		c-6.5,7.9-5.6,17.6-2.2,26.7c4.8,12.6,2.6,24.8-0.9,37.1c-1.9,6.9-6.1,11.7-11.9,15.3c-2,1.2-3.9,2.5-6,3.7c-7.7,4.4-12,11-14,19.7
		c-1.8,7.7-4.6,15.3-7.4,22.8c-1.1,3-3,6-5.4,8.1c-8.4,7.3-14.5,16.3-20.1,25.9c-3,5-7.2,9.4-11.1,13.8c-2.8,3.3-6.4,5.9-9,9.3
		c-8.4,10.8-18.6,18-32,22.3c-11.9,3.8-23.4,6.9-35.9,6.9c-2.6,0-5.3,0.5-7.8,1.5c-9.5,3.5-19.3,5-29.3,4.9
		c-1.4,0.4-2.7,0.8-4.1,1.3c-3,0-6-0.1-9.1-0.1c-0.8-0.4-1.7-0.8-2.5-1.2c-2.3-1.3-4.5-3-7-3.7c-4.5-1.3-5.9-4.3-7.3-8.4
		c-3-8.6-4.6-17.2-3.7-26.3c0.2-2.6,0-5.4-0.7-7.9c-2.9-10.2-6.1-20.3-9.2-30.4c-1.4-4.6-3.7-8.2-7.9-11.1c-3.4-2.3-6.3-5.8-8.4-9.4
		c-5-8.4-10.2-16.7-10.1-27.4c0-7.5-2.5-15-3.4-22.6c-0.6-5.3-1-10.6-0.6-15.9c0.8-10.4-1.3-19.2-8.2-27.7
		c-5.7-7.1-8.8-16.2-13-24.5c-3.7-7.4-7.4-14.8-11-22.3c-1.3-2.7-3.3-5.6-3.1-8.3c0.7-10.2,1.6-20.5,3.5-30.5
		c1.8-9.4,5.6-18.4,7.3-27.8c1-5.6,2.9-10.2,6.8-13.9c10.9-10.6,12.7-22.8,6.7-36.4c-4.8-10.8-7.1-22-7-33.9
		c0.1-5.4-2.4-10.9-4.3-16.1c-2.3-6.5-6.1-12.6-7.4-19.3c-1.7-8.9-5.6-16.1-11.2-22.9c-7.3-8.7-14.3-17.5-21.1-26.6
		c-6.6-8.9-8.6-17.8-4.7-29.6c4.6-13.9,5.6-29.1,7.4-43.9c0.8-6.2-1.8-11-8.3-14.3c-9.4-4.8-18.6-6.5-28.8-4.4
		c-1.3,0.3-2.5,0.6-3.8,0.9c-1.8,0-3.6,0-5.4,0c-0.7-0.4-1.5-0.9-2.2-1.3c-4-2.3-5.6-5.9-6.8-10.2c-2.1-7.9-6-14.5-14.9-16.5
		c-0.8-0.5-1.5-0.9-2.3-1.4c-5.5,0.1-10.9,0.3-16.4,0.4c-0.5-0.2-1-0.2-1.5,0c-2.1-0.1-4.3-0.3-6.4-0.4c-0.8,0.4-1.6,0.9-2.4,1.3
		c-0.6,0-1.1,0.1-1.6,0.5c-1.4,0.5-2.8,1-4.2,1.5c-14.6,6.2-29.2,12.4-43.8,18.7c-0.6-0.1-1.2-0.1-1.7,0.2c-1.9-0.3-3.8-0.6-5.7-0.8
		c-0.8-0.4-1.6-0.8-2.3-1.3c-5.4-1.2-10.9-2.1-16.2-3.8c-5.2-1.7-9.6,0-14.2,1.8c-2.6,0.5-5.2,1-7.8,1.4c-8.1,2.9-16.2,5.8-24.2,8.7
		c-1.2,0-2.4,0.1-3.5,0.1c-7.3-5.1-14.6-10.4-22-15.4c-4-2.8-8.4-5-12.5-7.8c-3.2-2.2-6-5.1-9.2-7.2c-15.5-9.9-24.7-24.4-30.9-41.5
		c-1.7-4.8-5.4-9-8.6-13c-5-6.1-9.5-13.3-15.9-17.5c-7.7-5.1-12.4-11.9-16.6-19.4c-2.6-4.8-4-10.3-5.9-15.5c0.1-0.5-0.2-0.9-0.7-1
		c0-6-0.6-12,0.3-17.9c0.7-4,2.6-8.9,5.6-11.4c10.5-8.7,9.8-21.1,12.2-32.5c0.4-1.9,0.1-4,0.2-5.9
		C1670.2,941.8,1670.1,940.8,1670.1,939.9z"/>
	<path d="M2503.6,1385.1c1.8,2.7,3.1,4.2,4,5.9c6.3,12,8.2,25.2,10.1,38.4c0.8,5.8-0.6,11.2-3.7,16.2c-4.8,7.7-7.2,16-9.2,24.9
		c-2.8,12.5-8.1,24.5-12.4,36.8c-5.4,15.4-10.7,30.7-16.3,46c-2.5,6.9-5.5,13.5-8.3,20.3c-0.2,0.6-0.6,1.3-1.2,1.6
		c-8.4,4.7-17.2,10.2-26.8,7.9c-10-2.4-17.6-9.2-19.3-20.5c-0.6-4.3-1.9-8.5-2.2-12.8c-1-11.6-2.7-23,6.3-33.1
		c3.8-4.3,5.7-10.5,7.7-16.1c1-2.6,0.7-5.8,0.4-8.7c-0.7-6.9-1.7-13.8-2.6-20.8c-1.1-8.6,3.6-15.6,7.8-22.2
		c2.3-3.6,7.8-6.5,12.2-7.3c17.7-3.3,27.2-15.1,34.4-30.2c3.7-7.8,8.8-14.9,13.4-22.1C2499.2,1387.7,2501.2,1386.9,2503.6,1385.1z"
		/>
</g>
<g id="asia">
	<path d="M3741.1,280.9c-2.3-4.2-6-8.5-10.1-10.6c-9.4-4.9-19-9.2-29.9-10.8c-15-2.2-30.1-4.1-44.4-10.5
		c-12.6-5.6-26.3-9.3-39.8-12.4c-15.8-3.6-32-6.1-48.1-8.4c-17.1-2.5-34.2-4.4-51.4-6.4c-18.2-2.1-36.4-3.8-54.4,1.6
		c-3.1,0.9-6.6,0.7-9.9,0.7c-15,0-30,0.1-45-0.2c-9.3-0.2-18.7-1-26.1-7.9c-1.2-1.1-2.9-1.8-4.5-2.1c-17.6-3.3-35.1-7.9-53.3-5.7
		c-1.4,0.4-2.9,0.8-4.6,1.9c-6,0-11.9,0-17.8,0c-0.8-0.4-1.7-0.8-2.5-1.2c-1-0.1-2.1-0.1-3-0.4c-12.7-3.7-25.2-8.4-38.1-11.1
		c-12.6-2.7-25.6-3.4-38.4-5c-5.4-0.4-10.9-0.9-16.3-1.3c-5-0.4-10.1,0-14.9-1.1c-14-3.3-26.7-1.4-39.4,5.6
		c-13.4,7.3-27.7,11.4-42.7,3.5c-5-2.6-10.3-4.7-15.1-7.5c-9.3-5.4-18.5-9.5-29.9-9.2c-10.9,0.3-21.9-1.3-32.7-2.8
		c-26.5-3.7-52.8-5.9-79.2,0.5c-2.8,0.6-5.9,0.2-8.9,0c-6.6-0.5-13.2-1.5-19.8-1.9c-9.2-0.5-16.6-3.9-21.3-12.3
		c-3.9-6.9-9.5-12-16.9-14.9c-4.6-1.8-9.3-3.6-14.2-4.3c-18-2.4-36.3-2.6-54.2-6.5c-4.2-1-8.7-1.4-12.6-3c-14.2-5.8-27.2-3-40,4.2
		c-3.8,2.2-7.9,3.5-11.9,5.2c-5.4,0.6-10.7,1.3-16.1,1.9c-10.7,1.9-21.4,4.5-32.3,5.5c-12,1.2-22.7,6.4-32.4,11.9
		c-10.4,6.1-20.8,9.5-32.4,11c-3.4,0.4-8.1,1.5-9.7,3.9c-5.3,8.3-13.4,8.8-21.7,9.7c-7.2,0.8-14.4,1.9-21.5,3.2
		c-6.8,1.2-13.1,1.5-18.9-3.2c-2.5-2-5.9-2.8-8.9-4.2c-4.8-0.1-9.6-0.1-14.4-0.2c-0.7,0.1-1.3,0.2-2,0.3c-10.2,2-10.2,2-11.8,12.3
		c-0.3,1.7-1.3,3.6-2.5,5c-2.9,3.6-6.5,6.6-9.1,10.4c-4.2,6.1-9.7,8.9-16.9,8.7c-4.4-0.1-8.8-0.7-13,0.1c-6.1,1.1-12.8,2-17.9,5.1
		c-13.6,8.2-28,9-43.1,7.4c-8.9-1-18.1-3-26.4,1.8c-9.4,5.5-19.7,7.7-30.1,10.1c-7.7,1.8-14.2,0.8-20.5-4.3
		c-6.7-5.4-14.3-5.3-21.2-0.6c-2.1,1.5-4,3.5-6,5.2c-4.3,3.7-8.7,6-14.4,2.4l1.4,15.3c0,0-0.3,15,0,16.3c0.3,1.3,1,14.3,0,17.7
		c-1,3.3-5.3,12.7-5.3,12.7l-12,22l-2.3,14l2,22l2,22l3.7,39.3c0,0,5.7,22,5.7,23.7s1.3,15.3,1.3,18s1.3,25.3,1.3,25.3l-1.3,21
		c0,0-3.3,15.7-4,16.7s-9.3,18-9.3,18l-9.3,25l-6,15.7v11.7l-0.3,20c0,0-2.3,9.3-2.7,11c-0.3,1.7-1,5.3-2.7,7.7
		c-1.7,2.3-10,16-10,16l-3.7,12.3l0.8,8.4c6.2,1.9,12.2,4.7,18.3,7.2c4.7,0,9.4,0,14.1,0c3.1-2,6-4.5,9.3-5.7c6.8-2.6,15.3,1,16,7.6
		c0.8,8.2,0.6,16.7-1,24.7c-1.9,9.7-5.6,19-8.6,28.5c-0.8,2.9-1.4,5.9-2.8,8.5c-3.5,6.3-3.8,12.8-1.4,19.3c3.1,8.7,7,17.1,10.2,25.8
		c4.9,13.3,12.5,24.9,20.6,36.4c4.4,6.2,7.7,13.1,11.7,19.6c1.9,3.1,4,6.1,6.7,8.4c9.2,7.9,15,17.6,17.3,29.5
		c0.9,4.3,1.6,8.5,2.7,12.7c1.8,7,5.3,12.6,11.8,16.6c3.8,2.4,7.6,5.8,9.9,9.6c7.3,12.1,15.8,24,20.4,37.2
		c5.5,15.7,13.3,30.3,19.6,45.6c1.9,4.7,6.1,8.7,10.1,12c2.2,1.7,6.5,2.4,9.2,1.5c8.8-2.9,17.3-6.5,25.8-10.3
		c11.8-5.2,23.5-10.8,35.2-16.1c2.7-1.3,5.6-2.3,8.5-2.9c9.1-1.9,17.3-5.1,21.4-14.4c0.3-0.6,0.8-1.1,1.3-1.5
		c2.5-2.1,4.8-4.8,7.7-6.3c11.1-5.7,22.5-10.5,32.9-17.9c11.8-8.3,24.2-15.2,27.4-30.9c0.7-3.1,3.1-5.9,4.6-8.8
		c4.1-7.9,8.5-15.7,12.1-23.9c1.1-2.4,0.9-6.3-0.4-8.4c-3.5-5.6-7.5-11.1-12.2-15.7c-2.5-2.6-6.8-4.4-10.4-4.5
		c-5.4-0.2-8.8-2.1-11.5-6.4c-1.8-2.8-3.9-5.3-5.8-8.1c-7.5-11.1-17-11.7-24.6-1.1c-4.5,6.2-10.2,9.4-17.7,9.4c-5,0-10,0-15-0.5
		c-5.7-0.6-6.2-1.6-5.4-7.8c0.9-6.5,0.9-13.1-3.8-18c-4-4.2-8.7-8.3-13.8-11.1c-13-7.2-22.5-17.3-27.9-31.1
		c-2.7-6.9,2.4-15.5,9.3-15.2c5.2,0.2,11,1,14.2,6c3.2,4.9,5.7,10.3,8.6,15.5c2.1,3.7,3.5,9.1,6.7,10.6
		c11.5,5.2,20.9,13.7,33.3,17.8c9.4,3.1,16.7,1.8,24.8-1.1c1.3-0.4,2.2-1.5,3.4-2.1c3.2-1.7,5.9-0.8,7.6,2.3
		c1.2,2.1,2.3,4.2,2.9,6.4c1.7,6.3,5.8,9.1,12.1,10.2c15,2.6,30.1,5.6,45.1,8.4c0.8,0.1,1.6,0.3,2.4,0.4c4.6-0.1,9.1-0.3,13.7-0.4
		c0.7-0.1,1.5-0.2,2.2-0.3c3.9-0.5,7.8-1.2,11.8-1.6c7.6-0.8,15.2-1.6,22.8-2.3c4.7-0.5,8.2,1.8,11.1,5.4
		c6.1,7.5,12.2,14.8,20.4,20.2c5.3,3.5,8.7,8.8,11.3,14.8c1.7,4,5.1,7.5,8.1,10.8c3.7,4.2,8.3,7.6,11.8,11.9c3.2,3.9,6.2,5.7,11,3.3
		c1.8-0.8,3.8-1.3,5.7-1.8c7.2-1.8,12.5,1.6,13.7,8.9c1.6,9.4,2,19.2,4.8,28.3c5,16.5,11.1,32.7,17.4,48.8
		c2.7,7.1,7.3,13.4,10.5,20.3c2.3,4.8,3.4,10.1,5.5,15c7.1,16.5,14.3,32.9,21.7,49.2c1.3,3,3.4,5.8,5.5,8.3c5,5.9,9.6,6,15.3,0.7
		c2.2-2.1,4-4.5,6.3-6.4c10.7-8.9,19.1-18.8,17.4-34c-0.1-1.3,0.5-2.6,0.7-3.9c1.9-15.5,5.5-30.8,1.8-46.6
		c-0.8-3.6,0.9-9.4,3.5-11.8c8.2-7.6,16.9-14.8,23.3-24.2c0.5-0.8,1.8-0.9,2.5-1.6c2.7-2.8,5.4-5.8,8-8.7c8.3-9.3,13.7-21,26-26.8
		c5.4-2.5,11.2-7.1,11.4-14.2c0.2-5.6,2.8-9,7.4-10.7c5.5-2.1,11.2-3.2,16.9-4.7c0.8-0.1,1.6-0.3,2.4-0.4c4.9-1.1,9.8-2,14.7-3.1
		c9.1-2.1,11.2-1,16.3,6.9c4.3,6.6,9,13,13.7,19.4c5.2,7,13.9,11.1,16.7,20.3c1.6,5.3,4.7,10.3,6.3,15.7c1.3,4.3,1.7,9,2,13.6
		c0.3,3.5-1.5,7.9,0,10.5c1.4,2.4,6,3,9.2,4.5c2,0.9,3.9,2,5.9,3c1.7-1.5,2.9-2.6,4.2-3.6c11.5-8.5,21.5-6.8,25.4,7.9
		c1.5,5.8,4.5,11.1,7.1,16.5c7.3,15.5,13.5,31.2,8.6,48.9c-0.3,1-0.4,2.2-0.1,3c2.9,7.3,0.5,14.4-0.1,21.6
		c-0.6,6.8-1.2,13.9,4.4,19.7c11.2,11.6,19.5,25.2,25.4,40.2c7.7,19.9,16.6,38.7,37.6,48.3c4.1,1.9,7.8,6.2,12.5,2
		c4.3-3.8,1.1-8.3-0.6-11.9c-4.8-10.1-7.4-20.6-7.3-31.8c0.1-2.8-1-5.9-2.4-8.5c-5.8-11-13-21.2-23.4-28.2
		c-10.8-7.3-16.9-17.4-20.9-29.4c-1-2.8-3.4-5.9-6-7.2c-3.5-1.8-5.2-4.1-5-7.7c0.7-11.9,4-23,10.9-32.7c4-5.6,14.9-6.4,19.7-1.7
		c4.9,4.8,9.7,10.1,13.6,15.8c5.6,8.1,10.3,16.8,15.5,25.2c2.5,3.9,5.2,7.7,7.9,11.5c4.3,5.9,7.4,6.2,13,1.3c1-0.9,1.9-2,2.8-2.9
		c9.4-9.2,16.9-20.3,29.1-26.7c6.4-3.4,11.8-9.2,12.7-17.1c1-8.6,1.5-17.2-2.5-25.5c-1.4-3-1.7-6.4-2.9-9.5
		c-2.2-5.8-3.8-12.3-7.4-17.1c-7.6-10-16.4-19.2-24.7-28.7c-4.5-5.2-9.4-10.2-13.7-15.7c-6.8-8.7-2.5-16.9,1.3-25.2
		c3.1-6.9,9.2-10.6,15.3-13.5c5.2-2.5,8.6,3.7,13,5.7c0.6,0.2,1.1,0.7,1.6,1.1c8.5,7.9,17.8,8.1,27.5,2.6c8.4-4.7,16.8-9.6,25-14.6
		c8.7-5.3,16.7-12.1,25.9-16.1c10.4-4.5,18.7-11.3,25.9-19.3c8.1-9,16.2-18.4,17.1-31.6c0.1-2.2,1.5-4.4,2.2-6.6
		c4.2-12.7,10.2-24.8,10-39c-0.2-15-4.7-28.4-13.5-39.6c-5.4-7-11.3-13.6-16.3-21.1c-4.6-6.9-10.2-13.1-15.6-19.4
		c-6.5-7.7-6.6-9.7-1.4-18.5c2.8-4.7,6.2-7.7,11.6-8.4c3.9-0.5,7.7-1.9,7.1-6.6c-0.6-4.5-4.7-4.8-8.5-5.2c-3.9-0.4-8-1.1-11.6-2.5
		c-4.6-1.7-8.7-2.2-13.5-0.6c-2.8,0.9-7.4,1-9.3-0.7c-4.1-3.6-7.9-8.1-10.3-13c-3.9-7.9-0.5-17,6.9-21.5c5.4-3.3,11.3-0.4,12.4,5.9
		c0.6,3.5,1.6,7,3.2,10.2c2.4,4.9,5.2,5.5,9.4,2.3c2.3-1.8,4.2-4.3,6.5-6.2c10.3-8.4,26.8-4.3,28.9,8.1c1.4,8.1,6,11.6,11.9,15.8
		c12,8.5,22.9,18.1,25.6,34.1c0.8,5,4.2,9.6,6.1,13.7c10.6,1.8,17.5-5.1,25.7-7.3c7.1-1.9,7.9-5.1,5.6-12.2
		c-6.2-19.1-18.5-33.5-34.4-45.3c-1.9-1.4-4-2.4-5.8-3.9c-6.4-5.4-6.6-8-0.5-13.6c5-4.6,9.1-9.6,9.7-16.8c0.2-2.2,1.6-4.3,2.4-6.5
		c3.8-10.1,6.9-12.2,17.8-12.2c12.7,0,18-4.2,21.1-16.6c1.7-7.1,3.1-14.3,5.5-21.2c2.6-7.3,4.6-14.4,4.6-22.3
		c0-5.5,1.2-11.3,3.2-16.5c1.5-4.1,4.3-9.5,7.7-10.6c5.2-1.7,9.8,2.9,13.2,7.2c1,1.2,1.6,2.9,2.4,4.3c4.4,7.5,8.8,14.9,13.3,22.3
		c0.5,0.9,1.2,1.6,1.9,2.3c4.3,4,10.3,4.4,14.6,0.9c3.6-3,3.6-6.6,0.4-12.5c-2.7-4.9-4.9-10.1-7.3-15.2c-3.1-6.6-6-13.4-9.5-19.7
		c-1.3-2.5-4-5-6.6-5.8c-8.3-2.6-12.8-9-17.2-15.8c-2-3-4.8-5.6-7.1-8.4c-3.4-4.1-6.8-8.2-10.1-12.3c-1.3-1.5-2.1-3.9-3.7-4.6
		c-8.9-3.7-13.3-11.9-19.6-18.1c-2.2-2.1-5.6-3.9-8.5-4c-10-0.4-19.9,0.1-29.9,0.2c-2.1-0.4-4.2-0.9-6.3-1.3
		c-2.6,0.3-5.2,0.8-7.8,0.8c-3.2,0-6.7,0.1-9.4-1.1c-6-2.8-11.8-6.1-17.4-9.7c-2.1-1.3-4.9-4.2-4.6-5.7c1.7-7.7,0.1-16,4.6-23.2
		c2.1-3.3,3.6-7.1,4.9-10.8c3.6-10.8,11.1-16.1,22.3-16.2c4.3-0.1,8.6,0.6,12.9,0.9c2.9,0.2,6.1,1.2,8.8,0.5
		c12.8-3.5,25.8-1.3,38.7-1.9c3.1-0.2,7,0.4,9.5,2.1c11.2,7.5,23.1,4.1,34.6,2.3c5.3-0.8,6.5-5.1,3.7-10c-1.6-2.9-4.2-5.2-6.1-7.9
		c-4.7-6.9-2-14.8,6.1-16.2c7.3-1.3,15-1.3,20.7,4.5c5.3,5.5,11.9,6.6,18.9,7.1c1.7,0.1,3.4-0.2,5,0c6.5,0.9,8.5,3.4,6.7,10.1
		c-1.4,5.3-3.5,10.6-5.8,15.7c-4.8,10.3-6,20.7,0.8,30.2c6.9,9.7,14,19.3,23.9,26.6c6.9,5.1,12.3,12.1,18.7,17.9
		c11.4,10.2,22.8,20.4,34.5,30.1c4.2,3.5,8.4,1.6,9.8-3.7c2.2-8.1,5-16.1,5.7-24.3c1.2-13.7,4.2-28.4-9.9-38.4
		c-0.5-0.4-0.9-1.1-1.1-1.7c-3-9.1-8.7-16.2-15.4-22.9c-2.8-2.8-5.1-6.1-7.3-9.4c-4.2-6.4-2.6-12.1,4.4-15.4c3.3-1.6,6.9-2.5,10-4.4
		c3.7-2.2,7.2-2.8,11.4-1.6c10.2,2.9,18.2-1.1,24.8-8.8c2.8-3.3,5.5-6.7,8.6-9.7c6.6-6.5,13.9-11.3,23.8-10.8
		c2.2,0.1,4.6-0.6,6.7-1.5c5.9-2.5,6.3-6.6,1-10.3c-2.6-1.8-6.1-2.5-9.1-3.7c-6.2-2.6-12.5-4.7-18.3-7.8c-4.6-2.5-5-7.5-0.9-10.7
		c5.6-4.4,11.7-6.9,19.4-4c12.2,4.5,24.6,8.3,37,11.9c3.4,1,7.3,0.2,10.9,0.7C3740.1,297.4,3744.5,287.1,3741.1,280.9z"/>
	<path d="M3210.4,1190.4c-4.7,4.2-8.4-0.1-12.5-2"/>
	<path d="M3773.6,1361.3c-1.8,0-3.5,0.1-5.3,0.1c-1.5-0.4-2.9-0.9-4.4-1.3c-8.4-3-13.5-9.8-16.9-17.3c-4.1-8.9-11-13.7-19.4-17.4
		c-4-1.8-7.3-1.3-9.9,1.6c-2.9,3.1-5.5,6.6-7.5,10.3c-2.3,4.3-5,7.8-10,8.8c-1.4,0.5-2.9,0.9-4.3,1.4c-4.5-0.1-8.9-0.2-13.4-0.3
		c-0.8-0.4-1.6-0.8-2.5-1.2c-2.8-2.3-5.6-4.7-8.5-7c-6.4-5-13.2-7.1-21.4-4.6c-3.9,1.2-8.3,1-14.1,1.6c0.5-4.9,0.6-8.3,1.3-11.6
		c0.8-3.9,2.4-7.6,3.3-11.5c2.9-12.9-2-23-13.8-28.6c-4.5-2.1-9.3-3.5-14-5.3c-4.3-1.7-8.7-3.2-12.8-5.3c-5.5-2.9-10.5-5.1-16.7-1
		c-4.2,2.8-7.9,1.6-9.4-3.4c-2.3-7.6-8.9-13.5-7.2-23c1.1-6.1-4.2-10.8-10.6-12.9c-4.8-1.5-8.3-4.1-7.7-9.1
		c6.7-2.7,12.7-5.2,18.8-7.4c10-3.7,23.3,0.7,29.2,9.6c1,1.5,0.8,3.8,1.4,5.7c1,3.1,1.6,6.5,3.3,9.3c3.7,6.1,6.7,6.6,13.1,3
		c6.3-3.6,12.6-7.3,19-10.7c5.3-2.8,10.9-2.4,16.4-0.4c19,6.9,37.8,14.5,57,20.7c16.3,5.2,27.7,16.2,38.7,28.2
		c4.7,5.1,8.6,10.5,15.9,13c5.6,1.9,9.3,7.2,9,14.2c-0.2,5.6-0.7,11.5,0.6,16.8c1.3,5.6,3.1,11.5,11,12.4c2.7,0.3,5.4,3.6,7.6,5.9
		c3.4,3.6,6.4,7.7,9.5,11.5c2.2,2.6,4.7,5.5,1.7,8.7c-2.9,3.1-6.7,4.2-10.9,1.9c-3.2-1.8-6.3-3.7-9.4-5.5
		C3778.1,1361.3,3775.9,1361.3,3773.6,1361.3z"/>
	<path d="M3371.6,1105.3c2.9,2.6,4.7,3.6,5.8,5.2c5,7.4,12.2,12,19.8,16.2c8,4.3,8.5,6.6,3.9,14c-1.9,3.1-4,6.4-6.8,8.5
		c-7.1,5.5-7.2,12.3-4.5,19.7c3.3,9.3,6.8,18.5,10.8,29.4c-1.7,1.2-4,2.5-5.9,4.3c-2.6,2.5-5.8,5-7.1,8.2c-3.3,7.7-7,14.5-14.5,19.2
		c-2.2,1.4-3.2,6.4-3,9.7c0.4,7.5-0.7,14.6-3.6,21.4c-1.1,2.5-3,5.4-5.3,6.3c-7.9,3.3-15.5,5.9-24.5,0.8c-6.9-3.9-15.1-6.9-23.9-4.7
		c-1.9,0.5-4.4-0.8-6.5-1.4c-4-1.3-7.8-3.3-11.9-4.1c-4.5-0.9-6.6-3.4-8.1-7.6c-2.2-6.2-5.4-12-7.8-18.1c-1.8-4.6-3.5-9.3-4.6-14.1
		c-1-4.2-0.4-8.9-1.9-12.8c-3-7.9-1-14.4,3.9-20.3c2.2-2.7,4.9-5.3,7.9-7c11.3-6.3,23-11.8,34.1-18.4c4.7-2.8,8.3-7.4,12.5-11.2
		c3.9-3.5,7.4-7.6,11.7-10.5c7.8-5.3,14.6-11.4,19.8-19.4C3364.6,1114.4,3367.9,1110.3,3371.6,1105.3z"/>
	<path d="M3330.1,1307.7c2.2,2.5,4.1,5.3,6.6,7.4c3.2,2.7,7,4.8,10.4,7.3c2.7,1.9,5.7,3.6,7.7,6c2.4,3,0.8,7.3-2.9,7.5
		c-7.5,0.5-14.9,3.5-22.6,0.2c-2.5-1.1-5.8-0.6-8.8-0.4c-13.2,0.9-25.7-0.5-37.7-6.8c-5.1-2.7-11.3-3.9-17.2-4.4
		c-10.1-0.9-19.6-2.7-28.1-8.7c-3.9-2.8-9.4-3.5-12.9-6.6c-5.9-5.2-10.7-11.7-16-17.5c-4.5-4.9-9.1-9.5-13.6-14.4
		c-2.9-3.1-5.9-6.3-8.6-9.5c-5.3-6.3-10.6-12.7-15.8-19.1c-1.5-1.8-3.2-3.6-3.9-5.7c-4.2-12.9-12.7-23.3-19.6-34.6
		c-3.1-5.1-5.6-10.5-8.1-15.9c-2.4-5.1-4.3-10.5-10.2-12.9c-1.4-0.6-2.8-2.2-3.2-3.6c-4-13.3-15.9-20-24.6-29.4
		c-3.2-3.4-6.8-6.4-6.8-11.7c-0.1-5.4,2-7.4,7.2-6.7c4.9,0.7,9.9,1.3,14.7,2.2c7.1,1.3,13.2,4.4,17.2,10.9c1,1.7,2.1,3.5,3.5,4.8
		c11.8,11.2,23.6,22.4,35.7,33.2c6.7,6,13.9,11.4,21.1,16.7c12.7,9.2,22.9,20.1,27.1,35.8c1.3,4.7,3.3,8.7,8.1,11.8
		c5.4,3.5,6.5,9.9,5.9,16.8c-0.6,7.8-0.3,15.9,1.1,23.6c1.8,9.6,9.3,13.9,18.5,15.8c4.4,0.9,8.7,2.9,13.1,3.9
		c5.1,1.1,11.3,3.7,15.4,1.9c10.2-4.5,19.4-1.6,29,0.8C3317.8,1306.7,3323.9,1307.2,3330.1,1307.7z"/>
	<path d="M3517.8,551.8c1.1,0.4,3,0.9,4.8,1.7c7,3.1,13.8,6.7,20.9,9.3c5.8,2.2,12,3.9,18.1,4.7c4.4,0.6,7.5,1.7,9.6,5.8
		c1.2,2.3,2.6,4.7,4.4,6.6c3.8,4,3.5,7.9-0.3,11.3c-4.9,4.4-10,8.7-15.4,12.6c-6.1,4.4-8.4,9-3.7,14.6c8.5,10.4,10.8,23.4,16.9,34.8
		c2.7,5.1,3.6,11.4,4.3,17.2c1,8.3,1.2,16.6,1.4,24.9c0.2,5.3-2.9,8.7-7.8,10.4c-3.1,1.1-6.4,2-9.6,2.8c-9.6,2.7-18.9,5.2-23.6,16
		c-1.2,2.9-7,4.3-11,5.4c-4.8,1.3-9.9,1.3-14.7,2.3c-9.7,2.1-17.4,6.3-19.1,17.5c-0.5,3-3,5.9-5.1,8.3c-2.2,2.5-5.3,2.9-8,0.5
		c-7.8-7.2-16.3-14-19.6-24.7c-0.6-2.1-1-4.6-0.4-6.6c3.9-12.6,9.7-23.8,21.3-31.4c3.8-2.5,7.4-3.9,11.9-4.1
		c8.7-0.3,16.9-2.7,21.3-10.7c5.1-9.1,13-15,21.2-20.5c6.1-4,7.8-9.1,6.1-15.3c-2.1-7.6-4.9-15.1-7.9-22.4c-1.9-4.6-4.4-9-7.1-13.1
		c-2.8-4.4-5.8-8.9-9.5-12.6c-4.5-4.5-6.5-9.1-4.6-15.2c2.2-6.6,1.6-12.8-1.2-19.4C3508.6,556,3511.2,551.8,3517.8,551.8z"/>
	<path d="M3454.2,1193.7c7.3,1.3,13-0.5,16.5-7.8c1.3-2.8,4.5-5.1,7.3-2.7c1.7,1.5,2.9,5.6,2.1,7.7c-1.9,4.8-4.7,9.4-8.1,13.4
		c-4.3,5.1-9,9.4-10.3,16.6c-0.5,3-3.8,6.2-6.6,8.2c-9.7,6.9-11.5,11.5-8.2,23.6c2,7.3,4.1,14.7,6,22.1c0.7,2.9,1.4,5.9,1.2,8.8
		c-0.2,2.3-1.4,5.5-3.2,6.4c-1.7,0.9-5.7,0.3-6.9-1.2c-3.7-4.4-8.8-4.3-13.5-5.6c-5.8-1.6-9.6,0.5-12.3,5.5
		c-0.9,1.7-1.9,3.9-3.5,4.6c-2.2,1-5.5,1.7-7.4,0.8c-1.7-0.9-3-4.2-3-6.4c0-3.9,1.3-7.8,1.7-11.8c0.5-4.8-0.6-8.8-4.8-12.3
		c-6.3-5.2-6.3-9.9-1.9-17.3c1.6-2.7,2.3-6,3.2-9.1c0.8-2.5,1.3-5.1,1.9-7.7c1.1-4.8,2.6-9.5,2.9-14.4c0.6-8.2,3.6-14.7,10.8-18.9
		c0.8-0.5,2.2-0.6,2.6-1.3c4.6-7.4,10.6-6.6,17.2-3.2c1.1,0.6,2.6,0.5,3.9,0.7C3445.9,1192.8,3450.1,1193.2,3454.2,1193.7z"/>
	<path d="M3440.1,1001.8c1.9,0.7,3.7,1.4,5.6,2.1c14.1,5.1,14.3,5.5,11.2,21.2c-7.2,2.8-13.5,0.1-19.3-4s-11.4-7.1-18.9-8
		c-11.1-1.3-26.2-17.5-27-31.3c-0.7-12.1,1.4-23.8,4.3-35.5c1-4.2,3.6-6.3,7.8-6.3c3.7,0,7.3-0.1,11,0.2c6.8,0.5,12.5,5,13,11.6
		c0.7,9.1,2.6,18.5-4.6,26.6c-4.6,5.2-1.9,11.4-0.5,17.1c0.9,3.5,3,5.9,7.2,5.2C3433.3,1001.1,3436.7,1001.5,3440.1,1001.8z"/>
</g>
<g id="oceania">
	<path d="M3609.9,1775.6c-3.9,0-7.8,0-11.8,0c-0.9-0.4-1.7-0.7-2.6-1.1c-11.7,0.1-21.9-5.3-32.6-8.9c-6.1-2-6.8-8.4-6.3-13.5
		c1.1-12.5-2.9-21.2-14.9-25.9c-5.2-2.1-10-5.2-15.1-7.6s-7.9-6.4-7.1-11.9c1.1-7.5-2.7-13.5-5-19.9c-0.9-2.6-4.7-4.4-7.5-6
		c-4.9-2.7-9.9-5.3-15-7.3c-3.3-1.3-7.2-2.8-10.5-2.3c-9.5,1.5-18.8,4-28.1,6.1c-8.1,1.8-16.2,3.4-24.3,5.1
		c-2.6,0.5-5.5,0.1-7.8,1.2c-11.6,5.5-24.7,8.1-34.8,16.7c-5,4.2-10.8,6.8-17.5,5.8c-17-2.6-31.9,5.4-47.5,9.4
		c-3.1,0.8-5.8,3.2-8.6,5c-12.6,7.8-29.4,3-35.9-10.2c-2-4.1-1.2-9.2,3.5-12.4c8.6-5.7,9.9-15.5,14.3-23.5c0.9-1.6,0.5-3.9,0.4-5.8
		c-0.4-8.3-1.7-16.6-1.3-24.9c0.7-13.9-2.7-26.9-6.4-40c-2.1-7.5-3.7-15.3,0.9-23.1c2.7-4.5,3.5-10,5.2-15c1.1-3.1,1.7-6.6,3.5-9.2
		c4.2-6.2,7.1-12.5,6.9-20.4c-0.1-2.3,2.5-5.7,4.7-6.8c9-4.3,18.2-8,25.2-15.5c0.9-0.9,2.2-1.7,3.5-1.9
		c17.5-2.8,31.9-14.4,49.9-16.4c13.9-1.6,22.5-12.9,28.3-24.6c5.1-10.4,10.3-19.8,20.8-25.7c2.5-1.4,4.2-4.2,6.3-6.4
		c6.4-6.8,13.3-12.8,21.8-17.1c7.6-3.8,14.4-9,22.6-11.7c3.7-1.2,6.1-0.9,9.1,1.3c5.6,4,11.5,7.5,17.5,11.5
		c4.9-6.7,8.5-12.7,13.1-17.9c8.3-9.4,17.2-18.3,25.7-27.6c5-5.5,10.9-6.4,17.1-3.2c11.6,5.9,24,7.4,36.7,8.1
		c2.3,0.1,4.7,0.2,6.9,0.7c5.9,1.5,8.3,6.6,6,12.4c-3.3,8.3-6.8,16.5-10,24.9c-2.5,6.4-0.4,13.7,6.3,18.4
		c9.7,6.9,19.8,13.5,30.1,19.6c8,4.7,12,2.8,14.8-6.2c6.1-19.6,11.9-39.3,18.2-58.8c1.6-5,4.1-9.8,6.3-14.6c1.3-2.9,1.9-6.9,6.5-6.1
		c4.1,0.8,7.1,2.7,8.6,7.2c3,9.2,6.3,18.3,10,27.1c2.4,5.8,5.8,11.1,8.7,16.6c1.2,2.3,3.3,4.6,3.5,7c1.1,14.8,6,29.3,4.2,44.4
		c-0.7,6.3,1.7,10.1,7.5,13.6c7.4,4.5,13.2,10.7,17.6,19.3c9.7,18.8,17.3,38.9,31.6,55.2c6.4,7.3,11.3,15.7,9.3,26.2
		c-0.3,1.6-0.1,3.4-0.7,4.9c-6.5,15.9-13.1,31.8-19.9,47.7c-3.1,7.3-6.7,14.3-10.2,21.4c-1.2,2.4-2.5,4.9-4.3,6.6
		c-9.9,9.2-20.1,18.3-30.2,27.3c-7.7,6.9-15.4,13.5-20.1,23.2c-2.6,5.4-8.1,9.4-12,14.3c-5,6.3-9.6,12.8-14.3,19.2
		c-0.8,1.1-1.4,2.7-2.5,3.1c-10.2,3.7-17.6,13.4-29.5,13.5c-2.9,0-6.2,0.7-8.6,2.2c-8.8,5.4-18.2,5.5-27.9,3.6
		C3611.3,1775.8,3610.6,1775.7,3609.9,1775.6z"/>
	<path d="M3787.6,1880.7c2.1-6.3,5.2-10.4,10-13.1c9.5-5.4,19.3-10.5,28.5-16.3c8.8-5.6,18.3-9.1,28.3-12
		c12.7-3.6,23.4-11.1,32.6-20.6c0.2-0.2,0.4-0.5,0.7-0.7c8.3-6.3,16.6-12.6,25.1-18.7c1.5-1.1,3.8-1.2,5.7-1.5
		c11.3-2,22.3-4.4,26.3-17.7c0.6-2,3.8-3.4,6.1-4.6c13.7-7.2,20.4-18.7,20.9-33.8c0.2-5.6-0.3-11.3-1.2-16.9
		c-1-6.5,0.8-11.6,5.7-16.9c6.5,6.4,14,10.9,14.7,20.7c0.2,3,1.1,5.9,1.8,8.8c1.9,8.3,4.6,15.4,15.5,14.7c2.7-0.2,7.6,2.5,7.9,4.4
		c0.4,2.9-1.5,7.2-3.8,9.4c-5.6,5.1-12.1,9.3-18.1,13.9c-5.5,4.2-11.7,7.9-16.2,13c-10.8,12.5-24.7,19-40.2,22.7
		c-5,1.2-9.2,3-13.2,6.4c-9.9,8.4-20,16.5-30.4,24.3c-4.2,3.1-9.1,6.1-14.1,7.2c-14,3.2-25.3,10.9-36.7,19
		c-7.8,5.5-16.4,10.8-25.4,13.3C3808,1888.4,3797.5,1885.7,3787.6,1880.7z"/>
</g>
<g id="europe">
	<path d="M2258.7,661c0,0,8.3-13.7,10-16c1.7-2.3,2.3-6,2.7-7.7c0.3-1.7,2.7-11,2.7-11l0.3-20v-11.7l6-15.7l9.3-25
		c0,0,8.7-17,9.3-18s4-16.7,4-16.7l1.3-21c0,0-1.3-22.7-1.3-25.3s-1.3-16.3-1.3-18s-5.7-23.7-5.7-23.7l-3.7-39.3l-2-22l-2-22l2.3-14
		l12-22c0,0,4.3-9.3,5.3-12.7c1-3.3,0.3-16.3,0-17.7c-0.3-1.3,0-16.3,0-16.3l-1.4-15.3c-1.8-1.2-4.5-1-6.7-1.6
		c-5.7-1.4-11.7-2.4-17.2-4.6c-9.9-3.9-19.9-7.2-30.4-9.5c-14.5-3.1-29.3-5.3-42.6-13.1c-7-4.1-15.3-7.1-23.3-7.9
		c-19.5-1.8-39.1-2.1-58.7-2.8c-3.2-0.1-7.5-0.1-9.5,1.8c-8.1,7.8-18.5,6.4-28.1,8.2c-2.3,0.4-4.9,0.4-6.6,1.7
		c-13.7,10.4-27.9,20.3-38.9,33.8c-1.5,1.8-3.5,3.1-5.1,4.8c-7.5,7.5-14.8,15.2-22.3,22.7c-3.3,3.3-6.4,6.9-10.2,9.4
		c-15.2,10.1-31.4,18.4-47.9,26.1c-6.4,3-10.9,6.4-9.6,14.2c1.4,8.5,2.9,16.9,4.3,25.4c0.6,0.3,0.9,0.9,0.8,1.6
		c0.7,8.9,4.5,15.6,13.3,18.8c2.6,0,5.1,0,7.7,0c1.3-0.2,2.7-0.3,4-0.5c1.3-0.5,2.7-1,4-1.5c5.3-3.5,10.7-7,16.1-10.5
		c0.6-0.4,1.1-0.7,1.7-1c0.6,0,1.4-0.3,1.9,0c11.3,6.5,17.5,17.9,25.3,27.6c2.3,2.9,1.4,6.4-2,8.6c-2.7,1.8-5.6,3.6-8.3,5.4
		c-3,2-3.6,5.2-1.8,7.8c1.3,1.7,4.6,3.3,6.6,2.9c9.9-2.1,20.6-2.4,29-9.3c1.1-0.5,2.3-1,3.4-1.5c1.3-0.2,2.7-0.9,3.9-0.7
		c6.3,0.8,9.1-2.7,10.2-8.2c1.3-6.5,2.7-13,3.5-19.5c0.6-4.5,2-7.7,6.9-8.2c1.1-0.5,2.3-1.1,3.5-1.6c1-0.8,2.1-1.6,3.1-2.5
		c10-9.1,10-14.6,0-23.6c-1-0.9-2.1-1.6-3.1-2.5c-9.4-8-8.2-19.8,2.6-25.6c2.9-1.6,5.8-3.3,8.7-4.9c8.4-4.8,16.4-9.9,20.1-19.8
		c1.9-5,6.3-8.4,11.4-8.8c6.4-0.4,12.9,0.7,19.4,1.2c-0.1,1.2-0.1,2.4-0.1,3.5c-8.6,6.8-16.9,13.8-25.8,20.2c-6,4.4-9.3,9.5-8,16.9
		c0.8,4.9,2.1,9.7,3.3,14.5c2.2,8.9,10.1,11.7,16.8,15.8c1.2,0.4,2.5,0.9,3.7,1.3c6.3,1.5,9.4,5.8,9.6,12s-2.7,9.8-8.8,12.2
		c-0.8,0.3-1.7,0.7-2.5,1c-9.4,1.3-13.4,7.6-15.1,16.1c-0.5,2.2-0.6,4.6-1.3,6.8c-2,6.7-4,13.5-11.8,15.9c-1.3,0.5-2.6,1-3.9,1.5
		c-4.7,0.2-9.5,0.3-14.2,0.5c-1.2,0.3-2.3,0.6-3.5,0.9c-5.4,1.4-10.8,2.8-16.2,4.3s-10.7,3.2-16,4.8c-0.7,0.4-1.4,0.9-2.1,1.3
		c-1.6-0.9-3.7-1.3-4.7-2.6c-5.4-6.9-11.8-8.5-19.7-4.9c-1.2,0.5-2.4,0.9-3.6,1.4c-5.5,5.1-9.9,0.3-14.4-1.8
		c-4.2-2-4.5-6.3-4.2-10.4c0.1-2.3,1-4.5,1.2-6.8c0.4-5.5,0.9-11.1,0.6-16.7c-0.1-3.8-2.9-6.6-6.7-5.5c-6,1.7-12.7,3.6-15,10.2
		c-2.3,6.3-6.3,12.4-4.1,19.9c0.8,2.8,0.2,5.9,0.5,8.9c0.4,3.8-1.1,6.5-4.5,8.1c-4.7,2.2-9.5,4.5-14.3,6.7c-1,0.4-2,0.9-3,1.3
		c-2.1,0.9-4.3,1.8-6.5,2.7c-0.5,0.5-1,0.9-1.5,1.4c-2.7,2.3-6.1,4.3-8,7.2c-7,10.6-17.5,16.3-28.2,22.1c-2.9,1.6-4.8,5.1-7.2,7.7
		c0.2,0.7-0.1,1.1-0.8,1.3c-1.4,1.4-2.7,2.9-4.1,4.3c-1.2,0.5-2.4,1-3.6,1.5c-5.9,3.8-11.7,6.4-19.2,3c-4.3-2-8.8-0.2-11.8,4.4
		c-1.3,2.1-3.7,3.4-5.6,5.1c-0.1,0.5-0.4,0.7-0.9,0.6c-1.6,0.2-3.2,0.5-4.8,0.7c-2.5,0.2-5.1,0.3-7.6,0.5c-1.3,0.1-2.7,0.2-4,0.3
		c-1.9,0.5-3.9,1-5.9,1.5c-1.9,1.2-3.8,2.3-6.2,3.7c2.2,4.1,4.2,7.8,6.2,11.4c1.2,0.5,2.4,1,3.6,1.5c12.7,1.1,30.3,17.3,31.6,29.5
		c0.3,2.8-0.5,5.8-1.1,8.7c-0.7,3.8-1.9,7.6-2.6,11.5c-1.9,10.1-2.5,10.7-12.9,10.1c-0.9-0.1-1.9-0.3-2.9-0.4
		c-1.2,0.1-2.5,0.1-3.7,0.1c-3.9-0.4-7.9-0.8-11.9-1.2c-2.2,2.1-4.3,2.1-6.4,0c-1.8-0.2-3.7-0.5-5.6-0.7c-8.2-0.4-16.3-0.9-24.4-1.3
		c-1.4-0.4-2.7-0.7-4.1-1.1c-1.2,0-2.3,0-3.5,0c-5.2,3.5-10.4,6.9-14.7,9.8c0,10.1,0.5,19.4-0.1,28.5c-0.7,9.6-3,18.8-8.5,27.1
		c-1.4,2.1-1.9,6.7-0.6,8.3c4.3,5.3,3.5,11.1,3.8,17c0.3,6.6,1.3,7.7,7.3,8.2c1.7,0.2,3.4,0.3,5,0c8.5-1.5,15.5,0.9,21.9,6.7
		c4.8,4.4,12,6.9,17.5,4.2c9-4.5,18.1-2.6,27.2-3.2c0.9-0.4,1.8-0.9,2.7-1.3c4.2-3.2,8.2-6.9,12.8-9.4c8.4-4.4,8.3-14.8,15.1-20.2
		c0.6-0.5,0.6-2.8,0-3.8c-2.9-5.2,0.2-8.8,3.1-12.5c2.1-2.6,4.2-5.2,6-8c2.9-4.6,6.1-7.6,12-9.2c6-1.7,12-6,16.4-10.7
		c2.6-2.8,2.5-8.5,3-13c0.9-7.4,6.2-12.1,14.6-11.3c5.3,0.4,10.4,2.3,15.6,3.3c2.9,0.5,6.4,1.6,8.7,0.5c7.3-3.4,14.6-7.4,21.3-12
		c6.4-4.3,7.1-5,12.9-0.3c3.2,2.6,5.7,6.3,8.4,9.6c3.8,4.5,7.1,9.5,11.3,13.7c9.4,9.5,20.5,16.8,32.9,22.1
		c8.6,3.7,14.1,11,19.8,17.8c5,6,1.2,15.7-6.4,16.9c-7.8,1.2-15.8,1.3-23.7,1.8c-3.3,0.2-7.5-0.2-8,3.9c-0.2,2,2.7,5.1,4.9,6.4
		c6.5,3.9,13.3,7.4,20.2,10.8c5.3,2.6,9.6,0.6,9.6-5.5c0-6.2,2.6-9.2,8.1-10.7c1.6-0.4,3.1-1.3,4.4-2.3c5.6-4,9.9-15.6,7.5-21
		c-1.2-2.8-3.5-5.9-0.4-7.9c1.9-1.3,5.5-0.2,8.3,0.1c0.9,0.1,1.6,1.4,2.5,1.5c2.1,0.2,4.3,0.1,6.4,0.1c0-2.5,0.9-5.7-0.3-7.3
		c-2.3-3.2-5.7-5.6-8.9-7.9c-5.2-3.6-10.8-6.6-15.9-10.3c-3.8-2.7-7.6-4.7-12.2-6.1c-6.4-2-13-5.7-16.1-12.4
		c-2.5-5.2-5.4-9.8-10.2-13.2c-1.6-1.1-3-2.7-4-4.4c-2.5-4-2-10.3,0.8-13c2.9-2.7,6.7-4.4,10-2.1c6.4,4.6,13,9.4,18.1,15.3
		c4.8,5.6,9.7,9.7,16.6,12c3.3,1.1,6.3,3.3,9.3,5.3c2.2,1.4,3.9,3.7,6.2,4.9c12,6.1,17.3,15.9,17.3,29.1c0,2.5,0.2,5.6,1.5,7.6
		c6.2,9.8,13,19.2,19.3,28.9c2,3,4.5,6.4,4.6,9.7c0.2,10.4,7.4,12.4,15.1,14.1c4.6,1,7.5-0.3,9.1-5.2c4.2-12.5,9.8-24.7,3.3-38.1
		c-0.3-0.5-0.3-1.2-0.4-1.9c-0.9-6.5,5.2-15.8,10.3-16.1c8.8-0.4,16.6,5.2,17.3,12.7c0.4,4.7,0.5,9.3,0.4,14
		c-0.2,8.5,2.9,16,7.7,22.3c3,4,8,7,12.7,8.8c7.3,2.8,15.4,3.7,22.8,6.3c4.2,1.5,7.5,1.6,11.2-0.9c2-1.3,5.1-2.7,7.1-2.1l-0.8-8.4
		L2258.7,661z"/>
	<path d="M1833.5,409.4c-5.3-6.8-2.4-15.4-4.8-22.9c4.9-5.7,8.9-13.3,15.1-16.7c5.1-2.8,13.7-2.8,19.2-0.3c5.8,2.6,11.3,9.1,11,16.4
		c-0.4,10.9,2.5,20.3,8,29.2c0.7,1.1,0.7,2.9,1.7,3.6c7.6,5.7,10.9,13.7,13.4,22.4c0.5,1.6,3.4,2.9,5.5,3.5
		c9.5,2.6,13.3,8.8,3.3,16.9c-0.8,0.6-1.3,1.5-2,2.2c-0.5,0.8-1,1.5-1.4,2.3c0.1,4.8-3.2,6.5-6.9,8.3c-7.5,3.7-15.6,4.1-23.7,4.4
		c-0.8,0.4-1.6,0.8-2.4,1.2c-7.5-0.7-14.6,0.6-20.9,4.9c-0.8,0.6-1.8,1-2.7,1.4c-3.4,1.6-7.6,3.2-10.1-0.1c-1.5-2-1-6.1-0.4-9.1
		c1.9-9.1,3.9-18.1,6.6-27c1-3.2,4-5.7,6.1-8.6c0.6,0.1,1.1-0.1,1.5-0.4c1.6-0.1,3.2-0.2,4.8-0.3c0.7,0.2,1.2-0.1,1.6-0.7
		c4.2-0.8,4.4-3.9,3-6.8c-2-4.1-3.8-8.8-8.9-10c-4.9-1.2-11.1-7.7-11.1-7.7"/>
	<path d="M1836,418c0.2,6.5,1.4,13.2-6.3,17c-1.2,0.6-1.4,3.4-1.8,5.3c-0.7,2.9-1,5.8-1.7,8.6c-1.6,6.4-5.2,10.5-12.4,9.9
		c-0.7,0.4-1.5,0.7-2.2,1.1c-5.1,2.3-10.3,4.4-15.3,6.8c-6.1,2.9-9.6,2.7-13.3-1.4c-4.8-5.3-5.5-8.7-2.1-14c3-4.8,3.8-9.7,3.4-15.2
		c-0.5-8-0.1-7.5,7.3-10.2c4.5-1.7,8.3-5.2,12.4-7.8c2.8-1.7,5.6-3.3,8.4-4.9c3.7,0.1,7.5,0.1,11.2,0.2
		C1827.8,414.9,1831.9,416.5,1836,418L1836,418z"/>
</g>
<g id="groenland">
	<path d="M1390.1,154.4c-2-0.1-4-0.2-6.1-0.4c-0.4-0.6-0.9-0.8-1.6-0.7c-9-2.7-17.7,0.1-26.5,1.1c-0.6-0.1-1.2-0.1-1.8,0.2
		c-1.4,0-2.8,0-4.3,0c-0.6-0.2-1.2-0.3-1.8-0.2c-1.4-0.1-2.8-0.2-4.1-0.3c-0.3-0.5-0.8-0.7-1.3-0.5c-6.6-1.9-12-5.2-15.8-11.2
		c-5.5-8.7-3.3-15.7,6.7-17.5c11.4-2.1,22.9-2.9,34.4-4.6c6.2-0.9,12.3-2.5,18.4-3.9c1.3-0.3,3.1-0.7,3.5-1.6
		c4.5-8.5,13-7.5,20.6-9.1c15.2-3.2,30.2-7.4,45.3-10.9c5.4-1.3,11.1-1.8,16.6-2.4c8.2-0.9,16.5-1.5,24.7-2.2
		c7.6-0.6,15.1-1.2,22.7-1.8c6.8,2.7,13.6,2.8,20.3-0.1c3.9-0.1,7.8-0.3,11.7-0.4c4.1-0.1,8.2-0.2,12.4-0.3c1.2,0,2.4,0,3.5,0
		c1.5-0.3,3-0.7,4.5-1c11.1-1.6,22.3-3.1,33.4-4.7c1.5-0.4,2.9-0.9,4.4-1.3c12,0.1,24,0.2,36,0.3c4.1,2,8.1,2.1,12-0.4
		c5.3-0.9,10.6-1.8,15.8-2.6c16.7,0,33.5,0.1,50.2,0.1c17.6,2.6,35,6.2,51.9,12.1c6,0.6,12,1.3,18.1,1.9c10,0,20,0.1,30,0.1
		c1.2,0.4,2.4,0.7,3.6,1.1c0.8,1.9,1.6,3.8,2.4,5.7c-0.5,0.4-1,0.9-1.5,1.3c-5.1,1.9-10.1,3.7-15.2,5.6c-0.5-0.2-0.8-0.1-1.1,0.4
		c-1.4,0.1-2.9,0.3-4.3,0.4c-0.9,0.5-1.9,0.9-2.8,1.4c-5.8,1.2-11.7,1.9-17.2,3.7c-5.9,1.9-11.5,5-17.3,7.5
		c-5.7,2.4-9.3,6.1-8.8,12.8c0.5,5.9-1.3,11-5.4,15.4c-1.5,1.6-2.2,4-3,6.1c-6.6,17.8-20,27.9-37.5,33.4c-0.6,0.4-1.2,0.8-1.8,1.2
		c-5.1,2.9-5.9,6.7-4.4,12.5c1.7,6.9,3.2,14.8-3,20.6c-3,2.8-6.7,5.2-10.5,6.8c-11.3,4.5-22.8,8.6-34.3,12.8
		c-0.8,0.4-1.5,0.8-2.3,1.2c-16.1,3.9-32.4,6.4-48.8,8.1c-9.8,1-16.5,8.1-24.1,13.3c-12.7,8.6-26.6,13.2-41.8,14.6
		c-4.9,0.5-9.7,1.7-14.6,2.5c-2.8,0.4-5.6,0.8-8.4,1.2c-6-0.3-10,3.1-13.1,7.7c-3.6,5.2-6.1,11.4-10.5,15.6
		c-9.4,8.9-18.1,18.1-25.4,28.7c-3,4.3-7.3,7.6-11.2,11.2c-8,7.3-14.8,6.9-22.4-0.7c-2.5-2.5-5.6-4.2-8.5-6.2
		c-0.8-0.4-1.6-0.8-2.5-1.2c-2.1,0-4.2,0-6.4,0c-0.8,0.4-1.5,0.8-2.3,1.2c-5.7,1.1-9-1.5-11.9-6.5c-8.1-13.7-12.8-28.1-12-44.3
		c0.3-5.9-1.4-11.8-1.5-17.7c-0.2-17.3,8.5-28,25.3-31.6c1-0.2,1.9-0.5,2.9-0.7c1.1-0.4,2.3-0.8,3.4-1.2c4.1-2.5,2.5-5.5,0.7-8.5
		c-3.1-5.1-6.3-10.1-9.3-15.1c-3.7-6.2-3.9-12.1-0.4-18.7c6.2-11.7,4.5-22.3-3.5-31.2c-4.6-5.2-10.3-6.9-16.9-6.4
		C1394.3,155.4,1392.2,154.9,1390.1,154.4z"/>
	<path d="M1761.7,267.2c2.9,2.7,5.9,5.3,8.7,8.1c4.1,4.1,4.4,6.9,0.4,11c-2.2,2.3-5.1,4.4-8,5.5c-5.6,2.1-11.4,3.4-17.1,5
		c-0.6,0.4-1.2,0.7-1.8,1.1c-0.3,0-0.7,0-1,0.1c-8,3.1-15.7,7.9-24,8.9c-7.9,0.9-16.2-2.6-24.3-3.3c-7.2-0.6-11.3-3.8-14.2-10.3
		c-2.3-5.2-6.2-9.8-9.6-15c5.5-10.2,14-13.9,25.7-10.8c3.7,1,7.7,1.3,11.5,1.9c0.6,0.1,1.2,0,1.7-0.3c4.8,0,9.6,0,14.4,0
		c0.7-0.4,1.5-0.7,2.2-1.1c10.5-0.7,21-1.4,31.5-2.1C1759.2,266.4,1760.5,266.8,1761.7,267.2z"/>
</g>
</svg>
