<?xml version="1.0" encoding="utf-8"?>
<!-- Generator: Adobe Illustrator 21.0.0, SVG Export Plug-In . SVG Version: 6.00 Build 0)  -->
<svg version="1.1" id="World_Map" xmlns="http://www.w3.org/2000/svg" xmlns:xlink="http://www.w3.org/1999/xlink" x="0px" y="0px"
	 viewBox="0 0 3832.2 1930.2" style="enable-background:new 0 0 3832.2 1930.2;" xml:space="preserve">
<style type="text/css">
	.st0{fill:#434F67;}
</style>
<title>Fichier 3</title>
<path class="st0" d="M653.9,1024.5c1.7,2,6.8,1.8,10.2,1.3s3.9-3.8,4.1-7.1c0.2-2.5,1.3-4.9,1.8-7.4c0.7-3.3,1.1-6.7,1.8-10.7
	c-5,0-8.6,0-12.2,0c-3.3,0-6.7,0.5-9.7-0.4c-18.5-5.2-27.2-22.4-21.5-40.8c3.5-11.4,6.4-23,9.2-34.6c0.8-3.2,0.5-6.7,0.1-10
	c-0.2-1.8-1.1-4.2-2.4-5.1c-8.3-5.3-16.3-11.6-27.3-10c-5.9,0.8-11.9,1-17.8,0.6c-8.8-0.4-12.1-4.5-11.6-13.4
	c0.3-5.9,2.7-10.8,6.2-15.5c6.1-8.4,10-18.1,11.4-28.4c0.7-4.8,1.8-8.8,5-12.6c4.5-5.3,4.1-6.4-1-12.5l-2.2-0.2H594l-8.3-1.3
	c-8,2.1-15.9,4.2-23.9,6.3c-5.1,1.3-7.3,4.6-8.4,9.8c-1.5,6.7-4.2,13.2-6.4,19.7c-1.5,4.4-4.2,7.5-8.9,8.4l-26.3,1.3
	c-2.6,0-5.4,0.5-7.9-0.1c-11.3-2.6-21.6-6-25.4-19.2c-2.4-8.2-4.6-16-5.7-24.7c-2.4-19.2,2.3-36.2,10-53c2.9-6.5,5.4-12.7,5.2-20
	c-0.2-6.3,2.2-11.9,7.4-15.6c6.5-4.5,13.2-8.7,20.1-12.7c6.6-3.8,13.4-7.3,20.3-10.5c3.8-1.8,8.3-4.1,12.2-3.5
	c8.7,1.2,17.3,3.9,25.9,6l16.1,1.5c3.3,0.5,5.4-0.8,7.3-3.8c2.8-4.6,6.6-8.4,12.3-9.5c5.8-1.2,11.7-2.6,17.5-3.8
	c6.1-1.3,11.1,0.7,14.9,5.6c1.4,1.8,2.6,3.7,3.8,5.3c1.5,0.1,3,0.1,4.5,0c14.2-1.8,19.3,3.4,18,17.9c-0.2,3.6,0,7.3,0.8,10.9
	c2,10.8,6.2,21.1,12.4,30.2c3.6,5.3,6.2,6.3,11.2,2.6c6.9-5.3,10.6-12.5,11.3-21.4c0.8-10.9-2.3-21.1-4.8-31.4
	c-4.7-19.4,0.6-35.9,16.3-47.8c13.4-10.2,27.5-19.7,42.8-27c8.4-4.1,16.8-7.5,22.2-16.8c3.3-5.7,7.4-11,9-17.4
	c2.5-10,7.8-18.3,14.4-25.9c7.4-8.5,15.6-16.4,22.7-25.2c7.6-9.8,18.7-16.2,31-18c5.8-0.9,11.3-3.7,16.9-5.7
	c3.4-1.3,5.7-3.6,5.3-7.5c-0.5-6.8,3.4-11,8-15.2c5.1-4.6,12.4-5.6,17.2-9.2c7.7-5.9,15.4-5,23.5-5c4.5,0,8,1.4,9.9,6.5
	c2,5.4,6.5,6.2,11.2,2.6c3.2-2.4,5.5-5.8,8.7-8.2c2.8-2.1,6-4.1,9.4-4.9c10.3-2.2,20.8-3.8,31.2-5.6c3.8-0.6,7.4-1.4,7.2-6.4
	c-0.2-4.3-3-6.6-6.8-7.5c-4.2-1-8.5-1.5-12.8-2.4c-9.6-2-13.9-7.8-11.7-17.2c1.1-4.9,3.4-9.4,6.6-13.1c4.6-5,7.6-10,6.3-16.8
	c-0.9-5,1.8-7.9,6.2-8.6c7.5-1.1,15.2-2.6,22.7-1.9c9,0.9,17.7,1.8,26.5-1.2c1.9-0.7,6,0.2,6.7,1.6c1.1,2.6,1.1,5.5,0,8.1
	c-1.8,3.5-4.7,6.4-7.5,9.2c-5.1,5.2-7.4,11.4-7.9,19.8l23.1,1.7c5-2.2,9.9-2.5,14.8,0.1c7.8,2.5,15.6,5.2,23.5,7.6
	c4.7,1.4,8.5-0.1,10.9-4.6c1.1-2,2.2-4.1,3.5-6.4c-4-6.6-5.4-13.4-2.2-20.8c3.5-8,3.3-8-5.2-11.9c-6.4-2.8-8.6-6.4-7.1-13.3
	c1.3-6.1,3.9-12,5-18.1c1.6-9.2,7.7-19.5-4.4-26.7c-0.9-0.5-1.5-1.4-1.6-2.4c0.8-8.1-5.6-9.6-10.8-12.1l-3.6-1.3
	c-5.9-4.5-8.4-10.6-8.4-18c0-6.6,0.5-13.2-0.1-19.8c-1.2-13.1-4.4-25.4-17.5-32.2l-2,1.4c-9.1,7.6-19.1,14.1-29.7,19.5
	c-6.6,3.3-9,4-14.2-0.1c-4.8-3.8-5.8-7.6-3.3-14.1c0.7-1.9,1.8-3.5,2.6-5.4c3.1-6.8,2.7-8.1-3.2-12.3c-3.2-2.3-6.6-4.5-9.1-7.5
	c-6.2-7.5-13.4-12.6-23.5-12.3l-2.2-1.1l-17.9-0.9l-7.5,0.3c-5.6,3.4-12.2,5.9-12.4,14.2c-0.2,1.3-0.9,2.5-2,3.3
	c-4.5,3.7-6.3,8.1-6,14c0.2,6.1-3.1,10.8-8.8,13.4c-2.4,1.1-4.8,2.2-7.3,3.4c-7,3.4-8.1,6.3-3.1,12s3.7,10.5,0.7,16.3
	c-5.5,10.7-15.4,15.1-25.4,19.8l-3.8,1.5c-5.2,2.2-10.4,4.5-15.6,6.4c-4.3,1.6-5.7,4.4-6.2,9c-1.1,8.1-2.8,16.2-5.2,24
	c-0.7,2.5-3.6,4.7-6,6.4c-2.8,1.8-5.7,3.3-8.8,4.6c-5.6,2.6-8.5,2.1-11.6-3.1c-3.4-5.7-4.4-11.6-0.7-17.8
	c4.5-7.6,8.8-15.4,13.9-24.5l-14-4.5l-16.2-1.8c-7-3.8-15.6-6.1-20.6-11.7c-7-7.9-15.3-11.7-24.6-14c-5.6-1.4-7.8-4.3-8.7-9.3
	c-0.7-3.6-0.7-7.6-2.6-10.5c-4.3-6.5-2.3-11.7,2.7-15.8c8.8-7.1,17.7-14.2,27.3-20.1c6.6-4,14.5-6,21.9-9l6.5-1.3
	c9.9,0.8,16.5-5.8,23.4-11.1c12.1-9.4,27-10.6,38.8-1c5,4,8.3,3.4,13.2,1c5.8-2.9,12-5.1,18.1-7.6l2.7,0.2c4,1.4,7.9,3.3,12,4.2
	c3.5,0.8,7-0.8,7.4-4.6c0.2-2-1.9-4.4-3.3-6.4c-4.1-5.8-8.8-11.4-4.1-19.1l3.8-1.6c6.7,0.1,13.1-2.3,18.1-6.7c2.8-2.4,6.3-3.8,9-6.2
	c2.8-2.6,5.5-5.4,7.9-8.4c6.2-7.2,12.3-14.5,18.5-21.6c0.8-0.6,1.6-1.2,2.5-1.5l2.3-1.5l5.5-0.1l2.6,1l15.4-0.8l4.2,1.4
	c3.8,1.9,8.9,2.8,11.1,5.9c3.4,4.8,7,8.2,12.4,10.6c4.6,2.1,5.1,5.5,2.1,9.8c-1.2,1.6-2.6,3-4.2,4.1c-8.2,6.3-18,10.6-24.3,19.3
	c-0.2,0.2-0.6,0.3-0.9,0.4l-2,1h-14.6l-2-1c-2.5-0.6-5.1-1.2-7.7-1.6c-5.9-0.9-10.1,2.3-13.6,6.4c-2.6,3.1-6.2,6.5-2.5,11.2
	l12.3,1.6l23.6,0.3l4.7-0.1c5.3,1.5,7,6.2,8.3,10.5c2.1,7.4,7.4,10.6,13.8,13.1c5.9,2.3,11.7,4.7,17.6,7l3.8,1.6
	c5.5,0.5,10.2-0.6,14.6-4.6c5.3-4.9,11.7-8.6,17.6-12.9c8.2-6.1,9.8-13.3,5.1-22.7c-1.3-2.7-3.1-5.3-3.8-8.1
	c-0.5-2.2,0.3-4.8,0.5-7.1c2.4,0.6,5.4,0.6,7.1,2c3.2,2.8,5.6,6.5,8.6,9.6c5.1,5.4,9.9,5.7,15.8,1.1c4.5-3.5,8.8-7.1,13.2-10.6
	c6.4-5.2,7-7.6,4.3-15.5c-1.7-5-5-8.1-9.7-10.7c-8-4.6-14.4-10.8-13-21.4c0.8-6.3-1.6-11.4-6.9-14.4c-6.6-3.7-13.5-7.3-20.7-9.3
	c-9.4-2.6-16.7-7-19.9-16.2c-1.9-5.5-5.4-8.2-10.7-9.1c-4.6-0.8-9.2-2-13.8-1.9c-20.2,0.4-40.4,1.2-60.6,1.8
	c-4.3,0.1-8.7-0.3-13,0.4c-6.1,1.1-12.7,1.9-18,4.8c-7.2,4-13.4,9.8-19.8,15c-6.1,4.9-8.3,10.9-4.9,18.6c1,2.2,1.7,5.4,0.7,7.3
	c-2.3,4.6-6.2,7.6-11.8,7.7s-10.9-0.2-13.2-6.4c-2.1-5.6-4.1-11.2-5.6-16.9c-1.6-6-5.4-10.3-9.7-9.1c-11.8,3.4-23.7,6.6-32,16.9
	c-3,3.6-4.1,6.7-3.2,11.6c2.4,12-2.5,16.8-15.2,16.2l-5.8-1l-6-0.6c-2.7,2.1-5.3,2.2-8.1,0.1l-3.9-0.1l-3.8,1.8
	c-1.8,0.7-3.6,1.8-5.5,1.9c-9.9,0.8-19.9,1.4-29.8,1.8c-6.8,0.3-13.2-0.6-18.3-6.1c-4.7-5-11.2-6.3-17.5-5.3
	c-11.2,1.6-22.2,4.2-33.2,6.6c-15.6,3.4-31,5.3-44.6-6c-4.1-3.4-9.2-3.6-14.3-3c-5.5,0.7-10.1-0.6-15-3.8
	c-11.4-7.4-24.1-10.7-37.9-10.7c-6.5,0-13.1-1.6-19.6-2.3c-3.9-0.4-8.5-1.6-11.6-0.1c-6.8,3.3-13.5,2.9-20.5,2.9
	c-4.6,0.1-9.3,0.5-13.9,1.2c-10.8,1.6-21.6,3.3-32.5,5l-12.4,1.3c-7,1.5-13.7,5.4-21.1,2.2c-10.2-4.3-22.3-1.9-31.8-9.1
	c-1.6-1.2-4.5-0.8-6.7-1.2l-2.3-1.4l-5.6,0.1c-4.8,2.6-9.6,2.8-14.4,0l-9.6-0.2l-2.1-0.1l-20-4l-14.3-1.5c-9.1-1.9-18.2-4-27.3-5.7
	c-3.5-0.6-7.8-1.4-10.8-0.1c-8.6,3.7-17.5,3.1-26.5,3.4c-9,0.3-17.9,1.1-26.8,2.3c-5.2,0.7-10.3,2.5-15.3,4.3
	c-12.8,4.6-25.5,9.6-38.4,14c-5,1.7-10.4,1.9-15.6,3.1c-5.8,1.3-11.6,2.8-17.3,4.4c-4.3,1.2-7.1,4.4-7,8.7c0.1,9.8-5.3,14.5-13.8,17
	c-2.5,0.9-5,1.6-7.6,2.2c-10.4,2-21,3.5-31.4,5.8c-2.9,0.6-6.8,2.5-7.9,4.9c-2.1,4.8-2.6,10.5-3.7,15.2c7,5.1,15.5-4.4,21.1,4.6
	c-6.6,7.4-15.8,9-23.8,12.6c-7.2,3.2-14.9,5.3-22.3,8.1c-6.8,2.5-13.7,5.1-20.3,8.1c-3.3,1.4-6.2,3.6-8.4,6.4
	c-3.1,4.4-3.1,10.6-8,14.4c-1.1,0.9-0.5,5.3,0.5,7.5c2.6,5.6,5.9,11,8.4,15.7c5.7,1.6,11.8-0.7,13.9,6.6c-2.3,3.9-5.8,6.8-10,8.5
	c-12.8,5.6-25.4,11.6-38,17.6c-2.6,1.4-5.1,2.9-7.5,4.6c1.6,5.5,4.6,8.2,9.7,7.2c4.5-0.8,8.9-2.1,13.2-3.9c4.5-2,8.5-5.3,13.1-7.2
	c27.8-11.2,55.5-22.7,83.6-33c11.5-4.2,23-11.4,36.4-6.5c1.1,0.4,2.6-0.1,3.9-0.5c10.9-2.9,21.8-5.8,32.7-8.9
	c5.1-1.4,10.4-2.6,12.1-8.9c0.4-1.5,2.8-2.7,4.6-3.5c6.1-2.9,13.3-2.7,19.2,0.5c4.4,2.3,8.9,4.6,13.7,5.8c7.7,1.9,15.6,3.1,23.4,4.3
	c11.3,1.7,20.2,6.2,24.5,17.6c0.8,2.1,3.1,3.5,4.2,5.5c6.9,12,13.9,23.6,10.4,38.9c-2.4,10-3.1,20.4-2.1,30.7
	c1.3,12.3-3.2,22.3-9.5,31.4c-4.1,6-3.9,10.9-1.5,16.6c1.1,2.1,2.4,4,4,5.7c6.1,7.3,8.1,15,3.5,24c-3.5,6.8-5.8,14.3-10.1,20.5
	c-8.5,12.3-18,23.9-27.1,35.8c-4.6,6.1-10.6,11.7-13.1,18.5c-3.1,8.4-7.5,16.3-12.9,23.4c-2.2,3-3.1,7-4.2,10.7
	c-2.9,9.9-3.4,19.6,2.6,28.8c0.4,0.6,0.5,1.2,0.4,1.9c-3,13,0.7,25.8,0.8,38.6c0,9.8,0.7,10.2,10.1,12.8c9.9,2.8,17.2,9,19.1,19.4
	c1.9,9.5,2.9,19.1,3.2,28.7c0.2,10.7,1.9,20.2,9.1,28.7c5,5.9,3.8,9.3-2.8,13.5c-5.4,3.5-6.5,8.2-2.1,13.1c3.4,4.1,7.5,7.6,12,10.5
	c4,2.4,5.7,5.1,5.9,9.5c0.2,3.7,0.7,7.3,1.7,10.8c0.8,3.2,2.4,6.1,4.4,8.6c5.1,5.6,10.6,10.9,16.2,16.1c1.5,1.4,4.4,3.2,5.8,2.6
	c2.1-0.8,4.9-3.5,4.9-5.4c-0.1-3.9-1.2-7.7-3-11.1c-2.6-4.9-6.1-8.9-7.1-15c-1.5-9.1-3.6-18.5-7.4-26.8c-6.4-13.9-7.1-29-11.2-43.4
	c-1.1-3.7-0.6-8,0-11.8c0.6-3.5,3.7-6,7.3-5.7c4.3,0.1,5.5,3.2,5.7,6.8c0.3,4,0.3,8,0.1,12c-0.6,9.1,2.6,16.4,7.8,23.9
	c6.3,9.1,10.8,19.6,15.8,29.6c0.8,1.6,0.7,3.9,0.5,5.8c-0.5,4.9,1.6,8.3,5.4,11c9.4,6.4,15.2,15.6,20.1,25.6
	c1.6,3.6,3.6,7.1,5.8,10.4c6,8.4,6.9,16.8,2.3,26.2c-3.6,7.4-1.5,21.5,5,24.7c7.4,3.7,13,8.8,18.5,14.5c1,0.9,2.2,1.5,3.5,1.8
	c7.4,2.3,14,5.7,19.5,11.5c2,2.1,5,3.3,7.7,4.5c14.1,5.9,28.3,11.7,42.5,17.5l6.4,1.3h5.2l2.6-1c2.9-0.8,6-1.1,8.7-2.3
	c8.4-3.8,14.9-0.3,20.7,5.3c3.8,3.7,6.9,8.2,10.8,11.8c5.6,5.2,11,11.4,17.7,14.3c11.2,4.8,23.3,7.6,35.2,10.5
	c7,1.7,12.7,4.8,15.8,10.9c3,5.9,5.3,12,6.9,18.4c2.4,9.5,6.1,17.1,16.2,21c6.6,2.5,13.2,6.5,16.2,13.9c2,4.9,6.6,6.7,11.3,7.3
	C642.7,1016.7,648.8,1018.7,653.9,1024.5z"/>
<path class="st0" d="M758,837.9c-3.8-2.7-8-4.8-12-7.1c-9.1-5.3-18.5-10-26.5-17.3c-13.1-12.1-30.2-16-47-20c-1.3-0.3-2.7-0.2-4,0.1
	c-8.1,1.7-16.6,2.5-24.2,5.5s-14.7,7.7-16.3,18.6c8.1,0.3,14.1-2.7,20.1-5.1c6.5-2.8,13.8-2.9,20.3-0.3c2.2,0.8,4.5,1.8,6.7,1.7
	c16.7-0.2,26.2,13,38.6,20.6c1.4,0.8,1.8,3.4,2.4,5.3c2,6.2,3.3,7.7,9,5.9c6.1-1.8,10.8-0.6,15.9,2.5c5.6,3.4,11.6,2.4,16.8-1.7
	C761.9,843.6,762.1,840.8,758,837.9z"/>
<path class="st0" d="M797.7,873.8c8.5-1.2,16.7-3.6,25.1-5.2c3.2-0.6,6.5-1.5,6.4-5c-0.1-2.5-1.9-5.9-3.9-7
	c-8.7-4.7-17.8-8.7-26.7-12.8c-1.2-0.5-2.6-0.7-3.9-0.6c-8.8,0-17.5,0-26.3,0c-4,7.2,8.1,9.2,4.7,15.9c-6.2,3.4-15.5-1.3-21.8,9.3
	C767.7,871.8,782.3,876,797.7,873.8z"/>
<path class="st0" d="M1223.8,1201.8l-5.4-1.7c-4.2-3.2-8.7-5.9-12.4-9.5c-8.3-8.1-16.6-16.1-28.3-19.2h-5.4l-14.4,0.3l-5.7-1.6
	l-18.6-7.3c-0.5,0.1-0.9-0.2-1.1-0.7c0,0,0,0,0,0l-42.7-20.6l-3.4-1.5c-5.8-2.4-11.3-5.7-17.4-7.1c-10-2.3-14-9.2-16.5-17.9
	c-0.9-3.2-1.2-6.9-3.2-9.3c-5.6-6.7-7.6-14.5-9.6-22.6c-1.5-6-3-12.2-8.5-16.5c-4.4-3.4-8.3-7.5-12.5-11.1c-2-1.7-3.9-4-6.3-4.7
	c-11.1-3.1-21.8-7.8-33.9-6.8c-15.4,1.4-25.9-6.7-33.1-19.2c-4.5-7.8-9.9-13.7-18.7-16.8c-8.6-3.1-11.4-10.4-8.7-19.3
	c0.4-1.3,1-2.5,1.3-3.8c1.3-6.2-0.1-7.8-5.8-10.6c-6.7-3.3-13-0.8-19.4,0l-18.3,1.4c-11.7,8.2-16.1,8.2-27.8,0.4l-12.2-1.7
	c-4.6-1.8-9.3-3.3-13.6-5.6c-7.6-4-14.5-9.4-22.3-12.6c-6.6-2.7-14.1-3.3-21.3-4.2c-2.2-0.3-5.1,1.3-6.8,2.9
	c-6.5,6.2-14.1,9.2-22.9,11.1c-11.5,2.4-21.8,7.2-25.3,20.5c-2.6,9.9-14.2,16.1-24.3,14.2c-4.9-0.9-9.8-1.7-14.7,0.9
	c-0.2,5.1-3.3,10.7,4,13.7c0.7,0.3,1,1.6,1.3,2.5c2,5.2,3.7,10.5,6,15.6c7.7,16.6,5.2,33.2-0.5,49.4c-2,5.8-6.6,10.3-11.5,14.7
	c-5.9,5.1-9.4,13-15.3,18.2c-11.4,10-15.9,22.6-16.2,37c-0.1,4.9,0,10.6,2.3,14.5c5.7,9.6,2.9,16.8-3.3,24.5
	c-2.4,2.9-4.8,7.1-4.6,10.6c0.7,11.7,2.5,23.2,13.4,30.7c10.1,7,14.8,17.5,18.4,28.8c1.8,5.7,4.6,10.9,8.5,15.4
	c13,14.6,20,32.9,30.7,48.9c0.2,9.2,6.5,15.3,12.1,21.1c5.3,5.7,8.9,13.1,17.3,15.9c14.2,4.7,27,12.1,39.4,20.9
	c15.5,10.9,20.3,25.7,21.5,42.7c1.2,16.3,1.3,32.6,2.1,48.8c0.2,5,1,9.9,1.4,14.9c0.9,13.3,1.7,26.5,2.5,39.8c0.1,2,0,4-0.5,6
	c-4.1,16.1-0.8,31.7,2.8,47.3c2.3,10,5.5,19.9,6.7,30c1,8.1-0.2,16.5-1,24.7c-1,10.9-2.7,21.7-3.9,32.6c-0.2,2.2-0.2,4.9,0.8,6.8
	c6.7,12.9,9,27,11.6,41.1c1.8,9.7,4.9,19,12,26.9c10.4,11.5,14.6,26.1,16.8,41c1.2,8,2.5,15.5,6.9,22.6c2.2,3.5,2.7,8.1,3.6,12.3
	c2.1,10.4,3.3,21.1,10.3,29.8c1.2,1.5,1.5,3.7,2.6,5.3c7.8,13,12.8,27.8,24.2,38.6c7.3,7,14.5,13.7,26.3,9.7
	c10.1-3.5,21.1,1.9,24.6,12c0.1,0.4,0.3,0.8,0.4,1.2c1.7,6,4.9,7.9,10.7,8c4.9,0.1,9.8,1.3,14.8,1.8c7.9,0.8,15.8,1.7,23.7,2
	c1.8,0.1,4.8-1.8,5.1-3.3c0.5-2.1,0-5.7-1.5-6.9c-2.7-2-6.4-3-9.8-3.9c-16-4.3-29.7-11.4-36.7-27.7c-1.5-3.4-4.5-6.5-7.5-8.9
	c-8-6.6-13.1-15.4-5.9-26c0.6-0.8,1-1.8,1-2.8c-0.9-7.3,3.8-11.5,8.3-16.1c8.3-8.4,6.7-17.2-3.8-22.3c-9.8-4.8-12.6-15.3-7-24.9
	c2-3.4,5.1-7.8,4.3-10.8c-2.5-8.7,1.1-14.7,6.2-20.8c1-1.3,1.7-2.9,1.9-4.5c1.2-9.5,5.2-17.7,10.6-25.5c2-2.9,2.8-6.7,3.5-10.3
	c1.6-7.6,6.3-12.3,13.3-14.9c2.5-0.9,5.1-1.6,7.6-2.5c11.4-4.2,21-10,21.7-24c0.2-1.7,0.6-3.3,1.4-4.8c4.4-10,7.6-20.4,17.3-27.4
	c5.1-3.8,9.3-8.7,12.3-14.2c4.7-8.4,8-17.5,11.7-26.4c3.2-7.6,5-16.1,12.4-21.1c8-5.3,6.2-16,12.5-22.1c1.3-1.5,2.8-2.9,4.3-4.2
	c3.6-2.6,5.6-6.9,5.3-11.3c-0.4-6.6-1.3-13.2-2.5-19.7c-2-11.2-3.3-22.3,7.4-29.9c6.2-4.4,13.1-7.7,19.8-11.3
	c3.2-1.7,6.9-2.6,9.9-4.5c6.7-4.4,14.4-6.9,22.4-7.3c8.4-0.4,17.5-0.6,21.5-10.7c0.4-1.1,2-1.8,3.1-2.4c4-2.3,5.3-6,4.8-10.2
	c-0.6-5.7,1.8-10.1,4.6-14.9c3.2-5.7,6.3-12,7.1-18.3c0.9-7.2-0.3-14.4,4.6-20.9c1.4-1.8,1-5.1,1.3-7.7c0.4-4,0-8.1,1.2-11.9
	c1.8-5.8,0.7-10.9-0.9-16.5c-4.1-14.4-3.6-28.1,7.7-40c4.2-4.5,6.6-10.7,10-16c2.1-3.3,4.1-6.8,6.8-9.6
	c15.3-15.8,23.6-34.5,23.2-56.6c-0.2-9.2-3.3-17.6-8.1-25.4C1236,1203,1229,1204.4,1223.8,1201.8z"/>
<path id="europe" class="st0" d="M2930.6,912.1c1.5,5.7,4.5,11,7.1,16.5c7.3,15.5,13.5,31.2,8.6,48.9c-0.3,1-0.4,2-0.1,3
	c2.9,7.3,0.5,14.4-0.1,21.6c-0.5,6.8-1.2,13.8,4.4,19.7c11.1,11.5,19.8,25.2,25.5,40.1c7.7,19.9,16.6,38.7,37.6,48.3
	c4.1,1.9,7.8,6.3,12.5,2c4.3-3.9,1.1-8.3-0.6-11.9c-4.9-9.9-7.4-20.8-7.3-31.8c-0.1-3-1-5.9-2.4-8.5c-5.8-11-13-21.2-23.4-28.2
	c-10.9-7.3-16.9-17.4-20.9-29.4c-1.1-3-3.2-5.6-6-7.2c-3.6-1.8-5.2-4.1-5-7.7c0.6-11.9,4-23,10.9-32.7c4-5.6,14.9-6.5,19.8-1.7
	c5,4.8,9.6,10.1,13.6,15.8c5.6,8.1,10.3,16.8,15.5,25.2c2.4,4,5.1,7.8,7.9,11.5c4.4,6,7.4,6.3,13,1.3c1-0.9,1.8-1.9,2.8-2.9
	c9.4-9.2,16.9-20.3,29.1-26.7c6.4-3.4,11.7-9.2,12.7-17.1c1-8.6,1.5-17.3-2.5-25.5c-1.4-3-1.7-6.4-2.9-9.5
	c-2.3-5.8-3.8-12.3-7.4-17.1c-7.6-10-16.4-19.2-24.7-28.7c-4.6-5.3-9.4-10.3-13.8-15.7c-6.8-8.6-2.5-16.8,1.3-25.2
	c3.1-6.9,9.3-10.6,15.3-13.5c5.2-2.5,8.6,3.8,13,5.7c0.6,0.3,1.2,0.7,1.6,1.2c8.5,7.9,17.8,8.1,27.6,2.6c8.4-4.7,16.8-9.6,25-14.6
	c8.7-5.3,16.7-12.1,25.9-16.1c10.4-4.5,18.7-11.3,25.9-19.3c8.1-9,16.2-18.4,17.1-31.6c0.1-2.2,1.5-4.4,2.2-6.6
	c4.2-12.8,10.2-24.8,10-39c-0.2-15-4.7-28.4-13.5-39.6c-5.5-7-11.4-13.6-16.3-21.1c-4.6-6.9-10.2-13.1-15.6-19.4
	c-6.5-7.7-6.6-9.7-1.4-18.5c2.7-4.7,6.1-7.7,11.6-8.4c3.9-0.5,7.7-2,7.1-6.6c-0.6-4.5-4.7-4.8-8.5-5.2c-3.9-0.3-7.8-1.2-11.6-2.5
	c-4.6-1.8-8.7-2.2-13.5-0.6c-2.8,0.9-7.4,1-9.3-0.7c-4.3-3.6-7.8-8-10.3-13c-3.9-8-0.4-17,6.9-21.5c5.4-3.3,11.4-0.4,12.4,5.9
	c0.6,3.5,1.6,7,3.1,10.2c2.4,4.9,5.2,5.5,9.4,2.3c2.4-1.8,4.2-4.3,6.5-6.2c10.3-8.4,26.8-4.3,28.9,8c1.4,8.1,6,11.5,11.9,15.8
	c12,8.6,22.9,18.2,25.6,34.1c0.8,5,4.2,9.5,6.1,13.7c10.6,1.8,17.4-5.1,25.7-7.3c7-1.9,7.9-5.2,5.6-12.2
	c-6.2-19.1-18.6-33.6-34.4-45.3c-1.9-1.4-4-2.4-5.8-3.9c-6.4-5.5-6.6-8-0.5-13.6c5-4.7,9-9.6,9.7-16.8c0.2-2.2,1.6-4.4,2.4-6.5
	c3.8-10.1,6.9-12.2,17.8-12.2c12.7,0,18-4.2,21.1-16.6c1.8-7.1,3.1-14.4,5.5-21.2c2.6-7.3,4.6-14.4,4.6-22.3
	c0.1-5.7,1.2-11.3,3.2-16.5c1.5-4.1,4.3-9.5,7.7-10.5c5.2-1.6,9.8,2.9,13.2,7.2c0.9,1.4,1.7,2.8,2.4,4.4c4.4,7.4,8.9,14.9,13.3,22.3
	c0.5,0.8,1.2,1.6,1.9,2.3c4.3,4,10.3,4.3,14.6,0.9c3.7-2.9,3.6-6.6,0.4-12.5c-2.7-4.9-4.9-10.1-7.3-15.2c-3.1-6.6-5.9-13.3-9.5-19.7
	c-1.5-2.6-3.8-4.7-6.6-5.8c-8.3-2.7-12.8-9.1-17.2-15.9c-2-3-4.7-5.6-7.1-8.4c-3.4-4.1-6.7-8.1-10.1-12.3c-1.3-1.5-2.1-4-3.7-4.6
	c-8.9-3.6-13.2-11.9-19.6-18.1c-2.3-2.3-5.3-3.7-8.5-4c-9.9-0.4-19.9,0.1-29.9,0.3l-6.3-1.3c-2.6,0.4-5.2,0.7-7.8,0.8
	c-3.1-0.1-6.6,0.1-9.4-1.1c-6-2.8-11.8-6.1-17.4-9.7c-2-1.3-4.9-4.2-4.6-5.7c1.7-7.7,0.1-16,4.6-23.2c2.1-3.4,3.7-7,4.9-10.8
	c3.6-10.8,11.1-16.1,22.3-16.2c4.3,0,8.6,0.6,12.9,0.9c3,0.2,6.1,1.2,8.8,0.5c12.8-3.4,25.8-1.3,38.7-1.9c3.2-0.1,7,0.4,9.5,2.1
	c11.2,7.5,23,4,34.6,2.3c5.4-0.8,6.5-5.1,3.8-10c-1.6-2.9-4.2-5.1-6.1-7.9c-4.7-6.9-2-14.8,6.1-16.2c7.3-1.3,15-1.3,20.6,4.5
	c5.4,5.5,11.9,6.6,18.9,7.1c1.7,0.1,3.4-0.2,5,0c6.6,0.9,8.5,3.4,6.7,10.1c-1.5,5.4-3.5,10.7-5.8,15.7c-4.8,10.3-6,20.7,0.8,30.2
	c6.9,9.7,14,19.3,23.9,26.6c6.9,5.1,12.3,12.1,18.7,17.9c11.3,10.2,22.7,20.4,34.5,30.1c4.2,3.5,8.3,1.6,9.8-3.7
	c2.2-8,5-16.1,5.7-24.3c1.2-13.7,4.1-28.4-9.9-38.4c-0.5-0.4-0.9-1-1.1-1.7c-2.9-9.1-8.7-16.3-15.4-22.9c-2.8-2.9-5.2-6.1-7.3-9.4
	c-4.3-6.4-2.6-12.1,4.4-15.4c3.3-1.6,6.9-2.5,10-4.4c3.4-2.2,7.5-2.8,11.4-1.6c10.2,2.9,18.2-1.1,24.8-8.8c2.8-3.3,5.6-6.6,8.6-9.7
	c6.6-6.5,13.9-11.3,23.8-10.8c2.3,0,4.6-0.5,6.7-1.5c5.9-2.5,6.3-6.6,1-10.3c-2.6-1.8-6-2.5-9.1-3.7c-6.1-2.5-12.5-4.6-18.3-7.8
	c-4.7-2.5-5-7.5-0.9-10.7c5.6-4.4,11.7-6.9,19.4-4c12.1,4.5,24.6,8.3,37,11.9c3.4,1,7.3,0.2,10.9,0.7c8.6,1.1,13-9.2,9.6-15.4
	c-2.3-4.2-5.9-8.4-10.1-10.6c-9.4-4.9-19-9.3-29.9-10.8c-15-2.1-30.1-4.1-44.4-10.5c-12.6-5.6-26.3-9.3-39.8-12.4
	c-15.9-3.6-32-6-48.1-8.4c-17.1-2.5-34.3-4.4-51.4-6.4c-18.2-2.1-36.4-3.8-54.4,1.6c-3.1,0.9-6.6,0.7-9.9,0.7c-15,0-30,0.1-45-0.2
	c-9.3-0.2-18.6-1.1-26.1-7.9c-1.3-1.1-2.8-1.8-4.5-2.1c-17.6-3.4-35.1-7.9-53.3-5.8l-4.3,1.3h-17.8l-2.5-1.1c-1-0.1-2-0.2-3-0.4
	c-12.7-3.8-25.2-8.4-38.1-11.1c-12.6-2.7-25.6-3.4-38.4-5l-16.3-1.3c-5-0.3-10.1,0.1-14.9-1.1c-14-3.3-26.7-1.3-39.4,5.6
	c-13.4,7.4-27.7,11.4-42.7,3.5c-5-2.6-10.2-4.7-15.1-7.5c-9.3-5.5-18.6-9.5-29.9-9.2c-10.9,0.3-21.9-1.3-32.7-2.8
	c-26.4-3.7-52.8-5.9-79.2,0.5c-2.8,0.7-6,0.3-8.9,0c-6.6-0.5-13.2-1.5-19.8-1.9c-9.3-0.6-16.6-4-21.3-12.3
	c-3.7-6.8-9.7-12.1-16.9-14.9c-4.6-1.8-9.4-3.7-14.2-4.3c-18-2.4-36.3-2.6-54.2-6.5c-4.2-0.9-8.6-1.4-12.6-3
	c-14.2-5.8-27.2-3-40,4.2c-3.7,2.1-7.9,3.5-11.9,5.2l-16.1,1.9c-10.8,1.9-21.5,4.5-32.3,5.5c-12,1.1-22.7,6.3-32.4,11.9
	c-10,5.8-21,9.5-32.4,11c-3.4,0.5-8.1,1.5-9.7,3.9c-5.4,8.3-13.4,8.8-21.7,9.7c-7.2,0.8-14.3,1.9-21.4,3.2c-6.8,1.2-13,1.5-18.9-3.2
	c-2.5-2-5.9-2.9-8.9-4.2l-14.4-0.2c-0.7,0.1-1.3,0.1-2,0.3c-10.3,2-10.2,2-11.9,12.3c-0.4,1.9-1.3,3.6-2.5,5
	c-2.9,3.6-6.5,6.6-9.1,10.4c-4.1,6.1-9.6,8.9-16.9,8.7c-4.3-0.1-8.8-0.6-13,0.1c-6.1,1.1-12.8,2-17.9,5.1c-13.6,8.3-28,9.1-43.1,7.4
	c-8.9-1-18.1-3-26.4,1.8c-9.4,5.4-19.7,7.7-30.1,10.1c-7.7,1.8-14.2,0.8-20.5-4.3c-6.7-5.4-14.3-5.3-21.2-0.6
	c-2.1,1.6-4.1,3.4-6,5.2c-4.3,3.7-8.7,6-14.4,2.4c-1.8-1.2-4.5-1-6.7-1.6c-5.8-1.5-11.8-2.4-17.2-4.6c-9.8-4-20-7.2-30.4-9.6
	c-14.5-3.1-29.3-5.3-42.6-13.1c-7.1-4.3-15-6.9-23.3-7.9c-19.5-1.8-39.1-2.1-58.7-2.8c-3.2-0.1-7.6-0.1-9.5,1.8
	c-8.1,7.8-18.5,6.4-28.1,8.2c-2.2,0.4-4.9,0.4-6.6,1.7c-13.6,10.5-27.8,20.3-38.9,33.8c-1.5,1.8-3.5,3.1-5.1,4.8
	c-7.4,7.6-14.8,15.2-22.3,22.7c-3.3,3.3-6.4,6.9-10.2,9.4c-15.2,10-31.4,18.4-47.9,26.1c-6.3,3-10.9,6.4-9.6,14.2
	c1.4,8.5,2.9,16.9,4.3,25.4c0.6,0.3,0.9,1,0.8,1.6c0.7,8.9,4.5,15.6,13.3,18.8h7.7l4-0.5l4-1.5l16.1-10.5l1.7-1c0.7,0,1.4-0.3,1.9,0
	c11.3,6.5,17.5,17.9,25.3,27.6c2.4,2.9,1.4,6.4-2,8.6c-2.8,1.8-5.6,3.6-8.3,5.4c-3,2-3.7,5.2-1.8,7.8c1.2,1.7,4.6,3.3,6.6,2.9
	c10-2,20.6-2.3,29-9.3l3.4-1.5c1.3-0.3,2.6-0.9,3.9-0.7c6.3,0.8,9.1-2.6,10.2-8.2c1.3-6.5,2.7-12.9,3.5-19.5c0.6-4.5,2-7.6,6.9-8.1
	l3.6-1.6c1-0.8,2.1-1.6,3.1-2.5c10-9.1,10-14.6,0-23.6c-1-0.9-2.1-1.6-3.1-2.5c-9.4-8-8.3-19.8,2.6-25.6c2.9-1.6,5.8-3.2,8.7-4.9
	c8.5-4.8,16.4-9.9,20.1-19.8c1.8-4.9,6.2-8.3,11.4-8.8c6.4-0.5,12.9,0.7,19.4,1.2l-0.1,3.4c-8.6,6.8-16.9,13.8-25.8,20.2
	c-6,4.3-9.3,9.5-8,16.9c0.8,4.9,2.1,9.7,3.3,14.5c2.2,8.9,10.1,11.7,16.8,15.8l3.7,1.3c6.3,1.5,9.4,5.8,9.6,12s-2.7,9.8-8.8,12.2
	l-2.5,1c-9.4,1.3-13.4,7.6-15.1,16.1c-0.3,2.3-0.7,4.6-1.3,6.8c-2,6.7-4,13.5-11.8,15.9l-3.9,1.5l-14.2,0.5l-3.5,0.9
	c-5.4,1.4-10.8,2.8-16.2,4.3s-10.7,3.2-16,4.9l-2.1,1.3c-1.6-0.8-3.7-1.3-4.7-2.6c-5.4-6.9-11.8-8.5-19.7-4.9l-3.6,1.4
	c-5.5,5.1-9.9,0.3-14.4-1.8c-4.2-2-4.5-6.3-4.2-10.4c0.2-2.3,1.1-4.5,1.2-6.8c0.5-5.6,0.7-11.1,0.6-16.7c-0.2-3.7-2.9-6.6-6.7-5.5
	c-6,1.7-12.8,3.6-15,10.2c-2.2,6.3-6.3,12.4-4.1,19.9c0.8,2.8,0.3,6,0.5,8.9c0.3,3.8-1.2,6.5-4.5,8.1c-4.8,2.3-9.5,4.5-14.3,6.8
	l-3,1.3l-6.5,2.7l-1.5,1.4c-2.7,2.4-6.1,4.3-8,7.2c-7,10.6-17.5,16.4-28.2,22.1c-2.9,1.6-4.8,5.1-7.2,7.7c0.2,0.5-0.2,1.1-0.7,1.2
	c-0.1,0-0.1,0-0.2,0l-4.1,4.3l-3.7,1.5c-6,3.8-11.8,6.4-19.2,3c-4.3-2-8.8-0.2-11.8,4.4c-1.3,2-3.7,3.4-5.6,5.1
	c0,0.4-0.4,0.7-0.8,0.7c-0.1,0-0.1,0-0.2,0l-4.8,0.7l-7.6,0.5l-4,0.3l-5.9,1.5l-6.2,3.6l6.2,11.4l3.6,1.5
	c12.8,1.1,30.4,17.3,31.6,29.5c0.3,2.9-0.6,5.9-1.1,8.7c-0.8,3.9-1.9,7.7-2.6,11.5c-1.9,10.1-2.6,10.7-12.9,10.1
	c-1-0.1-2-0.3-2.9-0.4l-3.7,0.1l-11.9-1.2c-2.1,2.1-4.3,2.1-6.4,0l-5.6-0.7l-24.4-1.3l-4.1-1.1h-3.5l-14.7,9.8
	c0,10.2,0.5,19.4-0.1,28.5c-0.6,9.6-3,18.8-8.5,27.1c-1.4,2.1-1.9,6.7-0.6,8.3c4.3,5.3,3.6,11.1,3.8,17c0.3,6.6,1.3,7.7,7.3,8.2
	c1.7,0.2,3.3,0.2,5,0c8.5-1.6,15.5,0.9,21.9,6.7c4.9,4.4,12,6.9,17.5,4.2c9.1-4.5,18.1-2.7,27.2-3.2l2.7-1.3
	c4.3-3.2,8.2-6.9,12.8-9.4c8.4-4.4,8.3-14.8,15.1-20.2c0.6-0.5,0.6-2.8,0-3.8c-2.9-5.2,0.2-8.8,3.1-12.5c2-2.6,4.2-5.2,6-8
	c2.9-4.6,6.1-7.6,12-9.2c6.1-1.7,12-6,16.4-10.7c2.6-2.8,2.5-8.5,3-13c0.8-7.4,6.2-12.1,14.6-11.3c5.2,0.5,10.3,2.4,15.6,3.3
	c2.9,0.5,6.4,1.6,8.7,0.5c7.4-3.5,14.5-7.5,21.3-12c6.4-4.4,7.1-5.1,12.9-0.3c3.3,2.6,5.7,6.3,8.4,9.6c3.8,4.6,7.1,9.6,11.3,13.7
	c9.4,9.4,20.6,16.9,32.9,22.1c8.6,3.7,14.1,11,19.8,17.8c5,6,1.1,15.8-6.4,16.9c-7.8,1.2-15.8,1.3-23.7,1.8c-3.3,0.2-7.6-0.2-8,3.8
	c-0.2,2,2.7,5,4.9,6.4c6.5,4,13.4,7.5,20.2,10.8c5.3,2.6,9.6,0.6,9.6-5.5c0-6.2,2.6-9.2,8.1-10.7c1.6-0.5,3.1-1.3,4.4-2.3
	c5.6-4,9.9-15.5,7.5-21c-1.2-2.8-3.6-5.9-0.4-7.9c2-1.3,5.5-0.2,8.3,0.1c0.9,0.1,1.6,1.4,2.5,1.5c2.1,0.2,4.3,0.2,6.4,0.1
	c0-2.5,0.9-5.7-0.3-7.3c-2.3-3.1-5.7-5.6-8.9-7.9c-5.2-3.6-10.8-6.6-15.9-10.3c-3.7-2.7-7.8-4.8-12.2-6.1c-6.5-2-13-5.7-16.1-12.4
	c-2.5-5.3-5.4-9.8-10.2-13.2c-1.6-1.2-3-2.7-4-4.4c-2.4-4-2-10.4,0.8-13s6.7-4.4,10-2.1c6.4,4.6,13,9.4,18.1,15.3
	c4.7,5.5,9.7,9.6,16.6,12c3.3,1.1,6.3,3.3,9.3,5.3c2.2,1.5,3.9,3.8,6.2,4.9c11.9,6.1,17.3,15.9,17.3,29.1c0,2.6,0.2,5.6,1.5,7.6
	c6.2,9.8,13,19.2,19.3,28.9c2,3,4.5,6.4,4.6,9.7c0.2,10.3,7.4,12.3,15.1,14.1c4.6,1,7.5-0.3,9.1-5.2c4.2-12.5,9.8-24.7,3.3-38.1
	c-0.2-0.6-0.4-1.3-0.4-2c-0.8-6.4,5.2-15.8,10.3-16.1c8.8-0.5,16.7,5.2,17.3,12.7c0.4,4.7,0.6,9.3,0.4,14
	c-0.2,8.4,2.9,15.9,7.7,22.3c3,3.9,8,7,12.7,8.8c7.3,2.8,15.4,3.7,22.8,6.3c4.2,1.5,7.4,1.6,11.2-0.9c2-1.3,5.1-2.7,7.1-2.1
	c6.3,1.9,12.2,4.7,18.3,7.2h14.1c3.1-1.9,6-4.4,9.3-5.7c6.8-2.5,15.3,1.1,16,7.6c0.9,8.2,0.5,16.5-1,24.7c-1.9,9.7-5.6,19-8.6,28.5
	c-0.9,2.8-1.4,5.9-2.8,8.5c-3.4,5.9-3.9,13-1.4,19.3c3.2,8.7,7,17.1,10.2,25.8c4.9,13.3,12.5,24.9,20.6,36.4
	c4.4,6.2,7.7,13.2,11.7,19.6c1.8,3.1,4.1,5.9,6.7,8.3c9,7.6,15.1,18.2,17.3,29.8c0.8,4.2,1.6,8.5,2.7,12.7c1.8,7,5.4,12.6,11.8,16.6
	c4,2.4,7.4,5.7,9.9,9.6c7.3,12.1,15.9,24,20.4,37.2c5.4,15.8,13.3,30.4,19.6,45.6c1.9,4.7,6.1,8.7,10.1,12c2.1,1.7,6.5,2.4,9.2,1.5
	c8.8-2.9,17.3-6.6,25.8-10.3c11.8-5.2,23.4-10.8,35.2-16.2c2.7-1.3,5.6-2.2,8.5-2.9c9.1-1.9,17.3-5.1,21.4-14.4
	c0.3-0.6,0.8-1.1,1.3-1.5c2.5-2.2,4.8-4.9,7.7-6.3c11.1-5.6,22.5-10.5,32.9-17.9c11.7-8.3,24.1-15.2,27.4-30.9
	c0.6-3.1,3-5.8,4.6-8.8c4.1-7.9,8.5-15.8,12.1-23.9c1-2.7,0.9-5.8-0.4-8.4c-3.4-5.7-7.5-11-12.2-15.8c-2.9-2.7-6.5-4.2-10.4-4.5
	c-5.4-0.1-8.8-2.1-11.5-6.4c-1.8-2.8-4-5.4-5.8-8.1c-7.4-11-17-11.7-24.6-1.1c-4.5,6.3-10.2,9.4-17.7,9.5c-5,0.1-10,0-15-0.5
	c-5.7-0.6-6.2-1.5-5.4-7.8c0.9-6.5,0.8-13-3.9-18c-4-4.4-8.7-8.1-13.8-11.1c-13-7.2-22.5-17.3-27.9-31.1c-2.7-6.9,2.4-15.5,9.3-15.2
	c5.2,0.2,11,1,14.2,6s5.7,10.4,8.6,15.5c2.1,3.7,3.5,9.1,6.6,10.6c11.4,5.3,20.9,13.7,33.3,17.8c9.4,3.1,16.7,1.8,24.8-1.1
	c1.2-0.4,2.2-1.5,3.4-2.1c3.2-1.7,5.9-0.8,7.6,2.3c1.2,2,2.2,4.1,2.9,6.4c1.7,6.3,5.8,9.1,12.1,10.2c15.1,2.6,30.1,5.5,45.1,8.4
	l2.4,0.4l13.7-0.4l2.3-0.3c3.9-0.5,7.9-1.2,11.8-1.6c7.6-0.8,15.2-1.7,22.8-2.3c4.7-0.4,8.2,1.8,11.1,5.5c6,7.5,12.1,14.8,20.4,20.2
	c5.3,3.5,8.7,8.8,11.3,14.8c1.8,4,5.1,7.5,8.1,10.8c3.8,4.1,8.4,7.5,11.9,11.9c3.2,4,6.2,5.7,11,3.3c1.8-0.8,3.7-1.4,5.7-1.8
	c7.2-1.8,12.5,1.6,13.7,8.9c1.6,9.5,2.1,19.2,4.9,28.3c5,16.5,11.1,32.7,17.4,48.8c2.8,7,7.3,13.4,10.5,20.3
	c2.3,4.8,3.4,10.1,5.5,15c7.1,16.4,14.4,32.8,21.8,49.2c1.4,3,3.3,5.8,5.5,8.3c5,5.9,9.6,6,15.3,0.7c2.2-2,4-4.5,6.3-6.4
	c10.7-8.8,19.2-18.7,17.4-34c-0.1-1.3,0.5-2.6,0.6-3.9c1.8-15.5,5.4-30.8,1.8-46.6c-0.8-3.6,0.8-9.4,3.4-11.8
	c8.3-7.7,16.9-14.8,23.3-24.2c0.5-0.8,1.8-0.9,2.5-1.6c2.7-2.8,5.4-5.8,8-8.7c8.3-9.3,13.7-21,26-26.8c5.4-2.5,11.2-7.1,11.4-14.2
	c0.2-5.6,2.8-9,7.4-10.7c5.5-2,11.3-3.1,16.9-4.7l2.4-0.4c4.9-1,9.8-2,14.7-3.1c9.1-2,11.2-0.9,16.3,6.9c4.3,6.7,9,13.1,13.7,19.4
	c5.2,7,13.9,11.1,16.7,20.3c1.6,5.4,4.7,10.4,6.3,15.8c1.2,4.5,1.8,9,2,13.6c0.3,3.6-1.5,7.9,0,10.5c1.4,2.5,6,3,9.2,4.5
	c2,0.9,3.9,2,5.9,3c1.7-1.5,2.9-2.7,4.2-3.6C2916.7,895.7,2926.6,897.4,2930.6,912.1z"/>
<path class="st0" d="M1649.4,331.6c2,2.6,4.7,4.8,2.7,8.5c6.1-2.1,9.1,4.1,14,5.3c5.1,1.3,6.9,5.9,8.9,10c1.4,2.9,1.3,6-3,6.8
	c-0.3,0.6-0.9,0.9-1.5,0.7l-4.8,0.3c-0.4,0.3-1,0.4-1.5,0.4c-2.1,2.8-5.1,5.4-6.1,8.6c-2.7,8.9-4.7,17.9-6.6,27
	c-0.6,3-1.2,7.1,0.4,9.1c2.5,3.3,6.6,1.7,10.1,0.1c0.9-0.4,1.8-0.9,2.7-1.4c6.4-4.3,13.4-5.6,20.9-4.9l2.4-1.2
	c8.1-0.3,16.2-0.7,23.7-4.4c3.7-1.8,7-3.5,6.9-8.3l1.4-2.3c0.6-0.8,1.3-1.5,2-2.2c10-8.1,6.2-14.3-3.3-16.9c-2.1-0.6-5-1.9-5.5-3.5
	c-2.5-8.7-5.8-16.8-13.4-22.4c-0.9-0.7-1-2.5-1.7-3.6c-5.5-9-8.4-18.4-8-29.2c0.3-7.3-5.3-13.8-11-16.4c-5.5-2.4-14.1-2.5-19.2,0.3
	c-6.2,3.4-10.1,10.9-15.1,16.7C1647,316.2,1644.1,324.8,1649.4,331.6z"/>
<path class="st0" d="M1628.4,335.3c-2.8,1.6-5.7,3.2-8.4,4.9c-4.2,2.6-8,6.1-12.4,7.8c-7.3,2.7-7.8,2.3-7.3,10.2
	c0.4,5.5-0.4,10.4-3.4,15.2c-3.4,5.3-2.7,8.8,2.1,14c3.7,4.1,7.2,4.3,13.3,1.4c5-2.4,10.2-4.5,15.3-6.8l2.3-1.1
	c7.2,0.6,10.8-3.5,12.4-9.9c0.7-2.8,1-5.8,1.7-8.6c0.4-1.9,0.6-4.7,1.8-5.3c7.7-3.8,6.5-10.5,6.3-17l-12.3-4.7L1628.4,335.3z"/>
<path class="st0" d="M1651.9,340.3L1651.9,340.3L1651.9,340.3L1651.9,340.3l0.1-0.1h-0.1L1651.9,340.3z"/>
<path class="st0" d="M3522.7,1176.3c-19.2-6.2-38-13.8-57-20.7c-5.5-2-11.1-2.4-16.4,0.4c-6.4,3.4-12.7,7.1-19,10.7s-9.4,3.1-13.1-3
	c-1.7-2.8-2.3-6.1-3.3-9.3c-0.6-1.9-0.4-4.1-1.4-5.7c-5.9-8.9-19.2-13.3-29.2-9.6c-6.1,2.2-12.1,4.8-18.8,7.4
	c-0.6,5,2.8,7.6,7.7,9.1c6.4,2,11.6,6.7,10.6,12.8c-1.7,9.5,4.9,15.4,7.2,23c1.5,5,5.2,6.3,9.4,3.4c6.2-4.2,11.2-1.9,16.7,1
	c4.2,2,8.4,3.8,12.8,5.3c4.6,1.8,9.5,3.2,14,5.3c11.8,5.5,16.7,15.7,13.8,28.6c-0.9,3.9-2.5,7.6-3.3,11.4c-0.7,3.3-0.8,6.7-1.3,11.6
	c5.8-0.6,10.2-0.4,14.1-1.6c8.2-2.5,15-0.4,21.4,4.6c2.9,2.2,5.6,4.7,8.4,7l2.4,1.2l13.4,0.3l4.3-1.4c5-1,7.7-4.6,10-8.8
	c2.1-3.7,4.6-7.2,7.5-10.3c2.7-2.9,6-3.3,9.9-1.6c8.4,3.7,15.4,8.5,19.4,17.4c3.5,7.5,8.5,14.3,16.9,17.3l4.4,1.3l5.3-0.1l6.8-0.1
	c3.1,1.8,6.2,3.7,9.4,5.6c4.1,2.4,7.9,1.3,10.9-1.9s0.5-6.1-1.7-8.7c-3.2-3.8-6.1-7.9-9.6-11.5c-2.2-2.4-4.8-5.7-7.6-5.9
	c-7.9-0.9-9.7-6.8-11-12.4c-1.2-5.4-0.8-11.2-0.6-16.8c0.3-7-3.4-12.3-9-14.2c-7.3-2.5-11.2-8-15.9-13
	C3550.4,1192.5,3539,1181.5,3522.7,1176.3z"/>
<path class="st0" d="M3189.1,1152.4c7.5-4.7,11.2-11.5,14.5-19.2c1.4-3.2,4.5-5.7,7.1-8.2c1.9-1.6,3.8-3,5.9-4.3
	c-4-10.8-7.6-20.1-10.9-29.4c-2.6-7.4-2.6-14.2,4.5-19.7c2.8-2.2,4.8-5.4,6.8-8.5c4.6-7.4,4.1-9.7-3.9-14
	c-7.7-4.2-14.8-8.8-19.8-16.2c-1.1-1.6-2.9-2.7-5.8-5.2c-3.7,5-7,9-9.8,13.4c-5.1,8-11.9,14.1-19.8,19.4c-4.3,2.9-7.8,7-11.7,10.5
	c-4.1,3.8-7.7,8.4-12.4,11.2c-11.1,6.6-22.8,12.1-34.1,18.4c-3,1.8-5.7,4.2-7.9,7c-5,6-7,12.5-3.9,20.3c1.5,3.9,0.9,8.6,1.9,12.8
	c1.2,4.8,2.7,9.5,4.6,14.1c2.4,6.1,5.6,11.9,7.8,18.1c1.5,4.2,3.6,6.6,8.1,7.6c4.1,0.8,7.9,2.8,11.9,4.1c2.1,0.7,4.6,1.9,6.5,1.4
	c8.8-2.2,16.9,0.8,23.9,4.7c9,5.1,16.6,2.5,24.5-0.8c2.3-0.9,4.2-3.9,5.3-6.3c2.9-6.7,4.1-14.1,3.6-21.4
	C3185.9,1158.8,3186.9,1153.7,3189.1,1152.4z"/>
<path class="st0" d="M3136.5,1257.9c2.9-0.2,6.3-0.7,8.8,0.4c7.7,3.4,15.1,0.4,22.6-0.2c3.7-0.3,5.3-4.5,2.9-7.6
	c-2-2.5-5.1-4.1-7.7-6c-3.4-2.5-7.2-4.6-10.4-7.3c-2.5-2.1-4.4-4.9-6.6-7.4l-18.3-1.4c-9.6-2.4-18.7-5.3-29-0.8
	c-4.1,1.8-10.3-0.8-15.4-1.9c-4.4-0.9-8.7-3-13.1-3.9c-9.2-1.9-16.7-6.2-18.5-15.8c-1.4-7.8-1.8-15.7-1.1-23.6
	c0.5-6.9-0.5-13.3-5.9-16.8c-4.8-3.1-6.8-7.1-8.1-11.8c-4.2-15.7-14.4-26.6-27.1-35.8c-7.3-5.2-14.4-10.7-21.1-16.7
	c-12.1-10.8-23.9-22.1-35.7-33.2c-1.4-1.4-2.5-3.1-3.5-4.8c-3.9-6.4-10-9.5-17.1-10.9c-4.9-0.9-9.8-1.6-14.7-2.2
	c-5.2-0.7-7.3,1.3-7.2,6.7c0.1,5.2,3.6,8.2,6.8,11.7c8.7,9.4,20.5,16.1,24.6,29.4c0.6,1.6,1.7,2.9,3.2,3.6
	c5.9,2.4,7.8,7.8,10.3,12.9c2.4,5.4,5.1,10.8,8.1,15.9c6.9,11.3,15.4,21.7,19.6,34.6c0.7,2.1,2.4,3.9,3.9,5.7
	c5.2,6.4,10.5,12.8,15.8,19.1c2.8,3.3,5.7,6.4,8.6,9.5c4.5,4.8,9.1,9.5,13.6,14.3c5.4,5.8,10.1,12.3,16,17.5c3.5,3.1,9,3.8,12.9,6.6
	c8.5,6,18,7.8,28.1,8.7c5.8,0.5,12.1,1.8,17.2,4.4C3110.8,1257.5,3123.4,1258.9,3136.5,1257.9z"/>
<path class="st0" d="M3303.9,680.3c2.1-2.4,4.6-5.3,5.1-8.3c1.7-11.2,9.4-15.4,19.1-17.5c4.9-1,10-1,14.7-2.3c4-1.1,9.8-2.5,11-5.4
	c4.6-10.8,14-13.3,23.6-16c3.2-0.9,6.4-1.8,9.6-2.8c4.9-1.7,7.9-5,7.8-10.4c-0.3-8.3-0.4-16.7-1.4-24.9c-0.7-5.9-1.6-12.2-4.3-17.2
	c-6.1-11.3-8.4-24.4-16.9-34.8c-4.7-5.7-2.4-10.2,3.7-14.7c5.3-3.9,10.5-8.1,15.4-12.6c3.8-3.4,4.2-7.3,0.3-11.3
	c-1.8-2-3.3-4.2-4.4-6.6c-2-4-5.1-5.2-9.6-5.8c-6.2-0.9-12.3-2.4-18.1-4.7c-7.1-2.7-14-6.2-20.9-9.3c-1.8-0.8-3.7-1.3-4.8-1.7
	c-6.6,0-9.3,4.2-6.4,10.7s3.4,12.7,1.2,19.4c-2,6.1,0,10.8,4.6,15.2c3.7,3.7,6.6,8.2,9.5,12.6c2.8,4.1,5.2,8.5,7.1,13.1
	c3.1,7.3,5.7,14.8,7.9,22.4c1.7,6.2,0,11.3-6.1,15.3c-8.2,5.4-16.1,11.3-21.1,20.5c-4.4,8-12.7,10.4-21.3,10.7
	c-4.3,0.2-8.4,1.6-11.9,4.1c-11.6,7.6-17.4,18.8-21.3,31.4c-0.5,2.2-0.3,4.5,0.4,6.6c3.3,10.7,11.8,17.5,19.6,24.7
	C3298.6,683.2,3301.7,682.8,3303.9,680.3z"/>
<path class="st0" d="M3271.1,1151.3c2.8-2,6.1-5.1,6.6-8.2c1.2-7.2,6-11.5,10.3-16.6c3.4-4,6.1-8.5,8.1-13.4
	c0.8-2.1-0.4-6.2-2.1-7.7c-2.8-2.4-6-0.1-7.3,2.7c-3.4,7.3-9.1,9.1-16.5,7.8l-12.3-1.3c-1.3-0.2-2.8-0.1-3.9-0.7
	c-6.6-3.4-12.6-4.2-17.2,3.2c-0.4,0.7-1.8,0.8-2.6,1.3c-7.2,4.2-10.2,10.7-10.8,18.9c-0.3,4.8-1.9,9.6-2.9,14.4
	c-0.6,2.6-1.1,5.2-1.9,7.7c-0.9,3.1-1.6,6.4-3.2,9.1c-4.4,7.5-4.4,12.1,1.9,17.3c4.2,3.4,5.3,7.5,4.8,12.3
	c-0.4,3.9-1.7,7.8-1.7,11.8c0,2.2,1.3,5.5,3,6.4c1.9,1,5.2,0.2,7.4-0.8c1.6-0.7,2.6-2.9,3.5-4.6c2.7-5,6.6-7.1,12.3-5.5
	c4.7,1.3,9.8,1.2,13.5,5.6c1.2,1.4,5.2,2.1,6.9,1.2s2.9-4.1,3.1-6.4c0.1-3-0.3-6-1.2-8.8c-1.9-7.4-3.9-14.7-6-22.1
	C3259.6,1162.8,3261.4,1158.2,3271.1,1151.3z"/>
<path class="st0" d="M3243.7,874.1c-0.5-6.6-6.2-11-13-11.6c-3.6-0.3-7.3-0.2-11-0.2c-4.2,0-6.8,2.1-7.8,6.3
	c-2.8,11.7-5,23.3-4.3,35.5c0.8,13.8,15.9,30,27,31.3c7.4,0.9,13.1,4,18.9,8s12.1,6.8,19.3,4c3.1-15.7,2.9-16.2-11.2-21.2
	c-1.9-0.7-3.7-1.4-5.6-2.1l-10.3-1c-4.2,0.7-6.3-1.8-7.2-5.2c-1.4-5.7-4.1-11.9,0.5-17.2C3246.2,892.6,3244.4,883.2,3243.7,874.1z"
	/>
<path class="st0" d="M3608.2,1511.1c2-10.6-2.8-18.9-9.3-26.2c-14.3-16.3-21.9-36.4-31.6-55.2c-3.9-8-10.1-14.7-17.6-19.3
	c-5.8-3.5-8.2-7.3-7.5-13.6c1.8-15.1-3.1-29.6-4.3-44.4c-0.2-2.4-2.3-4.7-3.5-7c-2.9-5.5-6.3-10.9-8.7-16.6c-3.7-8.9-7-18-10-27.1
	c-1.5-4.5-4.5-6.4-8.6-7.2c-4.7-0.9-5.2,3.2-6.5,6.1c-2.2,4.8-4.7,9.6-6.4,14.7c-6.2,19.6-12,39.2-18.2,58.8
	c-2.8,9-6.8,10.9-14.8,6.2c-10.3-6-20.4-12.6-30.1-19.6c-6.7-4.8-8.8-12.1-6.3-18.4c3.3-8.3,6.7-16.6,10-24.8c2.3-5.8,0-10.9-6-12.4
	c-2.3-0.5-4.6-0.7-6.9-0.7c-12.7-0.7-25.1-2.2-36.7-8.1c-6.2-3.2-12.1-2.3-17.1,3.2c-8.4,9.3-17.4,18.1-25.7,27.6
	c-4.6,5.2-8.2,11.1-13.1,17.8c-6-3.9-11.9-7.5-17.5-11.5c-3-2.1-5.4-2.5-9.1-1.3c-8.3,2.7-15.1,7.9-22.6,11.7
	c-8.6,4.3-15.4,10.3-21.8,17.1c-2.1,2.2-3.8,5-6.3,6.4c-10.4,5.9-15.7,15.3-20.8,25.7c-5.8,11.8-14.4,23.1-28.3,24.6
	c-18,2-32.4,13.6-49.9,16.4c-1.3,0.3-2.5,0.9-3.5,1.9c-7,7.5-16.2,11.2-25.2,15.5c-2.2,1.1-4.7,4.5-4.7,6.8
	c0.2,7.8-2.7,14.2-6.9,20.4c-1.8,2.7-2.4,6.1-3.5,9.2c-1.7,5-2.6,10.6-5.2,15c-4.7,7.8-3,15.6-0.9,23.1c3.6,13.2,7.1,26.1,6.4,40
	c-0.4,8.2,0.9,16.6,1.3,24.8c0.1,1.9,0.4,4.3-0.4,5.8c-4.4,8-5.7,17.8-14.3,23.5c-4.2,2.6-5.7,8-3.5,12.3
	c6.2,12.5,21.4,17.6,33.8,11.4c0.7-0.3,1.4-0.7,2.1-1.1c2.8-1.8,5.5-4.2,8.6-5c15.6-4.1,30.6-12,47.5-9.4c6.7,1,12.5-1.6,17.5-5.8
	c10.2-8.6,23.2-11.2,34.8-16.7c2.3-1.1,5.2-0.7,7.8-1.2c8.1-1.6,16.2-3.3,24.3-5.1c9.4-2,18.7-4.6,28.1-6.1c3.3-0.5,7.2,1,10.5,2.3
	c5.2,2.1,10.2,4.6,15,7.3c2.8,1.6,6.5,3.4,7.5,6c2.3,6.4,6.2,12.5,5,19.9c-0.9,5.6,1.9,9.5,7.1,11.9s9.9,5.5,15.1,7.6
	c12,4.8,16.1,13.5,14.9,25.9c-0.5,5.2,0.2,11.5,6.3,13.5c10.7,3.6,20.9,9,32.6,8.9l2.6,1.1h11.8l2.2,0.3c9.7,1.9,19,1.7,27.9-3.6
	c2.6-1.5,5.6-2.2,8.6-2.2c11.9-0.1,19.3-9.9,29.5-13.5c1.1-0.4,1.7-2,2.5-3.1c4.8-6.4,9.4-12.9,14.3-19.2c3.9-4.9,9.4-8.9,12-14.3
	c4.7-9.7,12.4-16.3,20.1-23.2c10.1-9,20.2-18.1,30.2-27.3c1.8-1.9,3.3-4.2,4.3-6.6c3.5-7.1,7.1-14.2,10.2-21.4
	c6.8-15.8,13.3-31.7,19.9-47.7C3608.1,1514.5,3607.9,1512.7,3608.2,1511.1z"/>
<path class="st0" d="M3832.2,1678.8c-0.3-1.9-5.2-4.6-7.9-4.4c-10.9,0.7-13.6-6.4-15.5-14.7c-0.8-2.9-1.4-5.8-1.8-8.8
	c-0.7-9.8-8.1-14.3-14.7-20.7c-4.9,5.3-6.6,10.4-5.7,16.9c0.9,5.6,1.3,11.2,1.2,16.9c-0.5,15.2-7.2,26.7-20.9,33.8
	c-2.3,1.2-5.5,2.6-6.1,4.6c-4,13.3-15,15.6-26.3,17.7c-1.9,0.3-4.2,0.4-5.7,1.5c-8.5,6.1-16.8,12.4-25.1,18.7
	c-0.2,0.2-0.5,0.5-0.7,0.7c-9.2,9.5-20,16.9-32.6,20.6c-10,2.9-19.4,6.3-28.3,12c-9.2,5.9-19,10.9-28.5,16.3
	c-4.8,2.7-7.9,6.8-10,13.1c9.9,5,20.4,7.8,30.5,5c9-2.4,17.6-7.8,25.4-13.3c11.4-8.1,22.8-15.8,36.7-19c5-1.2,9.9-4.1,14.1-7.2
	c10.4-7.8,20.5-15.9,30.4-24.3c3.8-3.2,8.3-5.3,13.2-6.3c15.4-3.7,29.4-10.2,40.2-22.7c4.5-5.2,10.7-8.8,16.2-13
	c6.1-4.7,12.5-8.8,18.1-13.9C3830.7,1686,3832.6,1681.8,3832.2,1678.8z"/>
<path class="st0" d="M1522.5,143.4c6.3-5.9,4.7-13.7,3-20.6c-1.4-5.8-0.7-9.6,4.4-12.5l1.8-1.3c17.5-5.5,30.9-15.6,37.5-33.4
	c0.8-2.1,1.5-4.5,3-6.1c4-4.1,6-9.7,5.4-15.4c-0.6-6.7,3.1-10.4,8.8-12.8s11.4-5.5,17.3-7.5c5.6-1.8,11.5-2.5,17.2-3.7l2.8-1.4
	l4.3-0.4c0.3-0.5,0.6-0.6,1.1-0.4l15.2-5.6l1.6-1.3l-2.4-5.6l-3.6-1.1l-30-0.1l-18-1.9c-16.9-5.9-34.3-9.6-51.9-12.1L1489.8,0
	L1474,2.7c-3.9,2.5-7.9,2.4-12,0.4l-36-0.3l-4.3,1.3l-33.4,4.7l-4.5,1h-3.5l-12.4,0.3l-11.7,0.4c-6.5,2.8-13.8,2.8-20.3,0.1
	c-7.6,0.6-15.2,1.2-22.7,1.8c-8.2,0.7-16.5,1.3-24.7,2.2c-5.6,0.5-11.1,1.3-16.6,2.4c-15.1,3.5-30.1,7.6-45.3,10.9
	c-7.6,1.6-16.1,0.6-20.6,9.1c-0.5,0.9-2.3,1.3-3.5,1.6c-6.1,1.4-12.2,2.9-18.4,3.8c-11.4,1.7-23,2.5-34.4,4.6
	c-10,1.8-12.1,8.9-6.7,17.5c3.8,6,9.2,9.3,15.8,11.2c0.5-0.2,1.1,0,1.3,0.5l4.2,0.3c0.6-0.1,1.2,0,1.8,0.2h4.3
	c0.6-0.2,1.2-0.3,1.8-0.2c8.8-1.1,17.6-3.8,26.6-1.2c0.6-0.1,1.3,0.2,1.6,0.7l6.1,0.4l6.2,1.5c6.7-0.5,12.3,1.3,16.9,6.4
	c8,8.9,9.7,19.5,3.5,31.2c-3.5,6.7-3.3,12.6,0.4,18.7c3,5.1,6.2,10.1,9.3,15.1c1.8,3,3.4,6-0.7,8.5l-3.4,1.2c-1,0.2-1.9,0.5-2.9,0.7
	c-16.8,3.6-25.6,14.3-25.3,31.6c0.1,5.9,1.8,11.9,1.5,17.7c-0.8,16.2,3.8,30.5,12,44.3c3,5,6.2,7.5,11.9,6.5l2.3-1.2h6.4l2.5,1.2
	c2.9,2.1,6,3.8,8.5,6.2c7.6,7.6,14.3,8,22.4,0.7c3.9-3.5,8.3-6.9,11.2-11.2c7.4-10.6,16.1-19.9,25.4-28.7
	c4.4-4.2,6.9-10.4,10.5-15.6c3.1-4.6,7.1-7.9,13.1-7.7l8.4-1.2c4.9-0.9,9.7-2,14.6-2.5c15.2-1.5,29.1-6,41.8-14.6
	c7.6-5.2,14.3-12.3,24.2-13.3c16.4-1.6,32.7-4.3,48.8-8.1l2.3-1.2c11.4-4.2,23-8.2,34.3-12.8
	C1515.9,148.6,1519.5,146.3,1522.5,143.4z"/>
<path class="st0" d="M1586.9,208.6c4-4.2,3.7-6.9-0.4-11c-2.8-2.8-5.8-5.4-8.7-8.1l-3.8-1.2l-31.5,2.1l-2.2,1.1h-14.4
	c-0.5,0.3-1.1,0.4-1.7,0.3c-3.8-0.6-7.8-0.9-11.5-1.9c-11.7-3.1-20.2,0.5-25.7,10.8c3.4,5.2,7.3,9.8,9.6,15c2.9,6.5,7,9.7,14.2,10.3
	c8.2,0.7,16.5,4.2,24.3,3.3c8.2-1,16-5.8,24-8.9c0.3-0.1,0.7-0.1,1-0.1l1.8-1.1c5.7-1.6,11.6-3,17.2-5
	C1581.9,213,1584.6,211.1,1586.9,208.6z"/>
</svg>
