<svg id="Calque_1" data-name="Calque 1" xmlns="http://www.w3.org/2000/svg" viewBox="0 0 1128.42 926.87"><title>north_america</title><g id="world_map" data-name="world map"><g id="north_america" data-name="north america"><path d="M1267.8,417.3c5.3,2.5,11.7,4,10.8,12.1-0.1.7,0.8,1.9,1.6,2.4,12,7.2,5.9,17.4,4.4,26.7-1,6.1-3.7,12-5,18.1-1.5,6.9.8,10.4,7.1,13.3,8.6,3.8,8.7,3.9,5.2,11.9-3.2,7.4-1.8,14.3,2.2,20.8-1.3,2.4-2.4,4.4-3.5,6.4-2.4,4.5-6.2,6-10.9,4.6-7.9-2.4-15.7-5-23.5-7.6-4.9-2.6-9.9-2.4-14.8-.1-7.5-.5-15.1-1.1-23.1-1.7,0.5-8.4,2.9-14.6,7.9-19.8,2.8-2.8,5.7-5.8,7.5-9.2a10.35,10.35,0,0,0,0-8.1c-0.7-1.4-4.7-2.2-6.7-1.6-8.8,3-17.5,2.1-26.5,1.2-7.4-.8-15.2.7-22.7,1.9-4.4.6-7.1,3.5-6.2,8.6,1.2,6.9-1.7,11.8-6.3,16.8a30.32,30.32,0,0,0-6.7,13.1c-2.2,9.4,2.2,15.2,11.7,17.2,4.2,0.9,8.5,1.4,12.7,2.4,3.8,0.9,6.6,3.2,6.8,7.5,0.2,5-3.4,5.8-7.2,6.4-10.4,1.8-20.9,3.4-31.2,5.6-3.3.7-6.6,2.8-9.4,4.9-3.2,2.4-5.5,5.8-8.7,8.2-4.7,3.5-9.2,2.7-11.2-2.7-1.9-5.2-5.4-6.5-9.9-6.5-8.1,0-15.8-.9-23.5,5-4.8,3.7-12.1,4.6-17.2,9.2-4.6,4.2-8.6,8.4-8,15.2,0.3,3.9-1.9,6.3-5.3,7.5-5.6,2-11.1,4.8-16.9,5.7a48.44,48.44,0,0,0-31,17.9c-7.1,8.8-15.3,16.6-22.7,25.2-6.6,7.6-11.9,15.9-14.4,25.9-1.6,6.4-5.7,11.7-9,17.4-5.4,9.3-13.8,12.7-22.2,16.7-15.3,7.4-29.4,16.8-42.8,27-15.7,12-20.9,28.4-16.3,47.8,2.5,10.3,5.6,20.5,4.8,31.4a28.13,28.13,0,0,1-11.3,21.4c-4.9,3.8-7.6,2.7-11.2-2.6a78.59,78.59,0,0,1-12.3-30.3,40.11,40.11,0,0,1-.8-10.9c1.3-14.5-3.8-19.6-18-17.9a33.45,33.45,0,0,1-4.5,0c-1.2-1.6-2.4-3.5-3.8-5.3-3.8-5-8.8-6.9-14.9-5.6-5.8,1.2-11.7,2.6-17.5,3.8s-9.5,4.9-12.3,9.5c-1.8,3-3.9,4.3-7.3,3.8l-16.2-1.5c-8.6-2.1-17.1-4.8-25.9-6-3.8-.5-8.3,1.8-12.2,3.6-6.9,3.2-13.7,6.7-20.3,10.5q-10.35,5.85-20.1,12.6a17.48,17.48,0,0,0-7.4,15.6c0.2,7.3-2.3,13.5-5.2,20-7.6,16.8-12.4,33.8-10,53,1.1,8.7,3.4,16.5,5.7,24.7,3.8,13.2,14.1,16.6,25.4,19.2,2.5,0.6,5.3.1,7.9,0.1,8.8-.4,17.6-0.9,26.4-1.3,4.7-.9,7.4-4,8.9-8.4,2.2-6.6,4.9-13,6.4-19.7,1.1-5.2,3.3-8.4,8.4-9.8l23.9-6.3c2.8,0.4,5.5.9,8.3,1.3h3.8c0.7,0.1,1.5.1,2.2,0.2,5.1,6.1,5.5,7.2,1,12.5-3.2,3.8-4.3,7.8-5,12.6a62.31,62.31,0,0,1-11.4,28.4c-3.5,4.7-5.8,9.6-6.2,15.5-0.5,8.9,2.8,13,11.6,13.4a96.09,96.09,0,0,0,17.8-.6c11-1.5,19,4.8,27.3,10,1.4,0.9,2.2,3.3,2.4,5.1,0.3,3.3.6,6.8-.1,9.9-2.8,11.6-5.6,23.2-9.2,34.6-5.7,18.3,3.1,35.6,21.5,40.8,3,0.9,6.5.3,9.7,0.4h12.2c-0.7,4-1.1,7.4-1.8,10.7-0.5,2.5-1.6,4.9-1.8,7.4-0.2,3.2-.6,6.6-4.1,7.1s-8.4.6-10.2-1.3c-5.1-5.8-11.2-7.8-18.3-8.8-4.6-.6-9.3-2.5-11.2-7.3-3-7.5-9.6-11.4-16.2-13.9-10.1-3.9-13.8-11.5-16.2-21a84.89,84.89,0,0,0-6.9-18.4c-3.2-6.1-8.8-9.3-15.8-10.9-11.9-2.8-24-5.7-35.2-10.5-6.7-2.9-12.1-9.1-17.7-14.3-3.9-3.6-6.9-8.1-10.7-11.8-5.8-5.6-12.3-9.1-20.7-5.3-2.7,1.2-5.8,1.6-8.7,2.4-0.9.3-1.7,0.7-2.6,1h-5.2c-2.1-.4-4.3-0.9-6.4-1.3-14.2-5.8-28.4-11.6-42.5-17.5-2.7-1.1-5.8-2.4-7.7-4.5-5.5-5.7-12-9.2-19.5-11.5a7.5,7.5,0,0,1-3.5-1.9c-5.5-5.7-11.1-10.8-18.5-14.5-6.4-3.2-8.6-17.3-5-24.7,4.6-9.3,3.7-17.8-2.3-26.2a70.07,70.07,0,0,1-5.7-10.4c-4.9-10-10.7-19.2-20.1-25.6-3.9-2.6-6-6.1-5.4-11,0.2-1.9.3-4.2-.5-5.8-5-10-9.5-20.5-15.8-29.6-5.2-7.5-8.4-14.8-7.8-23.9a96.1,96.1,0,0,0-.1-12c-0.2-3.6-1.5-6.7-5.7-6.8a6.91,6.91,0,0,0-7.3,5.7c-0.7,3.8-1.1,8.2,0,11.8,4.2,14.3,4.8,29.5,11.2,43.4,3.8,8.3,6,17.7,7.4,26.8,1,6,4.5,10.1,7.1,15a25.21,25.21,0,0,1,3,11.1c0,1.9-2.8,4.6-4.8,5.4-1.4.5-4.2-1.2-5.7-2.6-5.6-5.2-11.1-10.4-16.2-16.1a22.68,22.68,0,0,1-4.4-8.6,44.21,44.21,0,0,1-1.7-10.8c-0.3-4.4-2-7.1-5.9-9.5a51.61,51.61,0,0,1-11.9-10.5c-4.3-4.8-3.3-9.6,2.1-13.1,6.5-4.2,7.8-7.6,2.8-13.5-7.2-8.5-8.9-18-9.1-28.7a184,184,0,0,0-3.2-28.7c-1.9-10.4-9.2-16.6-19.1-19.4-9.4-2.6-10.1-3-10.1-12.8-0.1-12.9-3.8-25.7-.8-38.6a3.13,3.13,0,0,0-.4-1.9c-6-9.1-5.6-18.9-2.7-28.7,1.1-3.7,2-7.7,4.2-10.7a95.42,95.42,0,0,0,12.8-23.5c2.5-6.9,8.5-12.5,13.1-18.5,9-11.9,18.6-23.5,27.1-35.8,4.3-6.2,6.6-13.7,10.1-20.5,4.6-8.9,2.7-16.7-3.5-24a24.48,24.48,0,0,1-4-5.7c-2.5-5.7-2.7-10.6,1.5-16.6,6.3-9.1,10.8-19.1,9.5-31.4a96.09,96.09,0,0,1,2.1-30.7c3.5-15.3-3.5-26.9-10.4-38.9-1.1-2-3.5-3.4-4.2-5.5-4.3-11.4-13.2-16-24.5-17.6-7.9-1.2-15.7-2.4-23.4-4.3-4.7-1.2-9.3-3.5-13.7-5.8a21.31,21.31,0,0,0-19.2-.5c-1.7.8-4.1,2-4.6,3.5-1.8,6.4-7.1,7.5-12.2,8.9-10.9,3-21.8,6-32.7,8.9-1.3.3-2.8,0.9-3.9,0.4-13.4-4.9-24.9,2.3-36.4,6.5-28.1,10.3-55.8,21.8-83.6,33-4.6,1.9-8.6,5.2-13.1,7.2a66.78,66.78,0,0,1-13.2,3.9c-5.1,1-8.1-1.7-9.7-7.2,2.4-1.5,4.8-3.4,7.4-4.6,12.6-6,25.3-12,38-17.6a20.58,20.58,0,0,0,10-8.5c-2.1-7.4-8.2-5.1-13.9-6.6-2.6-4.7-5.8-10-8.4-15.7-1-2.2-1.7-6.6-.5-7.5,4.9-3.9,4.8-10,8-14.4,2-2.8,5.3-4.9,8.4-6.4,6.6-3.1,13.5-5.6,20.3-8.1,7.4-2.8,15.1-4.8,22.3-8.1,8-3.6,17.2-5.2,23.8-12.5-5.5-9-14.1.5-21.1-4.6,1.1-4.7,1.6-10.4,3.8-15.3,1-2.4,4.9-4.3,7.9-4.9,10.4-2.3,20.9-3.8,31.4-5.8,2.6-.5,5-1.5,7.5-2.2,8.5-2.5,13.9-7.2,13.8-17-0.1-4.3,2.7-7.5,7-8.7,5.7-1.6,11.5-3.1,17.3-4.4,5.2-1.2,10.6-1.4,15.6-3.1,12.9-4.4,25.5-9.4,38.4-14,5-1.8,10.1-3.6,15.3-4.3a266.59,266.59,0,0,1,26.8-2.3c9-.3,17.8.3,26.5-3.4,3.1-1.3,7.3-.6,10.8.1,9.2,1.6,18.2,3.7,27.3,5.7l14.3,1.5c6.7,1.3,13.3,2.7,20,4,0.7,0.1,1.4.1,2.1,0.2,3.2,0.1,6.4.1,9.6,0.2a14,14,0,0,0,14.4,0c1.9,0,3.8-.1,5.7-0.1,0.8,0.5,1.6.9,2.3,1.4,2.3,0.3,5.1-.1,6.7,1.2,9.5,7.2,21.6,4.7,31.8,9.1,7.4,3.2,14.1-.7,21.1-2.2,4.1-.4,8.2-0.8,12.4-1.3,10.8-1.7,21.6-3.5,32.5-5a92,92,0,0,1,13.9-1.2c7,0,13.7.4,20.5-2.8,3.1-1.5,7.7-.3,11.6.1,6.6,0.6,13.1,2.3,19.6,2.3,13.7,0,26.5,3.3,37.9,10.7,4.8,3.1,9.5,4.5,15,3.8,5.1-.7,10.2-0.4,14.3,3,13.7,11.4,29,9.4,44.6,6,11-2.4,22-4.9,33.2-6.6,6.3-.9,12.8.3,17.5,5.3,5.1,5.5,11.5,6.4,18.3,6.1,9.9-.4,19.9-1.1,29.8-1.8,1.9-.1,3.7-1.3,5.5-1.9,1.3-.6,2.5-1.2,3.8-1.8,1.3,0,2.6.1,3.9,0.1,2.7,2.1,5.4,2,8.1-.1l6,0.6c2,0.3,3.9.7,5.9,1.1,12.8,0.6,17.6-4.1,15.2-16.2-1-4.9.2-8,3.2-11.7,8.4-10.2,20.3-13.4,32-16.8,4.3-1.3,8.1,3.1,9.7,9.1a175.92,175.92,0,0,0,5.6,16.9c2.3,6.2,7.7,6.6,13.2,6.5s9.5-3.1,11.8-7.7c0.9-1.9.2-5.1-.7-7.3-3.4-7.6-1.3-13.6,4.9-18.6,6.5-5.2,12.7-11,19.8-15,5.3-2.9,11.9-3.7,18-4.8,4.2-.7,8.6-0.3,13-0.4,20.2-.6,40.4-1.4,60.6-1.8,4.6-.1,9.2,1.1,13.8,1.9,5.3,0.9,8.8,3.6,10.7,9.1,3.2,9.2,10.5,13.7,19.9,16.2,7.2,2,14.1,5.6,20.7,9.3,5.3,2.9,7.8,8.1,6.9,14.4-1.4,10.6,5,16.8,13,21.4,4.7,2.7,7.9,5.7,9.6,10.7,2.7,7.9,2.1,10.3-4.3,15.5-4.4,3.6-8.8,7.1-13.2,10.6-5.9,4.6-10.6,4.3-15.8-1.1-3-3.1-5.3-6.9-8.6-9.6-1.7-1.4-4.7-1.4-7.1-2-0.2,2.4-1.1,4.9-.5,7.1,0.7,2.8,2.5,5.4,3.8,8.1,4.7,9.4,3.1,16.6-5.1,22.7-5.9,4.3-12.2,8-17.6,12.9-4.4,4-9.1,5.1-14.6,4.6-1.3-.5-2.5-1-3.8-1.6-5.9-2.4-11.7-4.7-17.6-7-6.4-2.5-11.8-5.7-13.8-13.1-1.2-4.3-3-9-8.3-10.5-1.6,0-3.1.1-4.7,0.1l-23.6-.3-12.3-1.5c-3.7-4.7-.1-8.1,2.5-11.2,3.5-4.1,7.7-7.3,13.6-6.4,2.6,0.4,5.1,1.1,7.7,1.6,0.7,0.3,1.3.7,2,1h14.6a17.38,17.38,0,0,0,1.9-1,2.47,2.47,0,0,0,.9-0.4c6.3-8.7,16.1-13.1,24.3-19.3a18.19,18.19,0,0,0,4.2-4.1c2.9-4.3,2.5-7.7-2.1-9.8a29.57,29.57,0,0,1-12.4-10.6c-2.2-3-7.3-4-11.1-5.9-1.4-.5-2.8-1-4.2-1.4-5.1.3-10.3,0.6-15.4,0.8-0.9-.3-1.7-0.7-2.6-1-1.8,0-3.7.1-5.5,0.1-0.8.5-1.5,1-2.3,1.5a11,11,0,0,0-2.6,1.5c-6.2,7.2-12.3,14.5-18.5,21.6a78.49,78.49,0,0,1-7.9,8.4c-2.7,2.4-6.3,3.8-9,6.2a26.66,26.66,0,0,1-18.2,6.7c-1.3.5-2.6,1.1-3.8,1.6-4.7,7.7,0,13.3,4.1,19.1,1.4,2,3.5,4.4,3.3,6.4-0.4,3.8-3.9,5.4-7.4,4.6-4.1-.9-8-2.7-12-4.2-0.9-.1-1.8-0.1-2.7-0.2-6,2.5-12.2,4.6-18.1,7.6-4.9,2.5-8.3,3-13.2-1-11.8-9.6-26.7-8.4-38.8,1-6.9,5.3-13.5,12-23.4,11.1-2.2.4-4.4,0.9-6.5,1.3-7.3,3-15.2,5-21.9,9.1-9.6,5.9-18.5,13-27.3,20.1-5,4.1-7,9.3-2.7,15.8,1.9,2.8,1.9,6.9,2.6,10.5,0.9,5,3.2,7.9,8.7,9.3,9.3,2.3,17.6,6.1,24.6,14,5,5.6,13.6,7.9,20.6,11.7l16.2,1.8c4.5,1.5,9,2.9,13.9,4.5-5.1,9-9.4,16.8-13.9,24.5-3.6,6.2-2.7,12.2.7,17.8,3.1,5.2,6,5.7,11.6,3.1a56.58,56.58,0,0,0,8.8-4.6c2.3-1.7,5.2-3.8,6-6.4a150.92,150.92,0,0,0,5.2-24c0.6-4.6,1.9-7.3,6.2-9,5.3-2,10.4-4.3,15.6-6.4,1.3-.5,2.5-1,3.8-1.5,9.9-4.7,19.9-9.2,25.4-19.8,3-5.8,4.3-10.7-.7-16.3s-3.9-8.6,3.1-12.1c2.4-1.2,4.8-2.2,7.2-3.4,5.7-2.7,9-7.3,8.8-13.4-0.2-5.9,1.6-10.3,6-14a5.09,5.09,0,0,0,2-3.3c0.2-8.3,6.8-10.8,12.4-14.2l7.5-.3,17.9,0.9c0.7,0.4,1.5.7,2.2,1.1,10.2-.4,17.4,4.7,23.5,12.2,2.5,3,5.9,5.2,9.1,7.5,5.9,4.2,6.3,5.5,3.2,12.3-0.8,1.8-1.9,3.5-2.6,5.4-2.5,6.4-1.5,10.3,3.3,14.1,5.2,4.1,7.6,3.4,14.2.1a158.55,158.55,0,0,0,29.7-19.5c0.7-.5,1.3-0.9,2-1.4,13.1,6.8,16.3,19.1,17.5,32.2,0.6,6.5.2,13.2,0.1,19.8,0,7.3,2.5,13.4,8.4,18A7.17,7.17,0,0,1,1267.8,417.3Z" transform="translate(-184 -176.89)"/><path d="M812.1,895.5c1.5-10.9,8.8-15.6,16.3-18.6s16.1-3.8,24.2-5.5a9,9,0,0,1,4-.1c16.8,4.1,33.9,8,47,20.1,8,7.3,17.4,12,26.5,17.3,4,2.3,8.2,4.4,12,7.1,4,2.9,3.9,5.6-.1,8.7-5.2,4.1-11.1,5-16.8,1.7-5.2-3.1-9.9-4.3-15.9-2.5-5.6,1.7-6.9.2-9-5.9-0.6-1.8-1-4.4-2.4-5.3-12.4-7.6-21.9-20.8-38.6-20.6a20.06,20.06,0,0,1-6.7-1.7,26.92,26.92,0,0,0-20.3.3C826.2,892.8,820.2,895.8,812.1,895.5Z" transform="translate(-184 -176.89)"/><path d="M935.2,946.2c6.3-10.6,15.6-5.9,21.8-9.3,3.4-6.7-8.6-8.8-4.6-15.9h26.3a10,10,0,0,1,3.9.6c9,4.1,18,8.1,26.7,12.8,2,1.1,3.8,4.6,3.9,7,0.1,3.5-3.2,4.4-6.4,5-8.4,1.6-16.7,4-25.1,5.2C966.4,953.7,951.8,949.5,935.2,946.2Z" transform="translate(-184 -176.89)"/></g></g><g id="countries"><g id="mexico"><circle cx="426.8" cy="712.31" r="25" style="fill:#ff2b38;opacity:0.5;isolation:isolate"/><circle cx="426.8" cy="712.31" r="15.9" style="fill:#ff2b38"/></g><g id="usa"><circle cx="564.2" cy="459.81" r="25" style="fill:#ff2b38;opacity:0.5;isolation:isolate"/><circle cx="564.2" cy="459.81" r="15.9" style="fill:#ff2b38"/></g><g id="canada"><circle cx="555.4" cy="206.11" r="25" style="fill:#ff2b38;opacity:0.5;isolation:isolate"/><circle cx="555.4" cy="206.11" r="15.9" style="fill:#ff2b38"/></g></g></svg>