<svg id="Calque_1" data-name="Calque 1" xmlns="http://www.w3.org/2000/svg" viewBox="0 0 740.28 514.61"><title>oceania</title><g id="world_map" data-name="world map"><g id="oceania"><path d="M3609.9,1775.6h-11.8c-0.9-.4-1.7-0.7-2.6-1.1-11.7.1-21.9-5.3-32.6-8.9-6.1-2-6.8-8.4-6.3-13.5,1.1-12.5-2.9-21.2-14.9-25.9-5.2-2.1-10-5.2-15.1-7.6s-7.9-6.4-7.1-11.9c1.1-7.5-2.7-13.5-5-19.9-0.9-2.6-4.7-4.4-7.5-6a129.51,129.51,0,0,0-15-7.3c-3.3-1.3-7.2-2.8-10.5-2.3-9.5,1.5-18.8,4-28.1,6.1-8.1,1.8-16.2,3.4-24.3,5.1-2.6.5-5.5,0.1-7.8,1.2-11.6,5.5-24.7,8.1-34.8,16.7-5,4.2-10.8,6.8-17.5,5.8-17-2.6-31.9,5.4-47.5,9.4-3.1.8-5.8,3.2-8.6,5a25.33,25.33,0,0,1-35.9-10.2,9.5,9.5,0,0,1,3.5-12.4c8.6-5.7,9.9-15.5,14.3-23.5,0.9-1.6.5-3.9,0.4-5.8-0.4-8.3-1.7-16.6-1.3-24.9,0.7-13.9-2.7-26.9-6.4-40-2.1-7.5-3.7-15.3.9-23.1,2.7-4.5,3.5-10,5.2-15,1.1-3.1,1.7-6.6,3.5-9.2,4.2-6.2,7.1-12.5,6.9-20.4-0.1-2.3,2.5-5.7,4.7-6.8,9-4.3,18.2-8,25.2-15.5a6.71,6.71,0,0,1,3.5-1.9c17.5-2.8,31.9-14.4,49.9-16.4,13.9-1.6,22.5-12.9,28.3-24.6,5.1-10.4,10.3-19.8,20.8-25.7,2.5-1.4,4.2-4.2,6.3-6.4,6.4-6.8,13.3-12.8,21.8-17.1,7.6-3.8,14.4-9,22.6-11.7,3.7-1.2,6.1-.9,9.1,1.3,5.6,4,11.5,7.5,17.5,11.5,4.9-6.7,8.5-12.7,13.1-17.9,8.3-9.4,17.2-18.3,25.7-27.6,5-5.5,10.9-6.4,17.1-3.2,11.6,5.9,24,7.4,36.7,8.1a39.36,39.36,0,0,1,6.9.7c5.9,1.5,8.3,6.6,6,12.4-3.3,8.3-6.8,16.5-10,24.9-2.5,6.4-.4,13.7,6.3,18.4,9.7,6.9,19.8,13.5,30.1,19.6,8,4.7,12,2.8,14.8-6.2,6.1-19.6,11.9-39.3,18.2-58.8,1.6-5,4.1-9.8,6.3-14.6,1.3-2.9,1.9-6.9,6.5-6.1,4.1,0.8,7.1,2.7,8.6,7.2,3,9.2,6.3,18.3,10,27.1,2.4,5.8,5.8,11.1,8.7,16.6,1.2,2.3,3.3,4.6,3.5,7,1.1,14.8,6,29.3,4.2,44.4-0.7,6.3,1.7,10.1,7.5,13.6a46.57,46.57,0,0,1,17.6,19.3c9.7,18.8,17.3,38.9,31.6,55.2,6.4,7.3,11.3,15.7,9.3,26.2-0.3,1.6-.1,3.4-0.7,4.9q-9.75,23.85-19.9,47.7c-3.1,7.3-6.7,14.3-10.2,21.4a23.52,23.52,0,0,1-4.3,6.6c-9.9,9.2-20.1,18.3-30.2,27.3-7.7,6.9-15.4,13.5-20.1,23.2-2.6,5.4-8.1,9.4-12,14.3-5,6.3-9.6,12.8-14.3,19.2-0.8,1.1-1.4,2.7-2.5,3.1-10.2,3.7-17.6,13.4-29.5,13.5a17,17,0,0,0-8.6,2.2c-8.8,5.4-18.2,5.5-27.9,3.6C3611.3,1775.8,3610.6,1775.7,3609.9,1775.6Z" transform="translate(-3275.97 -1372.16)"/><path d="M3787.6,1880.7c2.1-6.3,5.2-10.4,10-13.1,9.5-5.4,19.3-10.5,28.5-16.3,8.8-5.6,18.3-9.1,28.3-12,12.7-3.6,23.4-11.1,32.6-20.6a4.61,4.61,0,0,1,.7-0.7c8.3-6.3,16.6-12.6,25.1-18.7,1.5-1.1,3.8-1.2,5.7-1.5,11.3-2,22.3-4.4,26.3-17.7,0.6-2,3.8-3.4,6.1-4.6,13.7-7.2,20.4-18.7,20.9-33.8a87.42,87.42,0,0,0-1.2-16.9c-1-6.5.8-11.6,5.7-16.9,6.5,6.4,14,10.9,14.7,20.7a52.84,52.84,0,0,0,1.8,8.8c1.9,8.3,4.6,15.4,15.5,14.7,2.7-.2,7.6,2.5,7.9,4.4,0.4,2.9-1.5,7.2-3.8,9.4-5.6,5.1-12.1,9.3-18.1,13.9-5.5,4.2-11.7,7.9-16.2,13-10.8,12.5-24.7,19-40.2,22.7a30.14,30.14,0,0,0-13.2,6.4c-9.9,8.4-20,16.5-30.4,24.3-4.2,3.1-9.1,6.1-14.1,7.2-14,3.2-25.3,10.9-36.7,19-7.8,5.5-16.4,10.8-25.4,13.3C3808,1888.4,3797.5,1885.7,3787.6,1880.7Z" transform="translate(-3275.97 -1372.16)"/></g></g><g id="countries"><g id="australia"><circle cx="282.73" cy="178.54" r="25" style="fill:#ff2b38;opacity:0.5;isolation:isolate"/><circle cx="282.73" cy="178.54" r="15.9" style="fill:#ff2b38"/></g><g id="new_zealand" data-name="new zealand"><circle cx="654.23" cy="429.94" r="25" style="fill:#ff2b38;opacity:0.5;isolation:isolate"/><circle cx="654.23" cy="429.94" r="15.9" style="fill:#ff2b38"/></g></g></svg>