<svg id="Calque_1" data-name="Calque 1" xmlns="http://www.w3.org/2000/svg" viewBox="0 0 601.13 978.14"><title>south_america</title><g id="world_map" data-name="world map"><g id="south_america" data-name="south america"><path d="M1317.5,1240.7c6.2,2.4,12.4,4.9,18.6,7.3,1.9,0.5,3.8,1,5.7,1.6l14.4-.3h5.4c11.7,3,20,11,28.3,19.1,3.7,3.6,8.3,6.4,12.4,9.5,1.8,0.5,3.6,1.1,5.4,1.6,5.2,2.6,12.2,1.2,15.9,7.2,4.9,7.8,8,16.2,8.1,25.4,0.4,22.1-7.9,40.8-23.2,56.6-2.7,2.8-4.7,6.3-6.8,9.6-3.4,5.3-5.8,11.5-10,16-11.2,11.9-11.7,25.6-7.7,40,1.6,5.6,2.6,10.7.9,16.5-1.1,3.7-.8,7.9-1.2,11.9-0.3,2.6.1,5.9-1.3,7.7-4.9,6.4-3.8,13.7-4.6,20.9-0.8,6.3-3.9,12.7-7.1,18.3-2.7,4.8-5.1,9.2-4.5,14.9,0.4,4.2-.8,7.9-4.8,10.2-1.1.7-2.7,1.4-3.1,2.4-3.9,10.1-13.1,10.3-21.5,10.7a44.46,44.46,0,0,0-22.4,7.3c-3,1.9-6.7,2.8-9.9,4.5-6.7,3.6-13.6,6.9-19.8,11.3-10.7,7.7-9.4,18.7-7.4,29.9a186.06,186.06,0,0,1,2.5,19.7,12.42,12.42,0,0,1-5.3,11.3,56.6,56.6,0,0,0-4.3,4.2c-6.3,6.2-4.4,16.8-12.5,22.1-7.5,4.9-9.3,13.4-12.4,21.1-3.7,8.9-7.1,18-11.7,26.4a44.23,44.23,0,0,1-12.3,14.2c-9.6,7-12.9,17.4-17.3,27.4a13.91,13.91,0,0,0-1.4,4.8c-0.7,14-10.3,19.8-21.7,24-2.5.9-5.1,1.6-7.6,2.5-7,2.6-11.7,7.3-13.3,14.9-0.8,3.5-1.5,7.4-3.5,10.3-5.4,7.8-9.4,16-10.6,25.5a9.08,9.08,0,0,1-1.9,4.5c-5.1,6.1-8.7,12-6.2,20.8,0.8,3-2.3,7.4-4.2,10.8-5.6,9.6-2.8,20.1,7,24.9,10.5,5.1,12.1,13.9,3.8,22.3-4.5,4.6-9.2,8.8-8.3,16.1a5,5,0,0,1-1,2.8c-7.2,10.6-2.1,19.4,5.9,26,3,2.4,6,5.5,7.5,8.9,7.1,16.3,20.8,23.3,36.7,27.7,3.4,0.9,7.1,1.9,9.8,3.9,1.5,1.1,2.1,4.8,1.5,6.9-0.4,1.5-3.4,3.4-5.1,3.3-7.9-.3-15.8-1.2-23.7-2-4.9-.5-9.8-1.7-14.8-1.8-5.8-.1-9-2-10.7-8a19.44,19.44,0,0,0-25-13.3c-11.8,4-18.9-2.7-26.3-9.7-11.3-10.8-16.3-25.6-24.2-38.6-1-1.7-1.4-3.9-2.6-5.4-7.1-8.7-8.2-19.4-10.3-29.8-0.9-4.2-1.4-8.8-3.6-12.3-4.4-7.1-5.7-14.6-6.9-22.6-2.2-14.9-6.4-29.5-16.8-41-7.1-7.9-10.2-17.2-12-26.9-2.6-14.1-5-28.1-11.6-41.1-1-1.9-1-4.6-.8-6.8,1.2-10.9,2.8-21.7,3.9-32.6,0.8-8.2,1.9-16.6,1-24.7-1.2-10.1-4.4-20-6.7-30-3.6-15.6-6.9-31.2-2.8-47.3a20,20,0,0,0,.5-6c-0.8-13.3-1.6-26.5-2.5-39.8-0.3-5-1.1-9.9-1.4-14.9-0.8-16.3-1-32.6-2.1-48.8-1.2-17-6-31.8-21.5-42.7-12.4-8.7-25.2-16.1-39.4-20.9-8.4-2.8-12-10.3-17.4-15.9-5.6-5.9-11.9-11.9-12.1-21.1-10.7-16-17.7-34.3-30.7-48.9a44.69,44.69,0,0,1-8.5-15.4c-3.6-11.4-8.3-21.9-18.4-28.9-10.9-7.6-12.7-19-13.4-30.7-0.2-3.5,2.2-7.6,4.6-10.6,6.2-7.7,9-15,3.3-24.5-2.3-3.9-2.4-9.6-2.3-14.5,0.3-14.5,4.7-27,16.2-37,5.9-5.2,9.4-13,15.3-18.2,4.9-4.3,9.5-8.8,11.5-14.7,5.7-16.3,8.2-32.8.5-49.4-2.3-5-4-10.4-6-15.6-0.3-.9-0.6-2.2-1.3-2.5-7.3-2.9-4.2-8.5-4-13.7,5-2.7,9.9-1.9,14.7-.9,10.1,1.9,21.7-4.2,24.3-14.1,3.5-13.3,13.8-18,25.3-20.5,8.8-1.8,16.4-4.9,22.9-11.1,1.7-1.6,4.6-3.2,6.8-2.9,7.2,0.8,14.7,1.5,21.3,4.2,7.9,3.2,14.8,8.6,22.4,12.6,4.3,2.3,9.1,3.8,13.6,5.6,4.1,0.6,8.2,1.1,12.2,1.7,11.7,7.8,16.1,7.7,27.8-.4,6.1-.5,12.2-0.9,18.3-1.4,6.5-.8,12.7-3.3,19.4,0,5.7,2.8,7.1,4.4,5.8,10.6-0.3,1.3-.9,2.5-1.3,3.8-2.7,8.9.1,16.2,8.7,19.3,8.8,3.1,14.2,9,18.7,16.8,7.3,12.5,17.8,20.6,33.1,19.2,12.1-1.1,22.8,3.6,33.9,6.8,2.3,0.7,4.3,2.9,6.3,4.6,4.2,3.7,8.1,7.8,12.5,11.1,5.5,4.2,7,10.5,8.5,16.5,2,8.1,4.1,15.9,9.6,22.6,1.9,2.3,2.3,6.1,3.2,9.2,2.5,8.8,6.5,15.6,16.5,17.9,6,1.4,11.6,4.7,17.4,7.1,1.1,0.5,2.3,1,3.4,1.5,14.2,6.9,28.4,13.7,42.7,20.6A1.05,1.05,0,0,0,1317.5,1240.7Z" transform="translate(-830.59 -1029.96)"/></g></g><g id="countries"><g id="brazil"><circle cx="460.71" cy="295.94" r="25" style="fill:#ff2b38;opacity:0.5;isolation:isolate"/><circle cx="460.71" cy="295.94" r="15.9" style="fill:#ff2b38"/></g></g></svg>